<svg xmlns="http://www.w3.org/2000/svg" width="48" height="48" viewBox="0 0 172 172"><g fill="none" stroke-miterlimit="10" font-family="none" font-weight="none" font-size="none" text-anchor="none" style="mix-blend-mode:normal"><path d="M0 172V0h172v172z"/><path d="M133.63 150.5h-9.26a6.13 6.13 0 01-6.12-6.12v-8.661h21.5v8.66a6.13 6.13 0 01-6.12 6.121zm-85.703 0h-9.553c-3.376 0-6.124-2.748-6.124-6.12v-8.661h21.797v8.66a6.13 6.13 0 01-6.12 6.121z" fill="#546e7a"/><path d="M141.84 143.333H30.156c-4.773 0-8.657-3.587-8.657-8.363V37.324c0-4.773 3.884-8.657 8.657-8.657H141.84c4.777 0 8.661 3.884 8.661 8.657v97.646c0 4.776-3.884 8.363-8.66 8.363z" fill="#cfd8dc"/><path d="M130.792 35.833a5.377 5.377 0 00-5.375 5.375 5.377 5.377 0 005.375 5.375 5.377 5.377 0 005.375-5.375 5.377 5.377 0 00-5.375-5.375z" fill="#ff1744"/><path fill="#37474f" d="M28.667 53.75h114.666V129H28.667z"/><circle cx="11.5" cy="11.5" transform="scale(3.58333)" r="1.5" fill="#37474f"/><circle cx="15.5" cy="11.5" transform="scale(3.58333)" r="1.5" fill="#37474f"/><circle cx="19.5" cy="11.5" transform="scale(3.58333)" r="1.5" fill="#37474f"/><circle cx="23.5" cy="11.5" transform="scale(3.58333)" r="1.5" fill="#37474f"/><path d="M79.432 28.667V27.62c0-3.372-2.749-6.12-6.124-6.12H42.849a6.129 6.129 0 00-6.12 6.12v1.047zM135.27 28.667V27.62a6.13 6.13 0 00-6.12-6.12h-22.843c-3.376 0-6.124 2.748-6.124 6.12v1.047z" fill="#37474f"/><path d="M28.667 114.667h114.666v7.166H28.667z" fill="#546e7a"/><path d="M118.813 114.667H53.187a6.603 6.603 0 01-6.604-6.604v-2.401c0-14.817 12.012-26.829 26.829-26.829h25.18c14.813 0 26.825 12.012 26.825 26.829v2.4a6.603 6.603 0 01-6.604 6.605z" fill="#ffd54f"/><path d="M75.25 93.167a3.585 3.585 0 01-3.583-3.584v-10.75h7.166v10.75a3.585 3.585 0 01-3.583 3.584zM96.75 93.167a3.585 3.585 0 01-3.583-3.584v-10.75h7.166v10.75a3.585 3.585 0 01-3.583 3.584z" fill="#ff8f00"/></g></svg>