<svg xmlns="http://www.w3.org/2000/svg" width="48" height="48" viewBox="0 0 172 172"><g fill="none" stroke-miterlimit="10" font-family="none" font-weight="none" font-size="none" text-anchor="none" style="mix-blend-mode:normal"><path d="M0 172V0h172v172z"/><path d="M86 32.25L46.583 53.553v7.364L7.167 75.25v71.667h157.666V75.25l-39.416-14.333v-7.364z" fill="#f44336"/><path d="M57.333 93.167h57.334v53.75H57.333z" fill="#4e342e"/><path d="M21.5 93.167h35.833v53.75H21.5zm93.167 0H150.5v53.75h-35.833z" fill="#ff8a80"/><path d="M69.875 66.292L86 50.167l16.125 16.124L86 82.417zM57.333 93.167h-7.822l-10.094 19.185-10.095-19.185H21.5v.523l13.867 26.352L21.5 146.393v.524h7.822l10.095-19.186 10.094 19.186h7.822v-.524l-13.867-26.351L57.333 93.69zm93.167 0h-7.822l-10.095 19.185-10.094-19.185h-7.822v.523l13.867 26.352-13.867 26.351v.524h7.822l10.094-19.186 10.095 19.186h7.822v-.524l-13.868-26.351L150.5 93.69z" fill="#fff"/><path d="M79.094 66.292l6.912-6.907 6.907 6.911-6.911 6.908zm-32.511 1.791l-43 14.334V75.25l43-14.333zM86 35.833l-43 21.5v-7.166l43-21.5zm43 14.334l-43-21.5v7.166l43 21.5zm-3.583 17.916l43 14.334V75.25l-43-14.333z" fill="#b71c1c"/></g></svg>