<svg xmlns="http://www.w3.org/2000/svg" width="48" height="48" viewBox="0 0 172 172"><g fill="none" stroke-miterlimit="10" font-family="none" font-weight="none" font-size="none" text-anchor="none" style="mix-blend-mode:normal"><path d="M0 172V0h172v172z"/><path d="M120.4 111.083h-5.733v-7.166h5.733c1.792 0 5.017-4.659 5.017-8.6V68.083h7.166v27.234c0 6.45-5.016 15.766-12.183 15.766zm-27.233-75.25c0-1.791 1.433-3.583 3.583-3.583h39.417V17.917H96.75c-9.675 0-17.917 7.883-17.917 17.916l-3.583 32.25h21.5z" fill="#ff5722"/><path d="M68.083 86h35.834v17.917H68.083z" fill="#bf360c"/><path d="M28.667 157.667l-3.584-14.334c0-42.283 43-46.583 43-46.583h35.834s43 4.658 43 46.583l-3.584 14.334zm82.416-78.834c0-6.091-4.658-10.75-10.75-10.75H71.667c-5.734 0-10.75 4.659-10.75 10.75 0 5.734 4.658 10.75 10.75 10.75h28.666c5.734 0 10.75-4.658 10.75-10.75z" fill="#ff6e40"/><path d="M86 103.917c-10.033 0-17.917 7.883-17.917 17.916 0 10.034 7.884 17.917 17.917 17.917 10.033 0 17.917-7.883 17.917-17.917 0-10.033-8.242-17.916-17.917-17.916z" fill="#e64a19"/><path d="M86 111.083c-5.937 0-10.75 4.813-10.75 10.75s4.813 10.75 10.75 10.75 10.75-4.813 10.75-10.75-4.813-10.75-10.75-10.75z" fill="#ffa726"/><path d="M146.917 143.333l-3.584 14.334H28.667l-3.584-14.334zm-75.25-53.75h28.666c6.092 0 10.75-5.016 10.75-10.75H60.917c0 5.734 4.658 10.75 10.75 10.75zm60.916-53.75h7.167v-21.5h-7.167zM68.442 118.25c-.359 1.075-.359 2.508-.359 3.583 0 1.075 0 2.509.359 3.584h35.116c.359-1.075.359-2.509.359-3.584 0-1.075 0-2.508-.359-3.583zm67.725-53.75h-14.334v7.167h14.334z" fill="#d84315"/></g></svg>