<svg xmlns="http://www.w3.org/2000/svg" width="48" height="48" viewBox="0 0 172 172"><g fill="none" stroke-miterlimit="10" font-family="none" font-weight="none" font-size="none" text-anchor="none" style="mix-blend-mode:normal"><path d="M0 172V0h172v172z"/><path d="M164.403 83.133c-.071-1.469-.143-2.938-.286-4.407-.108-1.433-.215-2.903-.359-4.336a188.965 188.965 0 00-.752-6.307H129c-3.942 0-7.167 3.225-7.167 7.167v50.167L139.75 129c0-1.97.788-3.763 2.114-5.053a7.006 7.006 0 015.053-2.114h16.089a204.72 204.72 0 001.756-26.875c0-3.941-.108-7.883-.359-11.825zm-31.82-7.883a3.594 3.594 0 013.584 3.583 3.594 3.594 0 01-3.584 3.584A3.594 3.594 0 01129 78.833a3.594 3.594 0 013.583-3.583z" fill="#9fa8da"/><path d="M89.583 111.083H53.75s-39.417 7.117-39.417 46.584H129c0-39.327-39.417-46.584-39.417-46.584" fill="#bcaaa4"/><path d="M93.167 111.993v31.34h-43v-31.35c-3.387 1.003-8.762 2.949-14.334 6.417v39.267H107.5V118.46c-5.576-3.486-10.95-5.457-14.333-6.468z" fill="#6d4c41"/><path d="M71.667 132.583l-17.917-21.5v-21.5h35.833v21.5z" fill="#ff9800"/><path d="M111.083 68.083a7.167 7.167 0 11-14.334 0 7.167 7.167 0 0114.334 0m-64.5 0c0-3.96-3.21-7.166-7.166-7.166a7.162 7.162 0 00-7.167 7.166 7.162 7.162 0 007.167 7.167 7.167 7.167 0 007.166-7.167" fill="#ffa726"/><path d="M103.917 46.583c0-27.358-64.5-17.812-64.5 0v25.084c0 17.812 14.433 32.25 32.25 32.25 17.812 0 32.25-14.438 32.25-32.25z" fill="#ffb74d"/><path d="M71.667 14.333c-21.77 0-35.834 17.652-35.834 39.417v8.191L43 68.084V50.167l43-14.334 14.333 14.334v17.916l7.167-6.242V53.75c0-14.423-3.72-28.724-21.5-32.25l-3.583-7.167z" fill="#424242"/><path d="M82.417 68.083A3.587 3.587 0 0186 64.5a3.587 3.587 0 013.583 3.583A3.587 3.587 0 0186 71.667a3.587 3.587 0 01-3.583-3.584m-28.667 0a3.587 3.587 0 003.583 3.584 3.587 3.587 0 003.584-3.584 3.587 3.587 0 00-3.584-3.583 3.587 3.587 0 00-3.583 3.583" fill="#784719"/><path d="M89.583 86s0 3.583-13.186 3.583H75.25A3.594 3.594 0 0171.667 86a3.594 3.594 0 013.583-3.583h1.29a3.53 3.53 0 012.902 1.469c.036.036-.035-.036 0 0C80.267 84.853 82.13 86 86 86zM53.75 86s0 3.583 13.187 3.583h1.146A3.594 3.594 0 0071.667 86a3.594 3.594 0 00-3.584-3.583h-1.29a3.53 3.53 0 00-2.902 1.469c-.036.036.036-.036 0 0-.824.967-2.688 2.114-6.558 2.114z" fill="#424242"/><path d="M139.75 127.1v26.983a3.594 3.594 0 01-3.583 3.584h-9.89c-2.473 0-4.444-1.685-4.444-3.799v-32.035l16.412 3.118h.072c.967.215 1.433 1.11 1.433 2.15z" fill="#e65100"/><circle cx="36.5" cy="36.5" transform="scale(3.58333)" r=".5" fill="#fb8c00"/><circle cx="36.5" cy="39.5" transform="scale(3.58333)" r=".5" fill="#fb8c00"/><circle cx="36.5" cy="42.5" transform="scale(3.58333)" r=".5" fill="#fb8c00"/><path d="M164.762 94.958c0 8.959-.574 17.953-1.756 26.875h-7.167a204.72 204.72 0 001.756-26.875c0-8.958-.573-17.952-1.756-26.875h7.167a204.72 204.72 0 011.756 26.875z" fill="#c5cae9"/><path d="M163.758 74.39l-41.925 33.97v-9.21l38.342-31.067h2.83c.288 2.115.538 4.193.753 6.307zM164.403 83.133l-42.57 34.472v-4.622l42.284-34.257c.143 1.469.215 2.938.286 4.407z" fill="#c5cae9"/><path d="M163.758 74.39l-6.736 5.447c-.18-2.867-.466-5.698-.789-8.529l3.942-3.225h2.83c.287 2.115.538 4.193.753 6.307zM164.403 83.133l-6.915 5.59c-.036-1.469-.108-2.974-.18-4.479l6.809-5.518c.143 1.469.215 2.938.286 4.407z" fill="#c5cae9"/><path d="M163.758 74.39l-6.736 5.447c-.18-2.867-.466-5.698-.789-8.529l3.942-3.225h2.83c.287 2.115.538 4.193.753 6.307zM164.403 83.133l-6.915 5.59c-.036-1.469-.108-2.974-.18-4.479l6.809-5.518c.143 1.469.215 2.938.286 4.407z" fill="#e8eaf6"/></g></svg>