<svg xmlns="http://www.w3.org/2000/svg" width="48" height="48" viewBox="0 0 172 172"><g fill="none" stroke-miterlimit="10" font-family="none" font-weight="none" font-size="none" text-anchor="none" style="mix-blend-mode:normal"><path d="M0 172V0h172v172z"/><path d="M57.333 35.833c-9.893 0-17.916.857-17.916 10.75v53.75l35.833 3.584V46.583c0-9.893-8.023-10.75-17.917-10.75z" fill="#b0bec5"/><path d="M39.417 46.583H75.25c0-9.893-8.023-17.916-17.917-17.916-9.893 0-17.916 8.023-17.916 17.916z" fill="#cfd8dc"/><path d="M35.833 21.5c-11.875 0-21.5 2.458-21.5 14.333v64.5l43 3.584V35.833c0-11.875-9.625-14.333-21.5-14.333z" fill="#90a4ae"/><path d="M57.333 35.833h-43c0-11.875 9.625-21.5 21.5-21.5s21.5 9.625 21.5 21.5z" fill="#b0bec5"/><path d="M95.75 35.833h19.798a3.588 3.588 0 013.447 2.598l6.422 22.486-3.584 17.916L86 57.333l6.35-19.049a3.58 3.58 0 013.4-2.45z" fill="#f4511e"/><path d="M115.92 53.75H94.744L98.327 43h14.512z" fill="#bbdefb"/><path d="M150.5 64.5h-7.167V50.167c0-5.927 4.823-10.75 10.75-10.75v7.166a3.587 3.587 0 00-3.583 3.584z" fill="#455a64"/><path d="M125.417 82.417L86 69.875V57.401c26.968.513 58.383 3.727 68.42 5.648 3.824.734 6.343 4.375 5.705 8.216l-1.502 8.998z" fill="#f4511e"/><path d="M14.333 100.333v53.75h143.334v-53.75z" fill="#8bc34a"/><path d="M75.142 100.333c-22.61 6.737-43.215 18.096-60.809 33.003v-19.279c11.252-5.554 25.084-10.212 40.707-13.724zm82.525 0v1.47c-5.984 9.854-11.574 27.806-16.555 52.28h-14.405c7.883-25.728 16.913-44.29 26.767-53.75zm-18.92 0c-15.946 9.496-30.71 28.058-43.502 53.75H76.432c15.91-25.585 34.759-44.254 55.363-53.75zm-35.01 0c-31.855 9.568-60.343 28.38-83.204 53.75h24.653c19.027-25.477 42.211-44.218 67.868-53.75z" fill="#689f38"/><path fill="#bf360c" d="M114.667 78.833h17.916V86h-17.916z"/><path d="M158.634 80.267l-.462 2.745A3.584 3.584 0 01154.639 86h-28.864c1.648-8.17 8.887-14.333 17.558-14.333 6.486 0 12.148 3.44 15.301 8.6z" fill="#bf360c"/><circle cx="40" cy="25" transform="scale(3.58333)" r="3" fill="#546e7a"/><circle cx="40" cy="25" transform="scale(3.58333)" r="1" fill="#b0bec5"/><path d="M125.349 85.996l-.004.004H86V70.821c0-2.3 1.064-4.522 2.96-5.827a23.174 23.174 0 0113.165-4.077c13.455 0 24.245 11.405 23.224 25.08z" fill="#bf360c"/><circle cx="28.5" cy="23.5" transform="scale(3.58333)" r="4.5" fill="#546e7a"/><circle cx="28.5" cy="23.5" transform="scale(3.58333)" r="2.5" fill="#b0bec5"/></g></svg>