<svg xmlns="http://www.w3.org/2000/svg" width="48" height="48" viewBox="0 0 172 172"><g fill="none" stroke-width="none" stroke-miterlimit="10" font-family="none" font-weight="none" font-size="none" text-anchor="none" style="mix-blend-mode:normal"><path d="M0 172V0h172v172z"/><path fill="#b0bec5" d="M129 35.833h7.167V129H129z"/><path d="M68.083 71.667l68.084-36.307" stroke="#5d4037" stroke-width="7.167"/><path d="M39.417 93.167l6.45-16.842c1.612-5.321.25-8.973-1.738-11.38-2.193-2.663-5.597-4.028-9.048-4.028h-2.114c-5.017 0-9.317 3.225-11.109 7.883l-7.525 24.367z" fill="#ff754c"/><path d="M40.492 71.667h6.45c-.359 1.433-.717 2.866-1.075 4.658L38.7 95.317l-8.958 5.016z" fill="#e64a19"/><path d="M41.925 28.667c6.808 0 12.542 5.733 12.542 12.541 0 6.809-5.734 12.542-12.542 12.542s-12.542-5.733-12.542-12.542c0-6.808 5.734-12.541 12.542-12.541" fill="#ffba57"/><path d="M111.083 100.333C89.583 129 74.533 128.283 60.917 129c-14.334 1.075-25.084 0-25.084 0h-21.5v-28.667z" fill="#795548"/><path d="M157.667 125.417c-10.75 0-14.334-7.167-14.334-7.167s-3.583 7.167-14.333 7.167-14.333-7.167-14.333-7.167-3.584 7.167-14.334 7.167S86 118.25 86 118.25s-3.583 7.167-14.333 7.167-14.334-7.167-14.334-7.167-3.583 7.167-14.333 7.167-14.333-7.167-14.333-7.167-3.584 7.167-14.334 7.167v21.5h143.334z" fill="#7e8ccf"/><path d="M157.667 132.583c-10.75 0-14.334-7.166-14.334-7.166s-3.583 7.166-14.333 7.166-14.333-7.166-14.333-7.166-3.584 7.166-14.334 7.166S86 125.417 86 125.417s-3.583 7.166-14.333 7.166-14.334-7.166-14.334-7.166-3.583 7.166-14.333 7.166-14.333-7.166-14.333-7.166-3.584 7.166-14.334 7.166v14.334h143.334z" fill="#c5cae9"/><path d="M52.675 86c-1.433 0-2.867-.358-3.942-1.433L36.27 72.014c-2.15-2.15-2.15-5.375 0-7.525 2.15-2.15 5.375-2.15 7.525 0l9.597 9.686 14.333-8.6c2.508-1.433 5.733-.717 7.525 1.792 1.433 2.508.717 5.733-1.792 7.525 0 0-11.72 7.647-16.702 10.173-.956.487-2.569.935-4.081.935z" fill="#ff754c"/><path fill="#5d4037" d="M14.333 93.167H118.25v7.166H14.333z"/></g></svg>