<svg xmlns="http://www.w3.org/2000/svg" width="48" height="48" viewBox="0 0 172 172"><g fill="none" stroke-miterlimit="10" font-family="none" font-weight="none" font-size="none" text-anchor="none" style="mix-blend-mode:normal"><path d="M0 172V0h172v172z"/><path d="M80.625 14.333h-21.5a5.377 5.377 0 00-5.375 5.375c0 .631.129 1.23.33 1.792h-5.705A5.377 5.377 0 0043 26.875c0 .82.197 1.591.527 2.286-4.436 1.322-7.694 5.39-7.694 10.256v10.75H43v-3.584a7.165 7.165 0 017.167-7.166h12.541a5.377 5.377 0 005.375-5.375c0-.631-.121-1.233-.322-1.792h5.697a5.377 5.377 0 005.375-5.375c0-.638-.15-1.23-.358-1.792h2.15A5.377 5.377 0 0086 19.708a5.377 5.377 0 00-5.375-5.375z" fill="#b0bec5"/><path d="M121.833 39.417L89.583 64.5v93.167h64.5V64.5z" fill="#f4511e"/><path d="M21.5 157.667h35.833L50.525 46.583H27.95z" fill="#bf360c"/><path d="M17.917 157.667h71.666V78.833H17.917z" fill="#d84315"/><path d="M103.917 71.667h7.166V86h-7.166zm14.333 0h7.167V86h-7.167zm14.333 0h7.167V86h-7.167zm-28.666 21.5h7.166V107.5h-7.166zm14.333 0h7.167V107.5h-7.167zm14.333 0h7.167V107.5h-7.167zm-28.666 21.5h7.166V129h-7.166zm14.333 0h7.167V129h-7.167zm14.333 0h7.167V129h-7.167zm-28.666 21.5h7.166V150.5h-7.166zm14.333 0h7.167V150.5h-7.167zm14.333 0h7.167V150.5h-7.167zm-60.916-43h7.166v50.166h-7.166zm-14.334 0H64.5v50.166h-7.167zm-14.333 0h7.167v50.166H43zm-14.333 0h7.166v50.166h-7.166z" fill="#ffc107"/></g></svg>