<svg xmlns="http://www.w3.org/2000/svg" width="48" height="48" viewBox="0 0 172 172"><g fill="none" stroke-miterlimit="10" font-family="none" font-weight="none" font-size="none" text-anchor="none" style="mix-blend-mode:normal"><path d="M0 172V0h172v172z"/><path d="M103.917 121.833h14.333V150.5h-14.333zm-53.75-10.75H64.5V150.5H50.167z" fill="#795548"/><path d="M71.667 44.792a16.058 16.058 0 01-16.125 16.125 16.058 16.058 0 01-16.125-16.125 16.058 16.058 0 0116.125-16.125 16.058 16.058 0 0116.125 16.125zm21.5 59.125c0 10.033-7.884 17.916-17.917 17.916-10.033 0-17.917-7.883-17.917-17.916C57.333 93.883 65.217 86 75.25 86c10.033 0 17.917 7.883 17.917 17.917z" fill="#8bc34a"/><path d="M93.167 80.625c0 6.808-5.734 12.542-12.542 12.542s-12.542-5.734-12.542-12.542 5.734-12.542 12.542-12.542 12.542 5.734 12.542 12.542z" fill="#8bc34a"/><path d="M86 60.917C86 68.8 79.55 75.25 71.667 75.25c-7.884 0-14.334-6.45-14.334-14.333 0-7.884 6.45-14.334 14.334-14.334C79.55 46.583 86 53.033 86 60.917zm-14.333 55.541a16.058 16.058 0 01-16.125 16.125 16.058 16.058 0 01-16.125-16.125 16.058 16.058 0 0116.125-16.125 16.058 16.058 0 0116.125 16.125z" fill="#8bc34a"/><path d="M75.25 80.625c0-14.692-9.675-26.875-21.5-26.875s-21.5 12.183-21.5 26.875 9.675 26.875 21.5 26.875 21.5-12.183 21.5-26.875z" fill="#8bc34a"/><path d="M53.75 53.75c0 7.883-6.45 14.333-14.333 14.333-7.884 0-14.334-6.45-14.334-14.333s6.45-14.333 14.334-14.333c7.883 0 14.333 6.45 14.333 14.333zm-7.167 57.333c0 6.092-4.658 10.75-10.75 10.75-6.091 0-10.75-4.658-10.75-10.75 0-6.091 4.659-10.75 10.75-10.75 6.092 0 10.75 4.659 10.75 10.75z" fill="#8bc34a"/><path d="M46.583 73.458C46.583 80.267 40.85 86 34.042 86 27.233 86 21.5 80.267 21.5 73.458c0-6.808 5.733-12.541 12.542-12.541 6.808 0 12.541 5.733 12.541 12.541z" fill="#8bc34a"/><path d="M43 91.375c0 6.808-5.733 12.542-12.542 12.542-6.808 0-12.541-5.734-12.541-12.542s5.733-12.542 12.541-12.542C37.267 78.833 43 84.567 43 91.375z" fill="#8bc34a"/><path d="M43 91.375c0 6.808-5.733 12.542-12.542 12.542-6.808 0-12.541-5.734-12.541-12.542s5.733-12.542 12.541-12.542C37.267 78.833 43 84.567 43 91.375z" fill="#8bc34a"/><path d="M111.083 50.167l-39.416 71.666s10.75 10.75 39.416 10.75c28.667 0 39.417-10.75 39.417-10.75z" fill="#009688"/><path d="M111.083 32.25L78.833 86s5.375 10.75 32.25 10.75S143.333 86 143.333 86z" fill="#009688"/><path d="M111.083 21.5l-21.5 32.25s3.584 7.167 21.5 7.167c17.917 0 21.5-7.167 21.5-7.167z" fill="#009688"/><path d="M111.083 103.917c12.542 0 21.142-2.15 26.875-5.017l-3.583-6.45c-4.658 2.508-12.183 4.3-23.292 4.3-11.108 0-18.633-1.792-23.291-3.942l-3.584 6.45c5.734 2.509 14.334 4.659 26.875 4.659zm19.35-39.417l-3.583-6.092c-3.583 1.434-8.242 2.509-15.767 2.509-7.525 0-12.183-1.075-15.766-2.509L91.733 64.5c4.3 2.15 10.392 3.583 19.35 3.583 8.959 0 15.05-1.791 19.35-3.583z" fill="#00796b"/><path d="M39.417 66.292c-2.15 0-3.584-1.434-3.584-3.584a16.058 16.058 0 0116.125-16.125c2.15 0 3.584 1.434 3.584 3.584 0 2.15-1.434 3.583-3.584 3.583-5.016 0-8.958 3.942-8.958 8.958 0 2.15-1.433 3.584-3.583 3.584zm32.25 23.291c-2.15 0-3.584-1.433-3.584-3.583 0-6.092-4.658-10.75-10.75-10.75-2.15 0-3.583-1.433-3.583-3.583 0-2.15 1.433-3.584 3.583-3.584 10.034 0 17.917 7.884 17.917 17.917 0 2.15-1.433 3.583-3.583 3.583zm-25.084 21.5c-2.15 0-3.583-1.433-3.583-3.583 0-6.808 5.733-12.542 12.542-12.542 2.15 0 3.583 1.434 3.583 3.584 0 2.15-1.433 3.583-3.583 3.583-2.867 0-5.375 2.508-5.375 5.375 0 2.15-1.434 3.583-3.584 3.583z" fill="#689f38"/></g></svg>