<svg xmlns="http://www.w3.org/2000/svg" width="48" height="48" viewBox="0 0 172 172"><g fill="none" stroke-miterlimit="10" font-family="none" font-weight="none" font-size="none" text-anchor="none" style="mix-blend-mode:normal"><path d="M0 172V0h172v172z"/><path d="M116.458 66.292s8.959-1.792 8.959 12.541v39.417h10.75V78.833c0-14.333-10.59-21.5-21.5-21.5z" fill="#ff9100"/><path d="M45.229 118.615L17.103 79.328c-1.666-2.33-1.806-5.418-.319-7.862 3.72-6.113 11.428-17.576 20.382-23.987 12.614-9.03 52.13-25.524 52.13-25.524l33.508 46.806s-28.347 32.096-40.96 41.126c-8.955 6.41-22.293 10.011-29.276 11.563-2.795.62-5.673-.509-7.34-2.834z" fill="#546e7a"/><path fill="#37474f" d="M28.844 48.716l11.651-8.342L89.64 109.02l-11.65 8.34z"/><path d="M132.583 136.167l-17.916-3.584v-17.916h32.25v17.916z" fill="#78909c"/><path d="M146.917 132.583h-32.25l7.166 17.917h17.917z" fill="#546e7a"/></g></svg>