<svg xmlns="http://www.w3.org/2000/svg" width="48" height="48" viewBox="0 0 172 172"><g fill="none" stroke-miterlimit="10" font-family="none" font-weight="none" font-size="none" text-anchor="none" style="mix-blend-mode:normal"><path d="M0 172V0h172v172z"/><path d="M71.667 121.833H64.5V39.417H50.167v7.166H43v-10.75c0-2.15 1.433-3.583 3.583-3.583h21.5c2.15 0 3.584 1.433 3.584 3.583z" fill="#90a4ae"/><path d="M50.167 46.583h7.166v46.584h-7.166z" fill="#c7d1d6"/><path d="M36.908 46.583h13.617v46.584H36.908z" fill="#dee4e7"/><path d="M32.25 93.167h28.667v53.75H32.25z" fill="#90a4ae"/><path d="M39.417 96.75c-11.874 0-21.5 9.626-21.5 21.5s9.626 21.5 21.5 21.5 21.5-9.626 21.5-21.5-9.626-21.5-21.5-21.5z" fill="#29b6f6"/><path d="M39.417 103.917c-7.916 0-14.334 6.417-14.334 14.333s6.418 14.333 14.334 14.333c7.916 0 14.333-6.417 14.333-14.333s-6.417-14.333-14.333-14.333z" fill="#84d5f9"/><path d="M39.417 103.917a5.375 5.375 0 100 10.75 5.375 5.375 0 000-10.75z" fill="#b1e4fc"/><path d="M114.667 121.833H107.5V28.667H93.167v7.166H86v-10.75c0-2.15 1.433-3.583 3.583-3.583h21.5c2.15 0 3.584 1.433 3.584 3.583z" fill="#90a4ae"/><path d="M93.167 35.833h7.166v57.334h-7.166z" fill="#c7d1d6"/><path d="M79.908 35.833h13.617v57.334H79.908z" fill="#dee4e7"/><path d="M75.25 93.167h28.667v53.75H75.25z" fill="#90a4ae"/><path d="M82.417 96.75c-11.874 0-21.5 9.626-21.5 21.5s9.626 21.5 21.5 21.5 21.5-9.626 21.5-21.5-9.626-21.5-21.5-21.5z" fill="#29b6f6"/><path d="M82.417 103.917c-7.916 0-14.334 6.417-14.334 14.333s6.418 14.333 14.334 14.333c7.916 0 14.333-6.417 14.333-14.333s-6.417-14.333-14.333-14.333z" fill="#84d5f9"/><path d="M82.417 103.917a5.375 5.375 0 100 10.75 5.375 5.375 0 000-10.75z" fill="#b1e4fc"/><path d="M103.917 93.167h43v53.75h-43z" fill="#c9d3d8"/><path d="M139.75 96.75h7.167v50.167h-7.167z" fill="#b0bec5"/><path d="M136.167 43h10.75v50.167h-10.75zm-32.25 64.5h43v7.167h-43z" fill="#ff5722"/><path d="M136.167 78.833h10.75V86h-10.75zm0-14.333h10.75v7.167h-10.75zm0-14.333h10.75v7.166h-10.75z" fill="#ffab91"/><path d="M103.917 93.167h43v7.166h-43zm-96.75 53.75h157.666v7.166H7.167z" fill="#90a4ae"/></g></svg>