<svg xmlns="http://www.w3.org/2000/svg" width="48" height="48" viewBox="0 0 172 172"><g fill="none" stroke-miterlimit="10" font-family="none" font-weight="none" font-size="none" text-anchor="none" style="mix-blend-mode:normal"><path d="M0 172V0h172v172z"/><path d="M47.705 102.94l5.067-5.068 14.443 14.442-5.067 5.068z" fill="#d38013"/><path d="M35.833 148.35L16.483 129 136.167 9.317l19.35 19.35zM26.517 129l9.316 9.317 109.65-109.65-9.316-9.317z" fill="#d38013"/><path d="M119.371 31.273l5.068-5.068 14.443 14.442-5.068 5.068zM105.038 45.606l5.068-5.068 14.443 14.443-5.068 5.067zM33.371 117.273l5.068-5.068 14.443 14.442-5.068 5.068zM105.038 112.061l14.443-14.443 5.067 5.068-14.442 14.443z" fill="#d38013"/><path d="M136.167 148.35L16.483 28.667l19.35-19.35L155.517 129zM26.517 28.667l109.65 109.65 9.316-9.317L35.833 19.35z" fill="#d38013"/><path d="M33.372 40.394l14.442-14.443 5.068 5.068-14.443 14.443zM47.705 54.728l14.442-14.443 5.068 5.067-14.442 14.443zM119.372 126.394l14.442-14.443 5.068 5.068-14.443 14.443z" fill="#d38013"/><path d="M60.917 68.083l-10.75 93.167h71.666l-10.75-93.167z" fill="#ffb74d"/><path d="M100.333 161.25H71.667v-21.5c0-7.883 6.45-14.333 14.333-14.333s14.333 6.45 14.333 14.333z" fill="#e65100"/><path d="M89.583 100.333h-7.166v-7.166c0-2.15 1.433-3.584 3.583-3.584 2.15 0 3.583 1.434 3.583 3.584z" fill="#805a26"/><path d="M114.667 68.083v7.167H57.333v-7.167L86 39.417z" fill="#c62828"/></g></svg>