<svg xmlns="http://www.w3.org/2000/svg" width="48" height="48" viewBox="0 0 172 172"><g fill="none" stroke-miterlimit="10" font-family="none" font-weight="none" font-size="none" text-anchor="none" style="mix-blend-mode:normal"><path d="M0 172V0h172v172z"/><path d="M118.25 78.833c0-4.3 1.792-7.883 4.658-10.391L30.817 39.775l-4.3 13.617 92.091 28.666c-.358-1.075-.358-2.15-.358-3.225z" fill="#607d8b"/><path d="M96.75 150.5h-64.5c-10.033 0-17.917-8.242-17.917-17.917s8.242-17.916 17.917-17.916h64.5c10.033 0 17.917 8.241 17.917 17.916S106.783 150.5 96.75 150.5z" fill="#b0bec5"/><path d="M96.75 154.083h-64.5c-11.825 0-21.5-9.675-21.5-21.5s9.675-21.5 21.5-21.5h64.5c11.825 0 21.5 9.675 21.5 21.5s-9.675 21.5-21.5 21.5zm-64.5-35.833c-7.883 0-14.333 6.45-14.333 14.333 0 7.884 6.45 14.334 14.333 14.334h64.5c7.883 0 14.333-6.45 14.333-14.334 0-7.883-6.45-14.333-14.333-14.333z" fill="#607d8b"/><path d="M7.167 55.183l8.6-27.233 29.741 9.317-8.6 27.233z" fill="#ffc107"/><path d="M89.583 103.917h-32.25V22.933l6.45-8.6h19.35l6.45 8.6zM64.5 96.75h17.917V25.083L79.55 21.5H67.367L64.5 25.083z" fill="#90a4ae"/><path d="M63.783 102.125l-5.733-3.583L81.7 60.558 60.917 22.575l6.45-3.225 21.858 39.417-.358 3.941z" fill="#90a4ae"/><path d="M83.133 102.125L58.05 62.708l-.358-3.941L79.908 19.35 86 22.575 65.217 60.558l23.65 37.984z" fill="#90a4ae"/><path d="M154.083 86c3.942 0 8.959-4.658 10.75-10.75h-17.916c0 6.092 1.075 10.75 7.166 10.75zm-4.658-22.217c2.15-3.583.358-10.033-3.942-14.691l-3.583 6.091-3.583 6.092-1.792 3.225c5.375 3.225 10.033 4.3 12.9-.717zm-21.5-7.166c-2.15-3.584-8.6-5.375-14.692-3.942l3.584 6.092 3.583 6.091 1.792 3.225c5.375-2.866 8.958-6.45 5.733-11.466zm-12.183 37.266c-2.15 3.584-.359 10.034 3.941 14.692l3.584-6.092 3.583-6.091 1.792-3.225c-5.375-3.225-10.034-4.3-12.9.716zm21.5 7.167c2.15 3.583 8.6 5.375 14.691 3.942L148.35 98.9l-3.583-6.092-1.792-3.225c-5.375 2.867-8.958 6.45-5.733 11.467zm-26.159-29.383c-3.941 0-8.958 4.658-10.75 10.75h17.917c0-6.092-1.075-10.75-7.167-10.75z" fill="#ffc107"/><path d="M132.583 96.75c-10.033 0-17.916-7.883-17.916-17.917 0-10.033 7.883-17.916 17.916-17.916 10.034 0 17.917 7.883 17.917 17.916 0 10.034-7.883 17.917-17.917 17.917zm0-28.667c-6.091 0-10.75 4.659-10.75 10.75 0 6.092 4.659 10.75 10.75 10.75 6.092 0 10.75-4.658 10.75-10.75 0-6.091-4.658-10.75-10.75-10.75z" fill="#90a4ae"/><path d="M39.417 132.583c0 3.942-3.225 7.167-7.167 7.167-3.942 0-7.167-3.225-7.167-7.167 0-3.941 3.225-7.166 7.167-7.166 3.942 0 7.167 3.225 7.167 7.166zm21.5 0c0 3.942-3.225 7.167-7.167 7.167-3.942 0-7.167-3.225-7.167-7.167 0-3.941 3.225-7.166 7.167-7.166 3.942 0 7.167 3.225 7.167 7.166zm21.5 0c0 3.942-3.225 7.167-7.167 7.167-3.942 0-7.167-3.225-7.167-7.167 0-3.941 3.225-7.166 7.167-7.166 3.942 0 7.167 3.225 7.167 7.166zm21.5 0c0 3.942-3.225 7.167-7.167 7.167-3.942 0-7.167-3.225-7.167-7.167 0-3.941 3.225-7.166 7.167-7.166 3.942 0 7.167 3.225 7.167 7.166z" fill="#607d8b"/><path d="M96.75 111.083h-64.5v-10.75c0-3.941 3.225-7.166 7.167-7.166h50.166c3.942 0 7.167 3.225 7.167 7.166z" fill="#ffc107"/></g></svg>