<svg xmlns="http://www.w3.org/2000/svg" width="48" height="48" viewBox="0 0 172 172"><g fill="none" stroke-miterlimit="10" font-family="none" font-weight="none" font-size="none" text-anchor="none" style="mix-blend-mode:normal"><path d="M0 172V0h172v172z"/><path d="M78.879 135.543l10.747-67.955 7.079 1.12-10.748 67.954z" fill="#90a4ae"/><path d="M84.925 138.675l-5.375-4.658 26.517-29.742L90.3 85.642l1.792-8.959 21.5 25.084v4.658z" fill="#90a4ae"/><path d="M103.973 68.7l7.079-1.119 10.732 67.958-7.08 1.118z" fill="#90a4ae"/><path d="M115.742 138.675l-30.817-34.758 23.65-27.592 1.792 8.958-16.125 18.634 26.516 29.741zM32.25 96.75h7.167v53.75H32.25z" fill="#90a4ae"/><path d="M47.664 56.888l4.978-13.44 96.776 35.842-4.979 13.44zm88.503 93.612v-10.75c0-3.942-3.225-7.167-7.167-7.167H71.667c-3.942 0-7.167 3.225-7.167 7.167v10.75z" fill="#546e7a"/><path d="M129 132.583c1.433 0 2.867.359 3.942 1.075l6.808-50.883c.358-1.792-1.075-3.942-3.225-3.942-2.15-.358-3.942 1.075-3.942 3.225l-6.808 50.525z" fill="#37474f"/><path d="M53.75 44.075l-5.017 13.258c-6.091 7.884-7.525 30.459-9.316 39.417H32.25s-7.167-14.333-7.167-43S53.75 17.917 53.75 17.917z" fill="#ffc107"/><path d="M32.25 53.75c0-18.992 15.767-26.517 21.5-28.308v-7.525S25.083 25.083 25.083 53.75c0 28.667 7.167 43 7.167 43h7.167c-2.509-6.45-7.167-21.142-7.167-43z" fill="#ffab00"/></g></svg>