<svg xmlns="http://www.w3.org/2000/svg" width="48" height="48" viewBox="0 0 172 172"><g fill="none" stroke-miterlimit="10" font-family="none" font-weight="none" font-size="none" text-anchor="none" style="mix-blend-mode:normal"><path d="M0 172V0h172v172z"/><path d="M154.101 30.659c-1.14-2.218-2.168-4.117-3.253-5.88l3.235-14.029h-129l-1.175 2.35c-.613.395-1.14.785-1.484 1.126-3.3 3.225-4.826 5.708-6.908 9.743-1.387 2.691-2.229 5.78-2.992 8.682l-1.774 6.766s2.687-2.803 5.515-3.903c1.121-.437 2.311-1.626 3.1-2.476 1.465-1.583 3.113-3.948 4.568-6.6l1.04 3.63c-2.867 3.379-4.738 6.615-7.07 11.162-2.083 4.053-3.348 8.707-4.49 13.079C12.72 56.949 10.75 64.5 10.75 64.5s4.035-4.221 8.274-5.88c1.68-.66 3.469-2.448 4.651-3.73 2.043-2.215 4.322-5.454 6.386-9.106L39.417 64.5S49.27 43.896 50.167 43c.415-.416 4.31 1.1 8.36 2.845 2.053 3.627 4.321 6.844 6.35 9.045 1.182 1.282 2.97 3.07 4.65 3.73 4.24 1.659 8.274 5.88 8.274 5.88s-1.97-7.55-2.662-10.191a144.71 144.71 0 00-1.376-4.93c.835-.51 1.706-.982 2.59-1.33 1.681-.66 3.47-2.448 4.652-3.73 1.362-1.477 2.827-3.433 4.264-5.63L89.583 43l6.518-6.518c1.86 3.121 3.842 5.884 5.64 7.837.85.92 2.014 2.092 3.226 2.93-.33 1.169-.638 2.334-.94 3.48-.687 2.638-2.662 10.188-2.662 10.188s4.035-4.221 8.274-5.88c1.204-.47 2.455-1.523 3.505-2.552.946.839 1.523 1.44 1.523 1.44s-.258-.992-.62-2.368c.075-.082.168-.172.24-.25.29-.316.595-.7.892-1.05.298.354.602.737.892 1.05 1.183 1.282 2.97 3.07 4.652 3.73 4.242 1.659 8.277 5.88 8.277 5.88l-2.533-9.7 6.116 6.116h10.75l3.43-14.856c.53.666 1.057 1.29 1.566 1.842 1.182 1.283 2.97 3.07 4.65 3.73 4.236 1.655 8.271 5.877 8.271 5.877s-1.97-7.55-2.662-10.191c-1.14-4.365-2.408-9.023-4.487-13.076z" fill="#689f38"/><path d="M15.129 10.75C36.059 73.634 32.3 160.042 32.26 160.913l14.315.674c.169-3.58 3.773-86.022-16.38-150.837z" fill="#6d4c41"/><path d="M54.9 10.75C39.754 44.706 34.318 93.894 34.07 96.177l10.686 1.146c.064-.562 6.03-54.409 22.037-86.573zm28.413 0H71.608C83.965 38.74 82.45 67.467 82.42 68.083v25.084h10.75l-.01-24.747c.085-1.33 1.62-28.831-9.848-57.67z" fill="#6d4c41"/><path d="M110.148 10.75h-15.62c-17.365 44.81-15.498 146.128-15.4 150.647l14.329-.294c-.022-1.132-2.1-112.982 16.691-150.353z" fill="#6d4c41"/><path d="M122.5 10.75h-12.664c22.719 32.214 24.525 103.254 24.539 103.917v10.75h10.75v-10.861c-.068-3.104-1.688-67.052-22.625-103.806z" fill="#6d4c41"/><path d="M158.04 10.75h-14.868C131.9 54.764 132.54 156.785 132.576 161.307l14.333-.11c-.007-1.122-.713-111.335 11.13-150.447z" fill="#6d4c41"/><path d="M43.154 75.336c1.828-.394 3.974.774 5.432 2.39.99 1.097 2.029 1.824 3.268 2.584 1.326.81 2.623 1.712 3.72 2.848 3.963 4.107 4.633 10.36 5.06 16.043.068.92.14 1.842.207 2.76.09 1.182.172 2.404-.19 3.504-.361 1.1-1.29 2.056-2.422 2.031-1.268-.028-2.257-1.182-3.246-2.07-2.175-1.95-4.935-2.814-7.27-4.473-2.33-1.655-3.738-4.174-4.785-6.833-2.21-5.612-6.769-15.244.226-18.784.455-.23-.387.082 0 0z" fill="#ffb300"/><path d="M125.263 35.92c-1.828-.395-3.974.773-5.433 2.39-.989 1.096-2.028 1.823-3.268 2.583-1.326.81-2.623 1.713-3.72 2.849-3.962 4.106-4.632 10.36-5.059 16.042-.068.921-.14 1.842-.208 2.76-.09 1.182-.172 2.404.19 3.504s1.29 2.057 2.423 2.032c1.268-.029 2.257-1.183 3.246-2.071 2.175-1.95 4.934-2.813 7.27-4.472 2.33-1.656 3.738-4.175 4.784-6.834 2.211-5.611 6.77-15.243-.225-18.784-.456-.229.387.083 0 0zm20.564 53.72c1.219-.26 2.652.517 3.623 1.595.66.731 1.351 1.215 2.179 1.72.885.541 1.748 1.143 2.48 1.9 2.64 2.737 3.088 6.904 3.371 10.696l.14 1.841c.061.789.115 1.606-.125 2.337-.24.734-.86 1.372-1.613 1.354-.846-.018-1.505-.788-2.164-1.38-1.451-1.3-3.29-1.873-4.848-2.98-1.556-1.104-2.49-2.785-3.19-4.559-1.48-3.744-4.518-10.162.147-12.523.301-.154-.261.057 0 0zM30.957 60.918c-4.437.448-8.633 3.597-10.962 8.223-2.33 4.627-2.73 10.614-1.05 15.638a49.444 49.444 0 001.874 4.816c.907 1.989 2.168 3.69 2.903 3.566 1.132-.19 1.695-1.72 2.458-2.76.996-1.354 2.437-1.752 3.608-2.838 1.315-1.218 3.043-3.393 3.655-5.138 1.8-5.106 2.39-6.604 2.39-12.097 0-3.63-1.497-9.034-2.361-9.21zm53.75-10.75c-4.437.448-8.633 3.597-10.962 8.223-2.33 4.627-2.73 10.614-1.05 15.638a49.444 49.444 0 001.874 4.816c.907 1.989 2.168 3.69 2.903 3.566 1.132-.19 1.695-1.72 2.458-2.76.996-1.354 2.436-1.752 3.608-2.838 1.315-1.218 3.042-3.393 3.655-5.138 1.8-5.106 2.39-6.604 2.39-12.097 0-3.63-1.498-9.034-2.361-9.21z" fill="#ffc107"/><path d="M52.213 35.833s1.214.007 2.046 0c3.895-.028 7.794 3.157 9.352 7.622 1.892 5.418.62 12.015-2.515 16.49-.434.617-1.118 1.248-1.695.843-.208-.147-.344-.398-.487-.631-1.154-1.838-3.114-2.573-4.655-3.92-2.294-2-3.609-5.368-3.97-8.776-.194-1.81-.14-3.64.064-5.443.14-1.243.18-2.526.505-3.734.158-.595.77-2.221 1.355-2.45z" fill="#ffd740"/><path d="M91.63 89.583s1.214.008 2.046 0c3.895-.028 7.793 3.157 9.352 7.622 1.892 5.418.62 12.015-2.516 16.49-.433.617-1.118 1.248-1.694.843-.208-.147-.344-.398-.488-.631-1.154-1.838-3.114-2.573-4.655-3.92-2.293-2-3.608-5.368-3.97-8.776-.193-1.81-.14-3.64.065-5.443.14-1.243.179-2.526.505-3.734.158-.594.77-2.221 1.354-2.45z" fill="#ffc107"/><path d="M137.191 64.5s-1.519.007-2.558 0c-4.87-.04-9.743 4.06-11.689 9.8-2.365 6.966-.777 15.448 3.146 21.203.541.792 1.398 1.605 2.118 1.082.258-.186.43-.512.61-.81 1.443-2.361 3.89-3.307 5.819-5.038 2.866-2.573 4.511-6.901 4.963-11.284.24-2.325.175-4.68-.08-7.002-.175-1.601-.225-3.246-.634-4.801-.2-.76-.967-2.853-1.694-3.15z" fill="#ffd740"/></g></svg>