<svg xmlns="http://www.w3.org/2000/svg" width="48" height="48" viewBox="0 0 172 172"><g fill="none" stroke-miterlimit="10" font-family="none" font-weight="none" font-size="none" text-anchor="none" style="mix-blend-mode:normal"><path d="M0 172V0h172v172z"/><path d="M143.297 0h-40.158c-3.547 0-6.422 2.888-6.422 6.45a6.19 6.19 0 00.398 2.15h-6.82c-3.547 0-6.422 2.888-6.422 6.45 0 .95.216 1.887.634 2.74-5.44 1.608-9.18 6.615-9.196 12.31V43h23.033v-4.3c0-4.75 3.833-8.6 8.562-8.6h14.985a6.37 6.37 0 005.256-2.715 6.43 6.43 0 00.78-5.885h6.807c3.547 0 6.422-2.888 6.422-6.45a6.043 6.043 0 00-.428-2.15h2.569c3.547 0 6.422-2.888 6.422-6.45 0-3.562-2.875-6.45-6.422-6.45z" fill="#b0bec5"/><path d="M132.594 73.1V47.3H38.406v25.8L17 129v43h137v-43z" fill="#607d8b"/><path d="M37.794 55.9h95.412c4.553-.184 8.105-4.026 7.95-8.6.155-4.574-3.397-8.416-7.95-8.6H37.794c-4.553.184-8.105 4.026-7.95 8.6-.155 4.574 3.397 8.416 7.95 8.6z" fill="#90a4ae"/><path d="M87.405 81.7h14.45l-18.26 25.8h19.03l-19.784 26.187 8.379 3.057L69.146 150.5l3.793-24.454 4.568 5.34 9.149-15.286H68.375z" fill="#ffeb3b"/></g></svg>