<svg xmlns="http://www.w3.org/2000/svg" width="48" height="48" viewBox="0 0 172 172"><g fill="none" stroke-miterlimit="10" font-family="none" font-weight="none" font-size="none" text-anchor="none" style="mix-blend-mode:normal"><path d="M0 172V0h172v172z"/><path d="M86 17.7l28.632 28.633L86 74.964 57.368 46.332z" fill="#ff9800"/><path d="M64.5 25.083h43v43h-43z" fill="#ff9800"/><path d="M86 32.25c-7.916 0-14.333 6.417-14.333 14.333S78.084 60.917 86 60.917s14.333-6.418 14.333-14.334c0-7.916-6.417-14.333-14.333-14.333z" fill="#ffeb3b"/><path d="M30.817 87.792l-12.9 51.958h136.166l-12.9-51.958c-.716-3.225-3.583-5.375-6.808-5.375H37.983c-3.583 0-6.45 2.15-7.166 5.375z" fill="#bf360c"/><path d="M17.917 146.917v-7.167h136.166v7.167c0 3.941-3.225 7.166-7.166 7.166H25.083c-3.941 0-7.166-3.225-7.166-7.166z" fill="#9e2d0a"/><path d="M63.067 103.917L64.5 89.583H39.417l-3.584 14.334zm38.341 0l-1.075-14.334H71.667l-1.075 14.334zm34.759 0l-3.584-14.334H107.5l1.433 14.334zm-102.125 7.166l-5.375 21.5h31.175l2.15-21.5zm75.966 0l2.15 21.5h31.175l-5.375-21.5zm-40.133 0l-1.433 21.5h35.116l-1.433-21.5z" fill="#f57c00"/></g></svg>