<svg xmlns="http://www.w3.org/2000/svg" viewBox="0 0 172 172">
	<path fill="currentColor" d="M12.542 21.5a5.376 5.376 0 100 10.75h9.875c2.608 0 4.783 1.802 5.277 4.367l1.057 5.543.007.05 11.561 60.692c2.09 10.972 11.717 18.931 22.886 18.931h67.097c11.169 0 20.786-7.959 22.879-18.931l11.561-60.693a5.409 5.409 0 00-1.14-4.43 5.381 5.381 0 00-4.144-1.946h-55.541V78.4l8.741-8.74c2.1-2.1 5.5-2.1 7.6-.001a5.373 5.373 0 010 7.6l-17.916 17.917a5.35 5.35 0 01-3.8 1.575 5.356 5.356 0 01-3.8-1.575L76.824 77.26a5.373 5.373 0 010-7.601c2.1-2.1 5.5-2.1 7.6 0l8.742 8.741V35.833H38.486l-.231-1.224C36.81 27.039 30.125 21.5 22.417 21.5zm80.625 14.333h10.75v-5.375a5.375 5.375 0 10-10.75 0zM71.667 129c-5.937 0-10.75 4.813-10.75 10.75s4.813 10.75 10.75 10.75 10.75-4.813 10.75-10.75S77.604 129 71.667 129zm50.166 0c-5.937 0-10.75 4.813-10.75 10.75s4.813 10.75 10.75 10.75 10.75-4.813 10.75-10.75S127.77 129 121.833 129z" />
</svg>
