<svg xmlns="http://www.w3.org/2000/svg" viewBox="0 0 172 172">
	<path fill="currentColor" d="M120.042 14.333a4.633 4.633 0 00-3.423 1.505L88.974 46.163a4.487 4.487 0 00-.783 4.886 4.61 4.61 0 004.206 2.701h11.52V86a5.377 5.377 0 01-5.375 5.375H78.833v19.708h37.625c10.887 0 19.709-8.822 19.709-19.708V53.75h11.52c1.82 0 3.468-1.06 4.206-2.701a4.484 4.484 0 00-.784-4.886l-27.645-30.325a4.633 4.633 0 00-3.422-1.505zm-64.5 46.584c-10.887 0-19.709 8.822-19.709 19.708v37.625h-11.52a4.606 4.606 0 00-4.206 2.702 4.497 4.497 0 00.784 4.892l27.645 30.318a4.627 4.627 0 003.422 1.505 4.633 4.633 0 003.423-1.505l27.645-30.318a4.497 4.497 0 00.783-4.893 4.61 4.61 0 00-4.206-2.701h-11.52V86a5.377 5.377 0 015.375-5.375h19.709V60.917z" />
</svg>
