<svg xmlns="http://www.w3.org/2000/svg" viewBox="0 0 172 172">
	<path fill="currentColor" d="M125.417 57.333c-9.88 0-17.917-8.037-17.917-17.916 0-9.88 8.037-17.917 17.917-17.917 9.879 0 17.916 8.037 17.916 17.917 0 9.879-8.037 17.916-17.916 17.916zm-78.834 0c-9.879 0-17.916-8.037-17.916-17.916 0-9.88 8.037-17.917 17.916-17.917 9.88 0 17.917 8.037 17.917 17.917 0 9.879-8.037 17.916-17.917 17.916zM86 82.417c-9.88 0-17.917-8.038-17.917-17.917 0-9.88 8.038-17.917 17.917-17.917 9.88 0 17.917 8.038 17.917 17.917 0 9.88-8.038 17.917-17.917 17.917zm39.417 25.083c-9.88 0-17.917-8.037-17.917-17.917 0-9.879 8.037-17.916 17.917-17.916 9.879 0 17.916 8.037 17.916 17.916 0 9.88-8.037 17.917-17.916 17.917zm-78.834 0c-9.879 0-17.916-8.037-17.916-17.917 0-9.879 8.037-17.916 17.916-17.916 9.88 0 17.917 8.037 17.917 17.916 0 9.88-8.037 17.917-17.917 17.917zm111.084 23.428c0 10.245-13.069 19.572-32.25 19.572-19.182 0-32.25-9.327-32.25-19.572v-2.422a6.674 6.674 0 016.672-6.673h51.156a6.674 6.674 0 016.672 6.673zm-78.834 0c0 10.245-13.068 19.572-32.25 19.572-19.181 0-32.25-9.327-32.25-19.572v-2.422a6.674 6.674 0 016.673-6.673H72.16a6.674 6.674 0 016.672 6.673z" />
</svg>
