<svg xmlns="http://www.w3.org/2000/svg" viewBox="0 0 172 172">
	<path fill="currentColor" d="M86 14.333c-6.719 0-12.438 2.713-16.111 6.845S64.5 30.608 64.5 35.833c0 3.75 1.23 7.383 3.086 10.75H52.301c-8.954 0-16.833 6.094-19.078 14.76l-17.65 68.084c-3.205 12.352 6.317 24.656 19.078 24.656h106.94c12.488 0 21.947-11.795 19.24-23.984l-15.132-68.084c-1.999-8.986-10.033-15.432-19.24-15.432h-22.045c1.856-3.367 3.086-7 3.086-10.75 0-5.225-1.716-10.523-5.389-14.655S92.719 14.333 86 14.333zm0 10.75c4.031 0 6.374 1.319 8.076 3.234 1.703 1.915 2.674 4.68 2.674 7.516 0 2.837-.971 5.602-2.674 7.517-1.702 1.915-4.045 3.233-8.076 3.233-4.031 0-6.374-1.318-8.076-3.233-1.703-1.915-2.674-4.68-2.674-7.517 0-2.836.971-5.601 2.674-7.516 1.702-1.915 4.045-3.234 8.076-3.234zM86 64.5c2.974 0 5.375 2.4 5.375 5.375v2.044c5.554 1.182 10.03 5.195 11.75 10.75a5.405 5.405 0 01-3.583 6.732c-2.795.86-5.837-.752-6.697-3.583-.645-2.15-2.579-3.583-4.836-3.583l-2.94.077c-3.44.036-6.236 2.866-6.236 6.306 0 3.511 2.83 6.34 6.341 6.34h5.235c9.424 0 17.091 7.667 17.091 17.091 0 9.03-7.167 16.448-16.125 16.986v1.757c0 2.974-2.4 5.375-5.375 5.375a5.368 5.368 0 01-5.375-5.375v-2.009c-5.518-1.147-10.072-5.119-11.828-10.673-.896-2.83.683-5.844 3.514-6.74 2.83-.896 5.88.683 6.74 3.514.68 2.114 2.614 3.548 4.835 3.548l6.593-.077c3.44-.036 6.271-2.866 6.271-6.306 0-3.512-2.83-6.34-6.34-6.34h-5.236c-9.424 0-17.09-7.667-17.09-17.091 0-7.776 5.338-14.37 12.541-16.377v-2.366c0-2.974 2.4-5.375 5.375-5.375z" />
</svg>
