<svg xmlns="http://www.w3.org/2000/svg" viewBox="0 0 172 172">
	<path fill="currentColor" d="M86 14.333c-39.516 0-71.667 32.151-71.667 71.667S46.484 157.667 86 157.667c23.42 0 44.25-11.285 57.333-28.709v12.584a5.376 5.376 0 1010.75 0v-25.084a5.376 5.376 0 00-5.375-5.375h-25.083a5.376 5.376 0 100 10.75h11.646c-11.07 15.2-28.986 25.084-49.271 25.084-33.706 0-60.917-27.211-60.917-60.917S52.294 25.083 86 25.083 146.917 52.294 146.917 86v1.792a5.376 5.376 0 1010.75 0V86c0-39.516-32.151-71.667-71.667-71.667zm-1.876 28.59a5.376 5.376 0 00-5.29 5.452v43a5.376 5.376 0 005.374 5.375h28.667a5.376 5.376 0 100-10.75H89.583V48.375a5.375 5.375 0 00-5.459-5.452z" />
</svg>
