<svg xmlns="http://www.w3.org/2000/svg" viewBox="0 0 172 172">
	<path fill="currentColor" d="M130.77 7.167a5.376 5.376 0 00-2.862.84L90.535 31.788c-3.698-4.19-9.043-6.705-14.76-6.705H62.708c-6.862 0-12.541 5.68-12.541 12.542v19.708H25.083c-7.915 0-14.333 6.418-14.333 14.334V86c0 7.916 6.418 14.333 14.333 14.333h68.084c7.915 0 14.333-6.417 14.333-14.333V62.708c0-.913-.234-1.812-.679-2.61L96.183 40.935l33.426-21.269 22.648 28.31-21.682 21.682a5.37 5.37 0 003.8 9.175h17.917c6.915 0 12.541-5.625 12.541-12.541V48.375v-.014a5.378 5.378 0 00-.238-1.56v-.008a5.378 5.378 0 00-.665-1.4c-.003-.005-.01-.008-.014-.013a5.378 5.378 0 00-.258-.364L134.99 9.182a5.376 5.376 0 00-4.22-2.015zM62.709 35.833h13.067a8.94 8.94 0 017.831 4.605L96.75 64.101v3.982H76.118a10.758 10.758 0 01-7.6-3.15l-4.452-4.45c-.914-.916-1.995-1.621-3.15-2.149V37.625c0-1.057.735-1.792 1.792-1.792zm-37.625 75.25c-11.857 0-21.5 9.643-21.5 21.5 0 11.858 9.643 21.5 21.5 21.5H96.75c11.857 0 21.5-9.642 21.5-21.5 0-11.857-9.643-21.5-21.5-21.5zm7.167 14.334a7.165 7.165 0 017.167 7.166 7.165 7.165 0 01-7.167 7.167 7.165 7.165 0 01-7.167-7.167 7.165 7.165 0 017.167-7.166zm28.667 0a7.165 7.165 0 017.166 7.166 7.165 7.165 0 01-7.166 7.167 7.165 7.165 0 01-7.167-7.167 7.165 7.165 0 017.167-7.166zm28.666 0a7.165 7.165 0 017.167 7.166 7.165 7.165 0 01-7.167 7.167 7.165 7.165 0 01-7.166-7.167 7.165 7.165 0 017.166-7.166z" />
</svg>
