<svg xmlns="http://www.w3.org/2000/svg" viewBox="0 0 172 172">
	<path fill="currentColor" d="M86 21.5c-1.834 0-3.668.7-5.067 2.1L12.85 91.683a7.166 7.166 0 1010.134 10.134L86 38.801l63.016 63.016a7.138 7.138 0 005.067 2.1 7.138 7.138 0 005.067-2.1 7.166 7.166 0 000-10.134L91.067 23.6A7.144 7.144 0 0086 21.5zm0 46.583c-1.834 0-3.668.7-5.067 2.1L12.85 138.266A7.166 7.166 0 1022.984 148.4L86 85.384l63.016 63.016a7.138 7.138 0 005.067 2.1 7.138 7.138 0 005.067-2.1 7.166 7.166 0 000-10.134L91.067 70.183a7.144 7.144 0 00-5.067-2.1z" />
</svg>
