<svg xmlns="http://www.w3.org/2000/svg" viewBox="0 0 172 172">
	<path fill="currentColor" d="M28.667 10.75c-1.834 0-3.668.7-5.067 2.1a7.166 7.166 0 000 10.134L86.616 86 23.6 149.016a7.166 7.166 0 000 10.134 7.138 7.138 0 005.067 2.1 7.138 7.138 0 005.067-2.1l68.083-68.083a7.166 7.166 0 000-10.134L33.734 12.85a7.144 7.144 0 00-5.067-2.1zm46.583 0c-1.834 0-3.668.7-5.067 2.1a7.166 7.166 0 000 10.134L133.199 86l-63.016 63.016a7.166 7.166 0 000 10.134 7.138 7.138 0 005.067 2.1 7.138 7.138 0 005.067-2.1L148.4 91.067a7.166 7.166 0 000-10.134L80.317 12.85a7.144 7.144 0 00-5.067-2.1z" />
</svg>
