<svg xmlns="http://www.w3.org/2000/svg" viewBox="0 0 172 172">
	<path fill="currentColor" d="M80.625 28.667H30.458c-8.89 0-16.125 7.234-16.125 16.125v82.416c0 8.89 7.235 16.125 16.125 16.125h50.167zm60.917 0H91.375v114.666h50.167c8.89 0 16.125-7.234 16.125-16.125V44.792c0-8.89-7.235-16.125-16.125-16.125zm-10.75 86h-21.5a5.372 5.372 0 01-5.375-5.375 5.372 5.372 0 015.375-5.375h21.5a5.372 5.372 0 015.375 5.375 5.372 5.372 0 01-5.375 5.375zm10.75-21.5h-32.25a5.372 5.372 0 01-5.375-5.375 5.372 5.372 0 015.375-5.375h32.25a5.372 5.372 0 015.375 5.375 5.372 5.372 0 01-5.375 5.375zm0-21.5h-32.25a5.372 5.372 0 01-5.375-5.375 5.372 5.372 0 015.375-5.375h32.25a5.372 5.372 0 015.375 5.375 5.372 5.372 0 01-5.375 5.375z" />
</svg>
