<svg xmlns="http://www.w3.org/2000/svg" viewBox="0 0 172 172">
	<path fill="currentColor" d="M61.458 33.17c-.463-8.552-7.536-15.253-16.1-15.253h-8.296c-8.567 0-15.64 6.7-16.103 15.254l-6.006 111.083a16.196 16.196 0 004.397 11.961c3.031 3.2 7.3 5.035 11.707 5.035h20.306a16.2 16.2 0 0011.707-5.035 16.196 16.196 0 004.397-11.96zm93.08 6.741a5.355 5.355 0 00-5.744.803L107.5 76.103V44.792a5.377 5.377 0 00-3.203-4.917 5.38 5.38 0 00-5.795.946L70.434 66.414l4.185 77.453a23.418 23.418 0 01-6.35 17.28c-.035.035-.075.067-.11.103h73.383c8.89 0 16.125-7.235 16.125-16.125V44.792c0-2.1-1.222-4.006-3.129-4.88zM132.583 150.5H93.167v-28.667a7.165 7.165 0 017.166-7.166h25.084a7.165 7.165 0 017.166 7.166z" />
</svg>
