<svg xmlns="http://www.w3.org/2000/svg" viewBox="0 0 172 172">
	<path fill="currentColor" d="M23.292 14.333a5.376 5.376 0 100 10.75h1.791v46.71c-6.07.87-10.75 6.109-10.75 12.415v35.834a5.377 5.377 0 005.375 5.375h26.875v-8.959c0-7.525 4.336-14.242 10.75-17.545V63.289c-4.235-2.017-7.166-6.34-7.166-11.33 0-6.916 5.625-12.542 12.541-12.542H107.5V25.083h1.792a5.376 5.376 0 100-10.75zm39.416 32.25a5.376 5.376 0 100 10.75H64.5v46.71c-6.07.87-10.75 6.109-10.75 12.415v35.834a5.377 5.377 0 005.375 5.375h34.042a3.585 3.585 0 003.583-3.584V129a3.585 3.585 0 013.583-3.583h10.75a3.585 3.585 0 013.584 3.583v25.083a3.585 3.585 0 003.583 3.584h34.042a5.377 5.377 0 005.375-5.375v-35.834c0-6.306-4.68-11.545-10.75-12.415v-46.71h1.791a5.376 5.376 0 100-10.75zm26.875 25.084h7.167a3.585 3.585 0 013.583 3.583v7.167A3.585 3.585 0 0196.75 86h-7.167A3.585 3.585 0 0186 82.417V75.25a3.585 3.585 0 013.583-3.583zm25.084 0h7.166a3.585 3.585 0 013.584 3.583v7.167A3.585 3.585 0 01121.833 86h-7.166a3.585 3.585 0 01-3.584-3.583V75.25a3.585 3.585 0 013.584-3.583zM89.583 96.75h7.167a3.585 3.585 0 013.583 3.583v7.167a3.585 3.585 0 01-3.583 3.583h-7.167A3.585 3.585 0 0186 107.5v-7.167a3.585 3.585 0 013.583-3.583zm25.084 0h7.166a3.585 3.585 0 013.584 3.583v7.167a3.585 3.585 0 01-3.584 3.583h-7.166a3.585 3.585 0 01-3.584-3.583v-7.167a3.585 3.585 0 013.584-3.583zm-43 28.667h7.166A3.585 3.585 0 0182.417 129v7.167a3.585 3.585 0 01-3.584 3.583h-7.166a3.585 3.585 0 01-3.584-3.583V129a3.585 3.585 0 013.584-3.583zm60.916 0h7.167a3.585 3.585 0 013.583 3.583v7.167a3.585 3.585 0 01-3.583 3.583h-7.167a3.585 3.585 0 01-3.583-3.583V129a3.585 3.585 0 013.583-3.583z" />
</svg>
