<svg xmlns="http://www.w3.org/2000/svg" viewBox="0 0 172 172">
	<path fill="currentColor" d="M66.292 14.333c-14.843 0-26.875 12.033-26.875 26.875 0 2.795.426 5.487 1.217 8.02C53.001 40.863 68.8 35.834 86 35.834c2.207 0 4.434.115 6.67.294-2.376-12.409-13.274-21.794-26.378-21.794zm62.092 14.362a5.365 5.365 0 00-1.309.028c-4.35.612-18.381 3.507-26.308 15.698h-.007C96.012 43.52 91.088 43 86 43c-26.791 0-49.757 13.161-59.503 31.893-2.919-.903-4.997-3.554-4.997-6.81 0-6.091 4.192-7.733 4.192-7.733a5.376 5.376 0 10-4.8-9.616S10.75 56.258 10.75 68.084c0 7.744 5.046 14.338 11.982 16.817A42.383 42.383 0 0021.5 94.958c0 13.965 6.874 26.611 18 35.946l-2.764 7.432c-2.763 7.421 1.02 15.669 8.44 18.428 1.649.609 3.332.903 4.99.903 5.82 0 11.292-3.57 13.438-9.344l1.575-4.227a78.487 78.487 0 0041.65.014l1.567 4.213c2.143 5.773 7.618 9.344 13.437 9.344 1.66 0 3.346-.294 4.99-.903 7.421-2.76 11.204-11.007 8.44-18.428l-2.757-7.425c5.558-4.67 10.058-10.16 13.158-16.244h8.42a7.165 7.165 0 007.166-7.167V89.583a7.165 7.165 0 00-7.167-7.166h-5.557c-3.225-10.457-10.343-19.649-20.093-26.525l4.633-20.675a5.373 5.373 0 00-1.295-4.815 5.35 5.35 0 00-3.387-1.707zm-6.55 53.722A7.165 7.165 0 01129 89.583a7.165 7.165 0 01-7.167 7.167 7.165 7.165 0 01-7.166-7.167 7.165 7.165 0 017.166-7.166z" />
</svg>
