<svg xmlns="http://www.w3.org/2000/svg" viewBox="0 0 172 172">
	<path fill="currentColor" d="M86 21.5c-24.99 0-46.661 14.314-57.368 35.147C13.37 61.83 9.039 69.723 8.132 75.481c-1.358 8.582 3.99 17.428 15.139 25.3.028.126.072.242.105.364 18.762 9.55 70.901 32.412 117.277 18.925.071-.119.149-.229.224-.343 13.498-4.024 21.607-10.874 22.99-19.625.918-5.812-.776-14.79-14.08-24.558-.073-.054-.157-.076-.232-.126C144.481 44.884 117.953 21.5 86 21.5zm16.125 35.833a5.377 5.377 0 015.375 5.375 5.377 5.377 0 01-5.375 5.375 5.377 5.377 0 01-5.375-5.375 5.377 5.377 0 015.375-5.375zm21.5 10.75A5.377 5.377 0 01129 73.458a5.377 5.377 0 01-5.375 5.375 5.377 5.377 0 01-5.375-5.375 5.377 5.377 0 015.375-5.375zm-100.32 3.01a64.384 64.384 0 00-1.749 13.696c-2.129-2.737-3.165-5.353-2.806-7.635.333-2.122 1.936-4.18 4.556-6.061zm85.987 7.74a5.377 5.377 0 015.375 5.375 5.377 5.377 0 01-5.375 5.375 5.377 5.377 0 01-5.375-5.375 5.377 5.377 0 015.375-5.375zm40.984 11.751c2.258 2.838 3.336 5.538 2.974 7.839-.39 2.461-2.4 4.805-5.696 6.865 1.472-4.687 2.36-9.626 2.722-14.704zm-55.318 2.583a5.377 5.377 0 015.375 5.375 5.377 5.377 0 01-5.375 5.375 5.377 5.377 0 01-5.375-5.375 5.377 5.377 0 015.375-5.375zm25.084 0a5.377 5.377 0 015.375 5.375 5.377 5.377 0 01-5.375 5.375 5.377 5.377 0 01-5.375-5.375 5.377 5.377 0 015.375-5.375zM26.525 110.76C36.25 134.061 59.215 150.5 86 150.5c18.97 0 36.012-8.27 47.808-21.36-8.116 1.641-16.293 2.352-24.348 2.352-33.709 0-65.409-12.392-82.935-20.73z" />
</svg>
