<svg xmlns="http://www.w3.org/2000/svg" viewBox="0 0 172 172">
	<path fill="currentColor" d="M120.042 14.333H73.458c-8.89 0-16.125 7.235-16.125 16.125v32.25c0 8.89 7.235 16.125 16.125 16.125h46.584c8.89 0 16.125-7.234 16.125-16.125v-32.25c0-8.89-7.235-16.125-16.125-16.125zM105.708 43H87.792a5.375 5.375 0 110-10.75h17.916a5.375 5.375 0 110 10.75zm49.694 35.833c-3.676 0-7.715 2.42-16.29 6.87-7.11 3.69-13.681 7.198-17.856 9.757a21.44 21.44 0 01.577 4.873c0 11.858-9.642 21.5-21.5 21.5H73.458a5.375 5.375 0 110-10.75h26.875c5.927 0 10.75-4.823 10.75-10.75 0-3.214-1.447-6.073-3.69-8.044-2.548-1.684-5.573-2.706-8.851-2.706H80.625c-.104 0-.2-.025-.305-.032-9.445-.15-13.982-1.125-17.97-2C58.727 86.753 55.302 86 49.547 86c-26.273 0-41.27 32.254-41.897 33.626a5.371 5.371 0 00.567 5.418l25.083 34.02a5.341 5.341 0 004.314 2.164 5.403 5.403 0 005.214-4.013c.283-1.053 3.02-10.298 12.714-10.298 6.994 0 14.233.903 21.227 1.773 7.128.893 14.502 1.81 21.773 1.81 9.904 0 17.028-7.593 37.625-28.667 26.162-26.77 28.666-29.11 28.666-34.421 0-4.59-4.03-8.579-9.431-8.579z" />
</svg>
