<svg xmlns="http://www.w3.org/2000/svg" viewBox="0 0 172 172">
	<path fill="currentColor" d="M152.292 25.083a5.375 5.375 0 00-5.375 5.375c0 .986-.803 1.792-1.792 1.792H26.875a1.795 1.795 0 01-1.792-1.792 5.375 5.375 0 10-10.75 0v111.084a5.375 5.375 0 1010.75 0c0-.986.803-1.792 1.792-1.792h118.25c.989 0 1.792.806 1.792 1.792a5.375 5.375 0 1010.75 0V30.458a5.375 5.375 0 00-5.375-5.375zM46.583 112.875a5.375 5.375 0 11-10.75 0v-53.75a5.375 5.375 0 1110.75 0zm17.917 0a5.375 5.375 0 11-10.75 0v-53.75a5.375 5.375 0 1110.75 0zm17.917 0a5.375 5.375 0 11-10.75 0v-53.75a5.375 5.375 0 1110.75 0zm17.916 0a5.375 5.375 0 11-10.75 0v-53.75a5.375 5.375 0 1110.75 0zm17.917 0a5.375 5.375 0 11-10.75 0v-53.75a5.375 5.375 0 1110.75 0zm17.917 0a5.375 5.375 0 11-10.75 0v-53.75a5.375 5.375 0 1110.75 0z" />
</svg>
