<svg xmlns="http://www.w3.org/2000/svg" viewBox="0 0 172 172">
	<path fill="currentColor" d="M140.259 55.57L97.632 21.99a18.748 18.748 0 00-23.27.004L31.744 55.57C25.234 60.698 21.5 68.395 21.5 76.68v64.819c0 6.915 5.626 12.541 12.542 12.541h103.916c6.916 0 12.542-5.625 12.542-12.541v-64.82c0-8.284-3.734-15.98-10.241-21.109zM68.083 68.083a7.165 7.165 0 017.167-7.166h21.5a7.165 7.165 0 017.167 7.166v21.5a7.165 7.165 0 01-7.167 7.167h-21.5a7.165 7.165 0 01-7.167-7.167zm10.75 68.084a7.165 7.165 0 01-7.166 7.166h-21.5A7.165 7.165 0 0143 136.167v-21.5a7.165 7.165 0 017.167-7.167h21.5a7.165 7.165 0 017.166 7.167zm50.167 0a7.165 7.165 0 01-7.167 7.166h-21.5a7.165 7.165 0 01-7.166-7.166v-21.5a7.165 7.165 0 017.166-7.167h21.5a7.165 7.165 0 017.167 7.167z" />
</svg>
