<svg xmlns="http://www.w3.org/2000/svg" width="48" height="48" viewBox="0 0 172 172"><g fill="none" stroke-miterlimit="10" font-family="none" font-weight="none" font-size="none" text-anchor="none" style="mix-blend-mode:normal"><path d="M0 172V0h172v172z"/><path d="M86 26.517L14.333 64.142V150.5h143.334V64.142z" fill="#e8eaf6"/><path d="M7.167 60.917L86 21.5l78.833 39.417V75.25L86 35.833 7.167 75.25v-3.583z" fill="#d32f2f"/><path d="M157.667 150.5H14.333v-17.917h143.334zM86 43.717l71.667 35.475v-7.525L86 35.833 14.333 71.667v7.883z" fill="#c5cae9"/><path d="M32.25 86h107.5v7.167H32.25z" fill="#546e7a"/><path d="M32.25 93.167h107.5V150.5H32.25z" fill="#455a64"/><path d="M32.25 93.167h107.5v7.166H32.25z" fill="#90a4ae"/><path d="M139.75 100.333h-7.167v-7.166h7.167zM39.417 93.167H32.25v7.166h7.167z" fill="#78909c"/><path d="M75.25 60.917h21.5V75.25h-21.5z" fill="#01579b"/><path d="M32.25 100.333V150.5l17.917-17.917h71.666L139.75 150.5v-50.167z" fill="#263238"/></g></svg>