<svg xmlns="http://www.w3.org/2000/svg" width="48" height="48" viewBox="0 0 172 172"><g fill="none" stroke-miterlimit="10" font-family="none" font-weight="none" font-size="none" text-anchor="none" style="mix-blend-mode:normal"><path d="M0 172V0h172v172z"/><path d="M154.083 154.083H53.75V35.833h100.333z" fill="#9fa8da"/><path d="M96.75 154.083h-43V35.833h43z" fill="#7986cb"/><path d="M82.417 136.167h-64.5V35.833h64.5z" fill="#c5cae9"/><path d="M50.167 17.917c-17.812 0-32.25 8.021-32.25 17.916S32.355 53.75 50.167 53.75c17.81 0 32.25-8.022 32.25-17.917 0-9.895-14.44-17.916-32.25-17.916z" fill="#c5cae9"/><path d="M50.167 118.25c-17.812 0-32.25 8.022-32.25 17.917 0 9.895 14.438 17.916 32.25 17.916 17.81 0 32.25-8.021 32.25-17.916s-14.44-17.917-32.25-17.917z" fill="#7986cb"/></g></svg>