<svg xmlns="http://www.w3.org/2000/svg" width="48" height="48" viewBox="0 0 172 172"><g fill="none" stroke-miterlimit="10" font-family="none" font-weight="none" font-size="none" text-anchor="none" style="mix-blend-mode:normal"><path d="M0 172V0h172v172z"/><path d="M89.583 50.167h-7.166c0-22.575 11.466-34.4 11.825-34.759l5.016 5.017-2.508-2.508 2.508 2.508s-9.675 10.392-9.675 29.742z" fill="#795548"/><path d="M86 50.167S81.342 5.375 35.833 21.5C40.85 68.083 86 50.167 86 50.167z" fill="#4caf50"/><path d="M22.575 92.808C15.767 56.975 42.642 20.783 86 50.167c16.576-11.234 30.741-12.936 41.538-8.73 17.444 6.798 22.507 29.015 18.304 51.371C139.392 129 107.403 152.661 86 138.675 65.933 163.042 29.025 129 22.575 92.808z" fill="#f44336"/><path d="M149.425 92.808c-6.343 35.654-42.283 69.23-62.53 46.906-.286-.322-.608-.68-.895-1.039-4.73 5.733-10.356 8.242-16.34 8.242-.824 0-1.612-.036-2.437-.144a16.424 16.424 0 01-2.257-.358c-.896-.18-1.792-.43-2.688-.68a32.14 32.14 0 01-2.4-.86 2.47 2.47 0 00-.287-.108 32.96 32.96 0 01-2.293-1.075c-.825-.394-1.649-.86-2.509-1.326a46.669 46.669 0 01-2.436-1.577 61.902 61.902 0 01-4.838-3.69 43.528 43.528 0 01-2.33-2.15c-1.11-1.076-2.22-2.186-3.296-3.405a44.524 44.524 0 01-2.078-2.365 72.624 72.624 0 01-7.095-9.997c10.14 11.323 32.25 23.542 44.326 13.545 12.147-10.034 18.705 4.371 27.806 3.726 9.102-.68 29.835-13.86 34.902-54.18 3.583-28.523-9.317-39.345-12.22-40.814 17.452 6.773 26.088 28.99 21.895 51.35z" fill="#d32f2f"/></g></svg>