<svg xmlns="http://www.w3.org/2000/svg" width="48" height="48" viewBox="0 0 172 172"><g fill="none" stroke-miterlimit="10" font-family="none" font-weight="none" font-size="none" text-anchor="none" style="mix-blend-mode:normal"><path d="M0 172V0h172v172z"/><path d="M100.333 35.833c-2.15 0-3.583-1.433-3.583-3.583 0-12.183 7.883-20.067 8.242-20.425 1.433-1.433 3.583-1.433 5.016 0 1.434 1.433 1.434 3.583 0 5.017 0 0-6.091 6.45-6.091 15.408 0 2.15-1.434 3.583-3.584 3.583z" fill="#795548"/><path d="M89.942 25.083c-27.234 0-54.109 48.017-54.109 89.584 0 28.666 22.934 46.583 50.167 46.583s50.167-17.917 50.167-46.583c0-34.042-20.067-40.492-20.067-74.534 0-8.958-8.6-11.466-15.767-11.466-2.866 0-3.583-3.584-10.391-3.584z" fill="#558b2f"/><path d="M119.683 80.625c-5.016-10.033-10.75-21.858-10.75-40.492 0-3.941-6.808-4.3-8.6-4.3-3.225 0-5.733-1.433-6.808-2.508-1.075-.717-1.433-1.075-3.583-1.075C68.083 32.25 43 76.325 43 114.667c0 25.8 21.5 39.416 43 39.416s43-13.616 43-39.416c0-15.409-4.3-24.367-9.317-34.042z" fill="#dce775"/><path d="M53.75 118.25c0-17.917 14.333-57.333 32.25-57.333s32.25 39.416 32.25 57.333S103.917 150.5 86 150.5s-32.25-14.333-32.25-32.25z" fill="#fff59d"/><path d="M107.5 118.25c0 11.825-9.675 21.5-21.5 21.5s-21.5-9.675-21.5-21.5S74.175 82.417 86 82.417s21.5 24.008 21.5 35.833z" fill="#962005"/><path d="M86 82.417c-11.825 0-21.5 24.008-21.5 35.833 0 1.433 0 2.508.358 3.942 3.225 4.3 8.242 6.808 13.975 6.808 14.334 0 21.5-7.883 21.5-17.917 0-13.975-2.866-21.5-6.808-25.441-2.508-2.15-5.017-3.225-7.525-3.225z" fill="#bf360c"/></g></svg>