<svg xmlns="http://www.w3.org/2000/svg" width="48" height="48" viewBox="0 0 172 172"><g fill="none" stroke-miterlimit="10" font-family="none" font-weight="none" font-size="none" text-anchor="none" style="mix-blend-mode:normal"><path d="M0 172V0h172v172z"/><path d="M161.25 74.533c0 1.792-1.075 3.225-2.508 3.942-2.509.717-6.092.358-8.6-.717-3.942-1.433-7.525-3.583-11.825-2.866-3.225.716-5.734 2.866-8.959 3.225-3.941.358-7.166.716-10.391-1.434-5.734-3.583-12.9-6.091-18.992-3.225-2.15 1.075-3.583 2.509-5.733 3.584-2.867 1.433-6.45 1.791-9.675 1.075-6.45-1.792-13.259-7.167-17.917-7.167-4.658 0-7.883 3.225-11.825 5.375-5.733 3.225-12.9 2.508-18.992 0-4.3-2.15-6.808-5.375-10.75-5.375-4.658 0-8.241 5.017-10.75 6.808-1.433 1.075-3.583 0-3.583-1.791V35.475c0-1.433.358-3.225 1.433-4.3 2.15-2.867 6.45-6.45 10.392-6.092 4.658.359 8.242 2.15 12.542 4.3 6.091 2.867 12.9 4.659 18.275 1.434 3.941-2.15 8.241-4.659 12.9-5.375 6.45-.717 11.466 5.733 17.916 7.525 3.225.716 6.809.358 9.675-1.075 1.792-1.075 3.584-2.509 5.734-3.584 6.091-2.866 13.258-.358 18.991 3.225 3.584 1.434 6.809.717 10.75.359 3.225-.359 5.734-2.509 8.959-3.225 3.941-.717 7.883 1.433 11.825 2.866 2.508 1.075 6.091 1.434 8.6.717 1.075-.358 2.508.717 2.508 2.15z" fill="#d84315"/><path d="M161.25 142.617c0 1.791-1.075 3.225-2.508 3.941-2.509.717-6.092.359-8.6-.716-3.942-1.434-7.525-3.584-11.825-2.867-3.225.717-5.734 2.867-8.959 3.225-3.941.358-7.166.717-10.391-1.433-5.734-3.584-12.9-6.092-18.992-3.225-2.15 1.075-3.583 2.508-5.733 3.583-2.867 1.433-6.45 1.792-9.675 1.075-6.45-1.792-13.259-7.167-17.917-7.167-4.658 0-7.883 3.225-11.825 5.734-5.733 3.225-12.9 2.508-18.992 0-4.3-2.15-6.808-5.375-10.75-5.375-4.658 0-8.241 5.016-10.75 6.808-1.433 1.075-3.583 0-3.583-1.792v-41.566c0-1.434.358-2.867 1.433-4.3 2.509-3.225 6.45-5.734 10.75-5.375 4.659.358 8.242 1.433 12.542 3.583 6.092 2.867 12.9 4.658 18.275 1.433 3.942-2.15 8.242-3.941 12.9-4.658 6.45-.717 11.467 5.017 17.917 6.808 3.225 1.075 6.808.359 9.675-1.075 1.791-1.075 3.583-2.508 5.733-3.583 6.092-2.867 13.258-.358 18.992 3.225 3.225 2.15 6.45 1.433 10.391 1.075 3.225-.358 5.734-2.508 8.959-3.225 3.941-.717 7.883 1.433 11.825 2.867 2.508 1.075 6.091 1.433 8.6.716 1.433-.358 2.866.717 2.866 2.15z" fill="#ff5722"/><path d="M158.742 66.65c-1.434.358-3.225.358-4.659.358-1.433 0-3.225-.716-5.016-1.433-1.075-.717-2.509-1.075-3.942-1.792-2.508-1.075-5.017-1.791-7.167-1.433-.716 0-1.433.358-2.15.717-1.075.358-1.791.716-2.866 1.075-2.509.716-5.017 1.433-7.884 1.433-1.433 0-2.508-.358-4.3-.717-1.433-.358-2.866-1.075-3.583-1.791-2.15-1.434-3.583-2.15-5.375-2.867-3.942-1.433-8.242-1.792-11.825 0l-3.225 1.792-1.433 1.075-.717.358h-.717l-.716.717c-3.225 1.433-6.45 1.075-9.675 0-2.867-1.075-5.017-2.867-6.809-4.3-2.15-1.434-3.941-2.509-6.091-3.225-2.15-.717-4.3-.717-6.092 0-2.15.716-3.942 1.791-5.733 3.225l-1.434 1.075-1.433 1.075-1.433 1.075-.359.358-.358.358c-.358 0-.358.359-.717.359-2.508 1.075-5.016 1.075-7.166 1.075-2.15 0-4.659-.717-6.45-1.434-2.15-.716-3.584-1.791-5.375-2.866-3.225-2.15-6.092-3.584-9.317-4.3-2.867-.717-5.733-.359-7.525.358-2.15.717-3.583 1.433-4.658 2.15-1.434.717-1.792 1.075-1.792 1.075s.358-.358 1.433-1.075c.717-.717 2.15-1.792 4.3-2.508 2.15-.717 5.017-1.434 7.884-1.075 3.225.358 6.45 1.791 9.675 3.583 1.791.717 3.583 1.792 5.375 2.508 1.791.717 3.941 1.075 5.733 1.075 2.15 0 4.3-.358 5.733-1.075.359 0 .359-.358.717-.358 0 0 .358-.358.358 0l.359-.358 1.433-1.075 1.433-1.075 1.434-1.075c1.791-1.434 3.941-3.225 6.808-3.942 2.508-1.075 5.733-1.075 8.6-.358 5.733 1.075 10.033 5.016 13.617 6.45 1.791.716 3.583.358 5.016-.359 2.15-1.433 3.942-2.866 6.092-4.3 5.375-2.866 11.825-2.866 16.842-1.433 2.508.717 5.375 2.15 7.166 3.225 1.075.358 1.792.717 2.509 1.075.358 0 1.433.358 2.15 0 1.433 0 3.225-.358 4.658-1.075.717-.358 1.792-.717 2.508-1.433 1.075-.359 2.15-1.075 3.584-1.434 2.508-.716 5.016-.716 7.166-.358 2.15.358 3.942 1.075 5.734 1.433 1.433.717 2.866 1.075 4.3 1.434.716.358 1.433.358 2.15.358h1.075c.716-.358 1.433-.358 2.15-.717.358 0 1.791-1.075 3.225-1.791V66.65h-.359c-1.433-.358-2.15 0-2.866 0zM15.05 37.625a11.959 11.959 0 00-4.3 1.792v13.975c2.15-1.792 4.3-3.942 4.658-4.3.717-.359 1.792-1.075 2.867-1.792 1.433-.717 3.225-1.075 5.375-.717 2.15.359 4.658 1.434 8.242 3.225.716.359 1.791.717 2.508 1.434l.717.358.716.358h.359c.358 0 1.075.359 1.791.717 2.509.717 5.017 1.433 7.525 1.433 2.509 0 5.375-.358 8.242-1.791 2.867-1.434 4.658-3.225 6.45-4.659 1.792-1.433 3.225-2.508 5.017-3.225.358 0 .716-.358 1.433-.358H68.083c.717 0 1.792 0 2.509.358 1.791.359 3.941 1.434 6.091 2.509 2.15 1.075 4.3 2.866 7.167 3.941 2.867 1.075 6.45 1.075 9.317-.358 2.866-1.433 4.3-3.225 6.45-4.3 3.583-2.15 8.241-2.15 12.541-1.075 3.942 1.075 8.242 3.942 13.259 4.3 2.508 0 4.658-.358 6.808-1.433 2.15-1.075 3.583-1.792 5.375-2.15 3.225-1.075 6.808 0 9.675.716 2.867 1.075 5.375 2.15 7.883 2.509 1.075 0 2.15 0 3.225-.359.717-.358 1.434-.716 2.15-.716 1.075-.359 1.792-.717 1.792-.717s-.717 0-1.792.358c-1.075 0-2.866.717-5.016.359-2.15 0-4.3-1.434-7.167-2.867-2.867-1.075-6.45-2.508-10.75-1.433-2.15.358-3.942 1.433-5.733 2.15-1.792.716-3.584 1.075-5.375.716-1.792-.358-3.942-1.075-5.734-2.15-1.791-1.075-4.3-2.15-6.45-2.866-4.658-1.434-10.75-2.15-15.766.358-2.509 1.075-4.659 3.225-6.092 3.583-1.792.717-3.583.717-5.375-.358-3.583-1.792-7.525-5.733-13.617-7.525-1.433-.358-2.866-.717-4.658-.717h-2.508c-.717 0-1.434.359-2.15.359-2.867 1.075-5.375 2.508-7.525 3.941-2.15 1.434-3.584 2.867-5.017 3.225-1.433.717-3.225.717-4.658.717-1.792 0-3.225-.717-4.659-1.075-.358 0-.716-.358-1.075-.358h-.358c.358.358 0 0 .358 0L38.7 43c-.717-.358-1.792-1.075-2.508-1.433-2.867-1.792-6.809-3.942-10.75-4.659-3.942-1.075-7.884-.358-10.392.717zm145.842 96.75s.358 0 0 0l.358-12.183c-1.433 1.075-2.867 1.791-3.225 1.791-.717 0-1.433.359-2.15.717H154.8c-.717 0-1.433 0-2.15-.358-1.433-.359-2.508-1.075-4.3-1.434-1.433-.716-3.583-1.075-5.733-1.433-2.15-.358-4.659-.358-7.167.358-1.075.359-2.508.717-3.583 1.434-.717.358-1.792.716-2.509 1.433-1.433.717-2.866 1.075-4.658 1.075h-2.15c-.717 0-1.433-.358-2.508-1.075-1.792-1.075-4.659-2.508-7.167-3.225-5.017-1.433-11.467-1.792-16.842 1.433-2.15 1.434-3.941 2.867-6.091 4.3-1.434.717-3.584 1.075-5.017.359-3.942-1.434-8.242-5.375-13.617-6.45-2.866-.717-5.733-.359-8.6.358-2.508 1.075-4.658 2.508-6.808 3.942l-1.433 1.075-1.434 1.075-1.433 1.075-.358.358h-.359c-.358 0-.358.358-.716.358-1.792.717-3.942 1.075-5.734 1.075-2.15 0-3.941-.358-5.733-1.075-1.792-.716-3.583-1.433-5.375-2.508-3.225-1.792-6.808-3.225-9.675-3.583-3.225-.359-6.092 0-7.883 1.075-2.15.716-3.584 1.791-4.3 2.508-.359 1.075-.717 1.433-.717 1.433s.358-.358 1.433-1.075c1.075-.716 2.509-1.433 4.659-2.15 2.15-.716 4.658-1.075 7.525-.358 2.866.717 6.091 2.15 9.316 4.3 1.792.717 3.225 2.15 5.375 2.867 2.15.716 4.3 1.433 6.45 1.433 2.15 0 4.659 0 7.167-1.075.358 0 .717-.358.717-.358.358 0 0 0 .358-.359l.358-.358 1.434-1.075L57.333 129l1.434-1.075c1.791-1.433 3.583-2.508 5.733-3.225 1.792-.717 4.3-.358 6.092 0 2.15.717 3.941 1.792 6.091 3.225 2.15 1.433 3.942 2.867 6.809 4.3 2.866 1.433 6.45 1.433 9.675 0l.716-.358h.717l.717-.359 1.433-1.075 2.867-1.791c3.583-1.792 7.883-1.434 11.825 0 2.15.716 3.225 1.433 5.375 2.866 1.075.717 2.15 1.434 3.583 1.792 1.792.717 2.867.717 4.3.717 2.867 0 5.375-.359 7.883-1.434 1.075-.358 1.792-.716 2.867-1.075.717-.358 1.433-.358 2.15-.716 2.508-.359 4.658.358 7.167 1.433 1.433.717 2.508 1.075 3.941 1.792 1.792.716 3.225 1.075 5.017 1.433 1.433.358 3.225 0 4.658-.358 1.075-.359 1.792-.717 2.509-.717zM15.05 105.708a11.959 11.959 0 00-4.3 1.792v13.975c2.15-1.792 4.3-3.942 4.658-4.3.717-.358 1.792-1.075 2.867-1.792 1.433-.716 3.225-1.075 5.375-.716 2.15.358 4.658 1.433 8.242 3.225.716.358 1.791.716 2.508 1.433l.717.358.716.359h.359c.358 0 1.075.358 1.791.716 2.509.717 5.017 1.434 7.525 1.434 2.509 0 5.375-.359 8.242-1.792 2.867-1.433 4.658-3.225 6.45-4.658 1.792-1.434 3.225-2.509 5.017-3.225.358 0 .716-.359 1.433-.359H68.083c.717 0 1.792 0 2.509.359 1.791.358 3.941 1.433 6.091 2.508 2.15 1.075 4.3 2.867 7.167 3.942 2.867 1.075 6.45 1.075 9.317-.359 2.866-1.433 4.3-3.225 6.45-4.3 3.583-2.15 8.241-2.15 12.541-1.075 3.942 1.075 8.242 3.942 13.259 4.3 2.508 0 4.658-.358 6.808-1.433 2.15-1.075 3.583-1.792 5.375-2.15 3.225-1.075 6.808 0 9.675.717 2.867 1.075 5.375 2.15 7.883 2.508 1.075 0 2.15 0 3.225-.358.717-.359 1.434-.717 2.15-.717 1.075-.358 1.792-.717 1.792-.717s-.717 0-1.792.359c-1.075 0-2.866.716-5.016.358-2.15 0-4.3-1.433-7.167-2.867-2.867-1.075-6.45-2.508-10.75-1.433-2.15.358-3.942 1.433-5.733 2.15-1.792.717-3.584 1.075-5.375.717-1.792-.359-3.942-1.075-5.734-2.15-1.791-1.075-4.3-2.15-6.45-2.867-4.658-1.433-10.75-2.15-15.766.358-2.509 1.075-4.659 3.225-6.092 3.584-1.792.716-3.583.716-5.375-.359-3.583-1.791-7.525-5.733-13.617-7.525-1.433-.358-2.866-.716-4.658-.716h-2.508c-.717 0-1.434.358-2.15.358-2.867 1.075-5.375 2.508-7.525 3.942-2.15 1.433-3.584 2.866-5.017 3.225-1.433.716-3.225.716-4.658.716-1.792 0-3.225-.716-4.659-1.075-.358 0-.716-.358-1.075-.358h-.358c.358.358 0 0 .358 0l-2.508-.717c-.717-.358-1.792-1.075-2.508-1.433-2.867-1.792-6.809-3.942-10.75-4.658-3.942-1.075-7.884-.359-10.392.716z" fill="#fff3e0"/></g></svg>