<svg xmlns="http://www.w3.org/2000/svg" width="48" height="48" viewBox="0 0 172 172"><g fill="none" stroke-miterlimit="10" font-family="none" font-weight="none" font-size="none" text-anchor="none" style="mix-blend-mode:normal"><path d="M0 172V0h172v172z"/><path d="M125.272 16.321c-10.495 10.496-12.197 25.81-3.8 34.206 8.396 8.397 23.71 6.695 34.206-3.8 10.495-10.496 12.196-25.811 3.8-34.207s-23.711-6.694-34.206 3.801zM16.32 125.275c-10.496 10.495-12.197 25.81-3.8 34.206 8.396 8.396 23.71 6.694 34.206-3.801 10.495-10.496 12.196-25.81 3.8-34.206-8.397-8.397-23.711-6.695-34.206 3.8z" fill="#ffb300"/><path d="M126.542 15.054l30.405 30.406L45.458 156.946 15.053 126.54z" fill="#ffb300"/><path d="M93.167 60.88s5.264-5.173 7.166-7.13c4.523-2.39 8.99-1.784 16.075-3.042 7.518-1.333 24.478-4.38 30.509-4.125-.448 1.401-1.903 3.584-1.903 3.584s-4.415 7.414-13.402 10.714c-8.062 2.963-15.258 3.619-21.5 3.619-10.976 0-16.945-3.62-16.945-3.62z" fill="#ffa000"/><path d="M100.333 53.75s11.349-7.844 24.213-10.123c12.864-2.279 22.37 2.956 22.37 2.956s-11.348 7.844-24.208 10.123c-12.865 2.283-22.375-2.956-22.375-2.956z" fill="#ffe082"/><path d="M60.917 93.08s5.264-5.174 7.166-7.13c4.523-2.39 8.99-1.785 16.075-3.042 7.518-1.333 24.478-4.38 30.509-4.125-.448 1.401-1.903 3.583-1.903 3.583s-4.415 7.414-13.402 10.715C91.3 96.044 84.104 96.7 77.862 96.7c-10.975 0-16.945-3.62-16.945-3.62z" fill="#ffa000"/><path d="M68.083 85.95s11.349-7.844 24.213-10.123c12.864-2.283 22.37 2.956 22.37 2.956s-11.348 7.844-24.208 10.123c-12.86 2.28-22.375-2.956-22.375-2.956z" fill="#ffe082"/><path d="M28.667 125.38s5.264-5.173 7.166-7.13c4.523-2.39 8.99-1.784 16.075-3.042 7.518-1.333 24.478-4.38 30.509-4.125-.448 1.401-1.903 3.584-1.903 3.584s-4.415 7.414-13.402 10.714C59.05 128.344 51.854 129 45.612 129c-10.975 0-16.945-3.62-16.945-3.62z" fill="#ffa000"/><path d="M35.833 118.25s11.349-7.844 24.213-10.123c12.864-2.282 22.37 2.956 22.37 2.956s-11.348 7.844-24.208 10.123c-12.86 2.28-22.375-2.956-22.375-2.956z" fill="#ffe082"/></g></svg>