<svg xmlns="http://www.w3.org/2000/svg" width="48" height="48" viewBox="0 0 172 172"><g fill="none" stroke-miterlimit="10" font-family="none" font-weight="none" font-size="none" text-anchor="none" style="mix-blend-mode:normal"><path d="M0 172V0h172v172z"/><path d="M125.417 39.417c3.583 0 25.083-3.584 25.083 28.666s-46.583 89.584-111.083 89.584c-7.167 0-14.334-3.584-14.334-3.584l-3.583-10.75S25.083 129 46.583 118.25c21.5-10.75 36.776-19.758 45.914-28.892 7.166-7.163 18.586-21.275 18.586-32.025 0-7.016 7.167-14.333 7.167-14.333" fill="#ffe082"/><path d="M28.667 146.917S53.75 139.75 75.25 129c21.5-10.75 68.083-43 53.75-89.583 0 0 21.5-3.584 21.5 28.666s-46.583 89.584-111.083 89.584c-7.167 0-14.334-3.584-14.334-3.584z" fill="#ffca28"/><path d="M147.142 49.944c-6.718-14.408-21.725-6.944-21.725-35.61-10.75 0-17.917 7.166-17.917 7.166s10.75 10.75 10.75 21.5c7.167 0 12.943-.563 13.584 17.02 4.845-20.528 15.308-10.075 15.308-10.075z" fill="#c0ca33"/><path d="M111.083 57.333s-.225-6.496 7.167-14.333c7.392-7.837 14.444-1.455 14.444-1.455l-.86 18.476s-3.135-11.646-8.062-11.943c-10.392-.627-12.689 9.255-12.689 9.255z" fill="#c0ca33"/><path d="M21.5 146.917l3.583 7.166h3.584v-7.166l-7.167-3.584z" fill="#5d4037"/><path d="M125.417 14.333c-10.75 0-17.917 7.167-17.917 7.167h10.75z" fill="#827717"/></g></svg>