<svg xmlns="http://www.w3.org/2000/svg" width="48" height="48" viewBox="0 0 172 172"><g fill="none" stroke-miterlimit="10" font-family="none" font-weight="none" font-size="none" text-anchor="none" style="mix-blend-mode:normal"><path d="M0 172V0h172v172z"/><path d="M124.696 10.75l-11.004 4.705s-12.395 3.067-19.074 3.067c-1.648 0-3.325-.093-5.017-.25-3.368-.33-6.976-.058-10.768-.058-1.867 0-5.414.358-5.414.358s-19.411 12.814-26.56 25.772c-1.021 4.164 1.104 13.337 1.104 13.337s3.486 8.5 1.634 12.359C47.787 73.82 43 80.707 43 80.707s.315 10.854 1.458 16.394c1.079 5.21-.655 13.312-.655 13.312s3.203 6.217 11.685 7.83c2.741.516 84.187-25.349 83.642-30.211-.545-4.877-3.447-74.362-10.997-76.411-1.118-.62-3.437-.871-3.437-.871z" fill="#ff8d69"/><path d="M158.906 67.41l2.344-8.977-2.455-6.055-2.74-3.186 1.518-7.163-7.897-8.45s-6.49-4.231-5.974-9.241c.968-9.345-14.713-13.165-14.713-13.165s-3.694-.276-4.293-.423c6.669 3.677 8.78 22.736 8.78 22.736l-.445 7.722.8 7.522c.551.132-1.821 10.574-.793 16.709 1 5.959-4.214 13.194-4.214 13.194s-24.936 9.384-24.882 15.229c.028 3.16 1.035 4.415-1.05 7.02-1.623 2.02-7.239 5.077-7.239 5.077l-4.88-2.064-6.285 1.23s-.42.204-1.143.54c-2.437-3.759-4.404-7.23-4.87-8.664.18-8.421-11.538-12.975-18.956-14.122l-1.612-.25-1.47.68c-4.264 2.007-9.854 5.235-11.072 5.235-.466-.036-1.147-.179-1.828-.322-.035 0-.107 0-.143-.036.251 3.081.573 6.486 1.075 8.922a13.6 13.6 0 01.287 2.15c.143.036.287.036.43.036 3.87 0 10.392-2.616 13.796-4.12 3.583.68 7.238 1.898 8.707 2.866.215 1.716 1.254 4.941 5.58 11.879-8.511 3.25-19.472 6.496-23.97 3.773-2.343-1.415-3.83-3.039-5.167-5.06-.107.66-.218 1.043-.315 1.781-1.09 8.396 3.19 13.18 11.67 14.792 2.742.516 8.346 1.494 8.346 1.494l7.758 1.23 5.003 4.626 1.487.028 1.154-.225 8.485-1.674 18.87-3.72 8.07-1.547h18.22s11.027-6.013 13.89-11.023c3.164-5.5 13.538-12.154 13.538-12.154l.942-14.054s-1.978-6.995-4.103-11.159c-2.455-4.77 1.76-9.617 1.76-9.617z" fill="#d84315"/><path d="M78.06 116.43s-8.873-12.868-8.58-15.67c.553-5.221-14.784-7.593-14.784-7.593s-9.31 4.343-13.108 4.343c-.939 0-3.615-.67-4.576-.76-1.913-.186-4.92 7.167-7.073 7.167h-7.074s-4.17.82-8.234 8.062c-.58 2.326.627 7.453.627 7.453s1.799 4.709.745 6.866c-1.032 2.114-2.996 4.368-3.752 5.963-3.533 7.489.183 6.066.835 9.162.445 2.111.05 5.056-.2 6.522-.043.244 1.655 8.281 6.468 9.184 1.555.287 37.98-13.796 37.98-13.796z" fill="#ff8d69"/><path d="M64.504 45.394c-.065-1.649 2.31-6.128 2.31-6.128s6.082-3.15 8.393-4.723c2.483-1.3 7.138-2.411 14.14-2.282 1.605 3.494-2.297 6.568 1.29 9.607 1.713 1.422 2.53 3.812 2.53 3.812s-2.233 3.01-2.326 4.69c-.111 1.574 1.777 2.574 1.777 3.889.015 2.315-4.78 3.587-4.78 3.587l-7.83 5.719s-2.852 4.68-6.5 4.515c-7.388-.362-4.78-13.33-4.78-13.33s-4.131-6.013-4.224-9.356zm39.416-13.277c-.046-1.05 1.767-3.905 1.767-3.905s4.647-2.01 6.418-3.014c1.899-.831 3.687 3.128 6.428 5.067 3.655 0 5.6 3.956 5.53 5.027-.09 1 1.354 1.638 1.354 2.476.01 1.477-3.655 2.287-3.655 2.287l-5.988 3.647s-2.179 2.985-4.97 2.878c-3.232-3.261-6.812-12.33-6.884-14.463zm-7.17 35.966c-.04-.878 0-3.583 0-3.583s5.694-2.748 7.167-3.583c1.583-.692 7.166 7.166 10.75 7.166-.072.835 0 2.706 0 3.405.01 1.229-3.584 3.762-3.584 3.762s0 3.583-8.592 3.58c-1.287-1.294-1.09-5.128-2.158-7.163-1.171-2.233-3.55-2.652-3.583-3.584zm-75.2 65.952c.645-1.165 3.046-6.088 5.626-4.83 1.853.902.982 2.877 3.634 3.167 1.236.136 4.64 1.95 5.023 3.418.205.789-.842 2.308-1.333 2.975-.827 1.153-2.07 3.816-2.07 3.816s-6.813 1.698-6.813 0c0-3.397-4.655-7.464-4.067-8.546zm15.373-16.831s-1.294-2.58-1.065-3.447c.391-1.423 2.695-2.093 3.437-3.462.813-1.473 3.845-7.711 7.106-6.12 2.34 1.146 1.24 3.644 4.59 4.013 1.559.172 2.996 1.025 2.996 1.025l.476 2.802s2.071.67 2.605 1.276c.921 1.053-.795 2.146-1.419 2.988-1.046 1.462-2.358 4.83-2.358 4.83s-.602 3.315-2.816 4.279c-.32.452-8.13-4.723-8.13-4.723z" fill="#f4511e"/><path d="M78.06 116.43s-9.518 8.442-12.162 9.413c-8.565 3.157-5.139 10.324-7.293 10.324-1.06 0-7.073 7.166-7.073 7.166s-10.227-2.662-14.29 4.58c-.58 2.325-9.432 1.315-10.489 3.472-1.032 2.114-13.62-4.905-13.87-3.44-.044.244 1.655 8.281 6.467 9.184 1.559.287 4.74.835 4.74.835l4.408.688 1.817 1.283a7.284 7.284 0 004.164 1.315h9.743c1.544 0 3.06-.416 4.39-1.2l4.905-2.907 10.754-1.705s5.32-1.552 6.948-4.35c1.802-3.075 7.614-14.735 7.614-14.735z" fill="#f4511e"/></g></svg>