<svg xmlns="http://www.w3.org/2000/svg" width="48" height="48" viewBox="0 0 172 172"><g fill="none" stroke-miterlimit="10" font-family="none" font-weight="none" font-size="none" text-anchor="none" style="mix-blend-mode:normal"><path d="M0 172V0h172v172z"/><path d="M64.5 132.583v21.5a7.17 7.17 0 007.167 7.167h28.666a7.17 7.17 0 007.167-7.167v-21.5z" fill="#546e7a"/><path d="M78.833 146.917v-14.334h-7.166v14.334a7.17 7.17 0 007.166 7.166H86a7.17 7.17 0 01-7.167-7.166z" fill="#90a4ae"/><path d="M64.5 132.583h43v7.167h-43z" fill="#37474f"/><path d="M111.083 129s-1.347 3.583-3.583 3.583h-43c-2.465 0-3.583-3.583-3.583-3.583C46.1 86 43 25.083 43 25.083v-14.33h86v14.33S125.417 86 111.083 129z" fill="#b2ebf2"/><path d="M43 10.75h86v14.333H43z" fill="#80deea"/><path d="M71.667 132.583h7.166v7.167h-7.166z" fill="#78909c"/><path d="M68.083 50.167h35.834v28.666H68.083z" fill="#00acc1"/></g></svg>