<svg xmlns="http://www.w3.org/2000/svg" width="48" height="48" viewBox="0 0 172 172"><g fill="none" stroke-miterlimit="10" font-family="none" font-weight="none" font-size="none" text-anchor="none" style="mix-blend-mode:normal"><path d="M0 172V0h172v172z"/><path d="M100.333 71.667c-6.091 0-10.75 2.15-14.333 2.15s-8.958-2.15-14.333-2.15c-19.709 0-32.25 14.333-32.25 32.608s14.333 35.475 30.1 35.475h-1.434C82.417 139.75 86 154.083 86 154.083s3.583-14.333 19.708-14.333h-1.433c13.975 0 27.95-17.2 27.95-35.475 0-18.275-11.108-32.608-31.892-32.608z" fill="#d81b60"/><path d="M74.533 78.475c0 6.092 5.017 11.467 11.467 11.467s11.467-5.017 11.467-11.467c0-2.508-.717-4.658-2.15-6.45-3.584.717-6.809 1.433-9.317 1.433s-5.733-1.075-9.317-1.433c-1.075 1.792-2.15 4.3-2.15 6.45zm-2.508 21.858H60.917c-2.15 0-3.584-1.433-3.584-3.583 0-2.15 1.434-3.583 3.584-3.583h11.108c2.15 0 3.583 1.433 3.583 3.583 0 2.15-1.791 3.583-3.583 3.583zm42.642 3.584h-14.334c-2.15 0-3.583-1.434-3.583-3.584 0-2.15 1.433-3.583 3.583-3.583h14.334c2.15 0 3.583 1.433 3.583 3.583 0 2.15-1.433 3.584-3.583 3.584zm-32.25 14.333h-23.65c-2.15 0-3.584-1.433-3.584-3.583 0-2.15 1.434-3.584 3.584-3.584h23.65c2.15 0 3.583 1.434 3.583 3.584 0 2.15-1.433 3.583-3.583 3.583zm21.5 14.333H88.508c-2.15 0-3.583-1.433-3.583-3.583 0-2.15 1.433-3.583 3.583-3.583h15.409c2.15 0 3.583 1.433 3.583 3.583 0 2.15-1.433 3.583-3.583 3.583z" fill="#ad1457"/><path d="M136.525 26.517c-1.433-1.434 0-.717.358-1.792.717-1.433-2.15-1.792-3.583-1.792h-.717c-3.941-.358.359-1.075 0-2.866-.358-1.792-4.658-1.434-5.733-1.434-2.15.359-4.658 1.075-6.45 2.15.717-.358 1.792-1.791 1.075-2.508-.717-.717-3.583.358-4.658.358-2.15.717-3.942 1.075-6.092 2.15-1.433.717-2.508 2.15-3.942 3.225 0-.716.359-1.433.359-2.15-3.225-.716-8.6 6.092-8.242 9.317 0-1.433 0-3.942-1.792-2.508C96.392 30.1 86 41.208 86 64.5v17.917c1.792 0 3.225-1.434 3.583-3.225.717-5.017 2.15-10.392 4.3-16.484 1.434-5.016 3.584-10.75 9.317-11.825 1.433-.358 3.583.359 5.017-1.075-.359-.358-1.792-4.3-2.15-4.658 1.791.358 3.583 3.225 5.733 3.583 2.867.359 3.225-1.433 3.583-3.583 1.075 1.792 3.584 3.225 5.375 3.583 2.15.359 3.942-1.433 2.509-3.583 2.15 1.433 10.033 5.733 10.033 0 0-3.225-2.867-7.883-5.733-8.958 2.15 0 5.375 1.433 7.883 1.075 2.15 0 3.583-1.434 4.3-3.584.717-2.866-1.433-5.016-3.225-7.166z" fill="#4caf50"/><path d="M86 64.5c0-23.292-10.392-34.4-11.108-35.833-1.792-1.434-1.792 1.075-1.792 2.508.358-3.225-5.017-10.033-8.242-9.317 0 .717.359 1.434.359 2.15-1.434-1.075-2.509-2.508-3.942-3.225-2.15-1.075-3.942-1.433-6.092-2.15-1.075 0-3.941-1.075-4.658-.358-.717.717.358 2.15 1.075 2.508-1.792-1.075-4.3-1.791-6.45-2.15-1.075 0-5.375-.358-5.733 1.434-.359 1.791 3.941 2.508 0 2.866H38.7c-1.433 0-4.3.359-3.583 1.792.358 1.075 1.791.358.358 1.792-1.792 2.15-3.942 4.3-3.225 7.525.717 2.15 2.15 3.583 4.3 3.583 2.508.358 5.733-1.075 7.883-1.075-2.866 1.075-5.733 5.733-5.733 8.958 0 5.734 7.883 1.434 10.033 0-1.433 2.15.359 3.942 2.509 3.584 1.791-.359 4.3-1.792 5.375-3.584.358 2.15.716 3.942 3.583 3.584 2.15-.359 3.942-3.225 5.733-3.584-.358.359-1.791 4.3-2.15 4.659 1.434 1.433 3.584.716 5.017 1.075 5.733 1.075 7.883 6.808 9.317 11.825 2.15 6.45 3.583 11.825 4.3 15.766 0 2.15 1.433 3.584 3.583 3.584V75.25 64.5z" fill="#388e3c"/></g></svg>