<svg xmlns="http://www.w3.org/2000/svg" width="48" height="48" viewBox="0 0 172 172"><g fill="none" stroke-miterlimit="10" font-family="none" font-weight="none" font-size="none" text-anchor="none" style="mix-blend-mode:normal"><path d="M0 172V0h172v172z"/><path d="M136.167 17.917l-86-.008c-7.909 0-17.258 3.828-17.86 21.508h-.057V139.75l.065-.194c.652 13.04 9.126 14.527 12.86 14.527h87.408c7.167 0 7.167-7.166 7.167-7.166V21.5a3.58 3.58 0 00-3.583-3.583z" fill="#7e57c2"/><path d="M129 129H45.175c-4.773 0-5.758 4.01-5.758 8.958 0 4.952.985 8.966 5.758 8.966l83.825-.007z" fill="#ffe0b2"/><path d="M45.175 129c-4.182 0-5.454 3.075-5.708 7.167H129V129z" fill="#e0b990"/><path d="M50.167 39.41h75.25v17.916h-75.25z" fill="#ffecb3"/><path d="M136.167 129H129v25.083h3.583c7.167 0 7.167-7.166 7.167-7.166v-21.493a3.579 3.579 0 01-3.583 3.576z" fill="#311b92"/></g></svg>