<svg xmlns="http://www.w3.org/2000/svg" width="48" height="48" viewBox="0 0 172 172"><g fill="none" stroke-miterlimit="10" font-family="none" font-weight="none" font-size="none" text-anchor="none" style="mix-blend-mode:normal"><path d="M0 172V0h172v172z"/><path d="M143.552 28.448c17.386 17.39.39 51.923-31.394 83.71-31.784 31.774-66.32 48.773-83.706 31.39-17.39-17.39-.395-51.922 31.39-83.71 31.78-31.777 66.32-48.776 83.71-31.39z" fill="#ffb300"/><path d="M71.33 103.69c1.093 14.986-1.236 23.54-4.282 28.428-6.504 5.844-9.575 6.503-9.575 6.503s-1.028-40.728.086-56.204c.075-1.047 5.002-7.69 5.002-7.69s7.64 13.484 8.769 28.964zm28.666-23.964c1.093 14.985-1.24 23.538-4.282 28.426-6.503 5.845-9.574 6.504-9.574 6.504s-1.029-40.725.082-56.205c.075-1.046 5.003-7.69 5.003-7.69s7.646 13.488 8.772 28.965zm28.746-22.547c1.093 14.986-1.24 23.54-4.282 28.427-6.504 5.844-9.575 6.504-9.575 6.504s-1.028-40.725.083-56.205c.075-1.046 5.002-7.69 5.002-7.69s7.64 13.488 8.772 28.964z" fill="#ffa000"/><path d="M64.5 110.52c0 15.52-7.027 28.101-7.027 28.101s-7.023-12.58-7.023-28.1c0-15.52 7.023-28.104 7.023-28.104S64.5 95 64.5 110.52zm28.717-23.957c0 15.523-7.023 28.104-7.023 28.104s-7.024-12.581-7.027-28.104c0-15.516 7.026-28.1 7.026-28.1s7.024 12.584 7.024 28.1zm28.616-22.63c0 15.524-7.027 28.105-7.027 28.105s-7.023-12.581-7.027-28.104c0-15.516 7.027-28.1 7.027-28.1s7.027 12.584 7.027 28.1z" fill="#ffe082"/></g></svg>