<svg xmlns="http://www.w3.org/2000/svg" width="48" height="48" viewBox="0 0 172 172"><g fill="none" stroke-miterlimit="10" font-family="none" font-weight="none" font-size="none" text-anchor="none" style="mix-blend-mode:normal"><path d="M0 172V0h172v172z"/><circle cx="9.584" cy="20.468" transform="scale(3.58333)" r="4.469" fill="#f57c00"/><path d="M29.398 146.913c-1.258 0-2.512-.315-3.455-1.258-1.884-1.884-1.884-4.712 0-6.597l76.96-76.959c1.884-1.885 4.712-1.885 6.597 0 1.884 1.885 1.884 4.712 0 6.597l-76.648 76.96c-.942.942-2.197 1.257-3.454 1.257z" fill="#bcaaa4"/><path d="M153.675 62.511c0 24.525-20.063 44.588-44.588 44.588-24.524 0-44.587-20.063-44.587-44.588 0-24.524 20.063-44.587 44.587-44.587 24.525 0 44.588 20.063 44.588 44.587z" fill="#e57373"/><path d="M93.163 104.232c5.096 1.91 10.191 2.867 15.924 2.867 1.591 0 3.186 0 4.777-.32-8.919-9.552-9.872-23.886-4.777-44.268C87.43 78.117 89.024 94.36 93.163 104.232zm-24.84-59.874C65.776 49.773 64.5 56.14 64.5 62.511c0 1.276 0 2.867.319 4.139 8.919-9.234 21.658-11.467 44.268-4.139-15.605-21.338-30.891-21.338-40.764-18.153zm58.918-22.61c-5.415-2.549-11.782-3.824-18.154-3.824-1.275 0-2.866 0-4.138.319 9.234 8.919 11.466 21.657 4.138 44.268 21.34-15.605 21.34-30.892 18.154-40.764zm26.434 40.763c0-1.275 0-2.866-.32-4.139-8.918 9.235-21.657 11.467-44.268 4.14 15.606 21.338 30.892 21.338 40.764 18.152 2.548-5.414 3.824-11.782 3.824-18.153z" fill="#e53935"/><path d="M104.945 18.243c-2.867.319-5.414.638-7.962 1.59 12.1 7.644 15.286 27.073 12.1 42.678-11.147-29.3-34.714-26.115-36.305-25.796-1.592 2.229-3.186 4.776-4.458 7.643 2.548-.957 5.733-1.59 9.234-1.59 8.919 0 20.382 4.457 31.53 19.743 7.647-22.61 5.099-35.35-4.139-44.268zM64.82 66.65c.319 2.867.638 5.414 1.59 7.962 5.096-7.324 20.383-17.196 42.678-12.1-28.663 12.738-24.843 34.396-23.886 37.581 2.548 1.591 5.095 2.867 7.962 4.139-4.139-9.872-5.733-25.796 15.924-41.72-9.234-3.186-16.88-4.458-22.93-4.458-9.556 0-15.924 3.185-21.338 8.596z" fill="#e53935"/><path d="M140.617 82.255c-8.919 0-20.382-4.457-31.53-19.744-5.095 20.701-4.138 34.716 4.777 44.269 2.548-.32 5.414-.957 7.643-1.591-11.782-9.234-14.648-26.116-12.739-42.678 13.377 29.935 34.716 26.116 36.307 25.797 1.59-2.23 3.185-4.777 4.457-7.644-2.547.957-5.414 1.591-8.915 1.591z" fill="#e53935"/><path d="M153.356 58.373c-.319-2.867-.638-5.415-1.591-7.963-11.148 17.197-39.173 12.74-42.993 12.101 0 0 26.115-7.962 25.797-36.306-2.23-1.591-4.777-3.186-7.644-4.139 3.186 9.872 2.867 25.159-18.153 40.764 9.234 3.186 16.881 4.458 22.93 4.458 9.868-.32 16.24-3.501 21.654-8.915z" fill="#e53935"/><path d="M86.111 136.167l-16.05-10.64c-2.379-1.576-5.561.13-5.561 2.99v15.3c0 2.856 3.182 4.565 5.561 2.989zm21.12 0l16.05-10.64c2.383-1.58 5.561.13 5.561 2.99v15.3c0 2.856-3.182 4.565-5.561 2.989z" fill="#8e24aa"/><circle cx="27" cy="38" transform="scale(3.58333)" r="5" fill="#ab47bc"/><path d="M34.343 73.3l7.564-14.075a15.923 15.923 0 00-7.564-1.895c-2.738 0-5.31.688-7.565 1.895zm-7.565 14.162a15.923 15.923 0 007.565 1.896c2.737 0 5.31-.688 7.564-1.896l-7.564-14.075zm21.683-6.554a15.923 15.923 0 001.896-7.564c0-2.738-.688-5.31-1.896-7.565l-14.075 7.565zM20.224 65.78a15.923 15.923 0 00-1.895 7.564c0 2.737.688 5.31 1.895 7.564L34.3 73.344z" fill="#ffa000"/></g></svg>