<svg xmlns="http://www.w3.org/2000/svg" width="48" height="48" viewBox="0 0 172 172"><g fill="none" stroke-miterlimit="10" font-family="none" font-weight="none" font-size="none" text-anchor="none" style="mix-blend-mode:normal"><path d="M0 172V0h172v172z"/><path d="M0 96.75h89.583v14.333H0zm0-35.833h89.583V75.25H0z" fill="#ff9800"/><path d="M164.833 125.417c3.942 0 7.167-3.225 7.167-7.167v-64.5c0-3.942-3.225-7.167-7.167-7.167H96.75v78.834zM75.25 46.583c-3.942 0-7.167 3.225-7.167 7.167v64.5c0 3.942 3.225 7.167 7.167 7.167h7.167V46.583z" fill="#3f51b5"/><path d="M89.583 118.25c3.942 0 7.167 3.225 7.167 7.167V46.583c0 3.942-3.225 7.167-7.167 7.167-3.941 0-7.166-3.225-7.166-7.167v78.834c0-3.942 3.225-7.167 7.166-7.167z" fill="#303f9f"/></g></svg>