<svg xmlns="http://www.w3.org/2000/svg" width="48" height="48" viewBox="0 0 172 172"><g fill="none" stroke-miterlimit="10" font-family="none" font-weight="none" font-size="none" text-anchor="none" style="mix-blend-mode:normal"><path d="M0 172V0h172v172z"/><path d="M152.65 67.725l-.358-.358c-1.792-2.15.716-.359 1.433-1.434.717-1.075-1.792-3.225-2.508-3.941-1.434-1.075-2.867-1.792-4.659-2.15.717 0 2.15 0 2.15-.717s-2.15-1.792-2.866-2.15l-4.3-2.15c-1.434-.358-2.509-.358-3.942-.358.358-.359 1.075-.359 1.433-1.075-1.433-2.15-7.883-1.075-9.675.358.717-.717 1.075-1.792-.358-1.792-1.075 0-2.15.359-3.225.717-15.05 4.658-25.083 15.05-28.308 18.633-3.225 3.584-4.659 6.809-4.659 6.809 4.3-4.3 9.675-8.242 15.409-11.109 3.583-1.791 10.033-4.3 13.975-1.791 1.075.716 1.791 1.433 2.866 1.433 0-.358.359-.717.359-1.075 1.075 1.075 0 2.867 1.075 4.3 1.433 1.792 2.508 1.075 3.941 0-.358 1.433 0 3.583 1.075 5.017 1.075 1.433 2.867 1.433 3.225-.359.359 1.792 2.509 8.242 5.375 5.375 1.792-1.791 2.867-5.733 1.792-7.883 1.075 1.433 2.15 3.942 3.583 5.017 1.434 1.075 2.867 1.075 4.659.358 2.15-1.433 2.15-3.583 2.15-5.733 0-1.434.358-.359 1.075-.717 1.433-.717 0-2.508-.717-3.225z" fill="#388e3c"/><path d="M104.275 19.35c.358 0 .358.358 0 0 2.508 2.15.717-.358 1.792-1.075 1.075-.717 3.225 1.792 3.941 2.508 1.075 1.434 1.792 2.867 2.15 4.659 0-.717 0-2.15.717-2.15s1.792 2.15 2.15 2.866l2.15 4.3c.358 1.434.358 2.509.358 3.942.359-.358.359-1.075 1.075-1.433 2.15 1.433 1.075 7.883-.358 9.675.717-.717 1.792-1.075 1.792.358 0 1.075-.359 2.15-.717 3.225-4.658 15.05-15.05 25.083-18.633 28.308-3.584 3.225-6.809 4.659-6.809 4.659 4.3-4.3 8.242-9.675 11.109-15.409 1.791-3.583 4.3-10.033 1.791-13.975-.716-1.075-1.433-1.791-1.433-2.866.358 0 .717-.359 1.075-.359-1.075-1.075-2.867 0-4.3-1.075-1.792-1.433-1.075-2.508 0-3.941-1.433.358-3.583 0-5.017-1.075-1.433-1.075-1.433-2.867.359-3.225-1.792-.359-8.242-2.509-5.375-5.375 1.791-1.792 5.733-2.867 7.883-1.792-1.075-1.075-3.942-2.15-5.017-3.583-1.075-1.434-1.075-2.867-.358-4.659 1.433-2.15 3.583-2.15 5.733-2.15 1.434 0 .359-.358.717-1.075.717-1.433 2.508 0 3.225.717z" fill="#388e3c"/><path d="M149.067 22.933c-2.867-2.866-5.734-1.075-8.242 1.434.717-1.075 0-2.15-1.433-2.509-1.075-.358-2.15.359-2.867 1.075-1.433 1.434-1.433 3.942-1.433 5.734-1.075-2.509-3.942-1.434-5.017.716-.717 1.792-.717 3.942-.717 5.734-1.075-1.075-2.508-1.075-3.941.358-3.584 3.942-3.942 14.692-21.859 31.892-.358.358.717 1.075.717 1.075 21.858-21.142 27.95-17.917 32.608-21.5 1.075-1.075 0-1.792-1.075-2.15 1.434 0 2.867-.359 3.942-.359 1.792-.358 3.583-.716 5.017-1.791.716-.717 1.433-2.15 1.075-3.225-.717-1.075-1.792-1.075-2.867-1.075 2.15-.359 4.658-.717 6.45-2.15 1.075-1.792 1.433-2.867 1.433-3.942 0-.717-.716-2.508-1.791-2.15 1.791-1.792 1.791-5.375 0-7.167z" fill="#4caf50"/><path d="M111.083 97.108c7.167-7.166 6.809-19.708-5.016-31.175C94.6 54.108 82.417 53.75 75.25 60.917c-15.408 16.841-54.108 81.7-49.808 85.641 3.583 3.584 63.066-30.458 85.641-49.45z" fill="#ff9800"/><path d="M71.308 101.767c.717.716 1.434 1.075 2.509 1.075s1.791-.359 2.508-1.075c1.433-1.434 1.433-3.584 0-5.017L60.2 80.625c-1.433 2.15-2.867 3.942-3.942 6.092zm-1.433-34.4l6.808 6.808c.717.717 1.792 1.075 2.509 1.075 1.075 0 1.791-.358 2.508-1.075 1.433-1.433 1.433-3.583 0-5.017l-7.525-7.525c-1.075 1.792-2.508 3.584-4.3 5.734zm-36.192 64.858c.717.717 1.792 1.075 2.509 1.075 1.075 0 1.791-.358 2.508-1.075 1.433-1.433 1.433-3.583 0-5.017l-4.3-4.3c-1.433 2.509-2.508 4.659-3.583 6.809zm62.709-41.567c-1.434-1.433-3.584-1.433-5.017 0-1.433 1.434-1.433 3.584 0 5.017l9.317 9.317c2.15-1.434 3.941-2.867 5.733-4.3zm-35.475 34.759c-1.075 0-1.792-.359-2.509-1.075L47.3 113.233c-1.433-1.433-1.433-3.583 0-5.016 1.433-1.434 3.583-1.434 5.017 0l11.108 11.108c1.433 1.433 1.433 3.583 0 5.017-.717.716-1.433 1.075-2.508 1.075z" fill="#ef6c00"/></g></svg>