<svg xmlns="http://www.w3.org/2000/svg" width="48" height="48" viewBox="0 0 172 172"><g fill="none" stroke-miterlimit="10" font-family="none" font-weight="none" font-size="none" text-anchor="none" style="mix-blend-mode:normal"><path d="M0 172V0h172v172z"/><path d="M58.502 77.321c-20.089-8.55-1.516-47.34 27.878-58.641 21.31-8.195 45.705-4.508 62.83 8.571 9.438 7.206 11.248 20.694 4.042 30.132-7.206 9.443-20.816 8.246-31.784 3.691C82.57 44.935 81.704 87.197 58.502 77.321zM113.434 94.665c20.088 8.55 1.516 47.339-27.878 58.64-21.31 8.196-45.706 4.509-62.83-8.57-9.439-7.207-11.249-20.694-4.043-30.133 7.207-9.442 20.816-8.245 31.785-3.69 38.9 16.142 39.764-26.123 62.966-16.247z" fill="#ffcc80"/><path d="M118.651 98.506c2.057 12.703-9.8 48.41-54.151 48.41-41.352 0-48.611-17.03-49.887-23.019-1.351 7.662 1.501 15.792 8.109 20.837 17.128 13.08 41.52 16.767 62.83 8.572 26.176-10.066 43.745-41.904 33.1-54.8zM141.843 57.247c-13.617 0-19.146-7.08-33.397-7.08-13.921 0-21.26 5.163-29.14 14.043-11.488 12.943-16.332 13.889-23.245 11.767.746.498 1.541.96 2.44 1.344 23.203 9.876 24.066-32.39 62.97-16.243 10.969 4.55 24.578 5.748 31.785-3.69a21.507 21.507 0 003.6-7.243c-.114.118-6.99 7.102-15.013 7.102z" fill="#ffb74d"/></g></svg>