<svg xmlns="http://www.w3.org/2000/svg" width="48" height="48" viewBox="0 0 172 172"><g fill="none" stroke-miterlimit="10" font-family="none" font-weight="none" font-size="none" text-anchor="none" style="mix-blend-mode:normal"><path d="M0 172V0h172v172z"/><path d="M136.167 75.25c0-7.776 6.199-14.068 13.92-14.29a1540.65 1540.65 0 00-1.128-28.395C91.353 37.313 33.303 49.088 33.303 49.088c-7.707 1.527-9.252 3.053-10.792 9.148 0 0-3.086 12.194 1.54 38.113 4.626 25.918 21.633 36.593 29.298 36.593 0 0 62.762 5.909 95.61 1.727 0 0 1.297-24.546 1.512-45.09-7.905-.017-14.304-6.424-14.304-14.329z" fill="#ffe57f"/><path d="M54.019 125.965l-.337-.032h-.337c-3.562 0-18.2-7.697-22.324-30.806-4.228-23.697-1.656-35.142-1.641-35.2.537-2.131.849-2.665.86-2.701.165-.122.982-.588 4.483-1.276.548-.11 53.41-10.764 107.496-15.763l7.07-.566c-.194-4.332-.333-7.056-.333-7.056C91.35 37.313 33.3 49.088 33.3 49.088c-7.708 1.527-9.252 3.053-10.793 9.148 0 0-3.085 12.194 1.54 38.113 4.627 25.918 21.637 36.593 29.302 36.593 0 0 34.256 3.225 65.395 3.225 11.009 0 21.633-.405 30.215-1.498 0 0 .147-2.817.355-7.335-8.6 1.107-22.948 1.827-30.566 1.827-30.433 0-64.389-3.164-64.73-3.196z" fill="#ffb300"/><path d="M21.966 61.615c.261-2.254.54-3.379.54-3.379 1.542-6.095 3.083-7.621 10.794-9.148 0 0 58.05-11.775 115.656-16.523 0 0-48.218-2.465-58.695-3.49-10.478-1.025-19.633 0-24.793 1.605-5.164 1.602-21.995 8.608-21.995 8.608-23.13 8.933-21.51 22.327-21.507 22.327z" fill="#ffa000"/><path d="M78.833 64.5c-7.916 0-14.333 6.417-14.333 14.333s6.417 14.334 14.333 14.334 14.334-6.418 14.334-14.334c0-7.916-6.418-14.333-14.334-14.333zm39.417-14.333a7.167 7.167 0 100 14.333 7.167 7.167 0 000-14.333zM59.125 96.75a8.958 8.958 0 100 17.917 8.958 8.958 0 000-17.917zM44.792 71.667a5.375 5.375 0 100 10.75 5.375 5.375 0 000-10.75zm73.458 17.916c-5.937 0-10.75 4.813-10.75 10.75s4.813 10.75 10.75 10.75S129 106.27 129 100.333s-4.813-10.75-10.75-10.75z" fill="#ffc400"/></g></svg>