<svg xmlns="http://www.w3.org/2000/svg" width="48" height="48" viewBox="0 0 172 172"><g fill="none" stroke-miterlimit="10" font-family="none" font-weight="none" font-size="none" text-anchor="none" style="mix-blend-mode:normal"><path d="M0 172V0h172v172z"/><path d="M148.35 105.708c-14.692-44.433-48.375-11.825-48.375-11.825s-4.658.359-10.033 2.15c-11.467-11.108-32.967-4.3-32.967-4.3S17.2 78.475 21.858 122.908c2.15 18.992 16.842 31.175 37.267 31.175 10.392 0 19.35-3.225 25.8-8.6 10.75 9.675 26.517 11.467 42.283 4.3 19.35-8.6 27.234-25.8 21.142-44.075z" fill="#ff1744"/><path d="M106.425 126.492c-1.433-13.975 9.675-39.417 18.992-44.075-12.9-.359-25.442 11.466-25.442 11.466s-4.3.359-9.675 2.15c-.358-.358-.717-.358-1.075-.358 5.017 4.658 8.242 13.258 6.808 27.233-1.075 9.317-5.016 16.842-11.108 22.217 5.375 5.017 18.275 14.333 42.283 4.658-11.108-2.15-19.35-9.316-20.783-23.291z" fill="#d50000"/><path d="M36.192 125.058c-1.434 0-3.225-1.075-3.584-2.866-3.583-14.692 5.017-20.784 8.6-22.934 1.792-1.075 3.942-.358 4.659 1.434 1.075 1.791.358 3.941-1.434 4.658-3.583 1.792-7.166 5.733-5.016 14.692.358 1.791-.717 3.941-2.509 4.3-.358.716-.358.716-.716.716z" fill="#ffcdd2"/><path d="M103.2 87.075c-.358-1.075-.717-1.792-1.075-2.867 0-.358-.358-.716-.358-1.075-.359-.716-.359-1.433-.717-1.791-.358-.717-.358-1.075-.717-1.792-.358-.717-.358-1.075-.358-1.792-.358-.716-.358-1.433-.717-1.791-.358-.717-.358-1.434-.716-2.15 0-.359-.359-.717-.359-1.075-.358-.717-.358-1.434-.358-2.15 0-.359 0-.717-.358-1.075 0-.717-.359-1.434-.359-2.15 0-.359 0-.717-.358-1.075 0-.717-.358-1.434-.358-2.15v-.717-2.15V60.2v-2.15-.717-2.15-.716-1.792V51.6v-1.433-1.075-1.075c0-.359 0-.717.358-1.434v-.716c0-.359.358-1.075.358-1.434v-.716c0-.717.359-1.075.359-1.792v-.358c0-.717.358-1.075.358-1.792 2.15-7.525 5.733-12.542 7.167-14.333.358 0 .716-.359.716-.359 1.792-.716 2.509-2.866 1.792-4.658-.717-1.792-1.792-3.225-3.583-2.508 0 0-.359 0-.359.358-.358 0-.716 0-1.075.358-.358 0-.358.359-.716.717C51.958 41.925 53.75 96.392 53.75 96.75c0 1.792 1.792 3.583 3.583 3.583 2.15 0 3.584-1.791 3.584-3.583 0-.358-1.434-41.925 32.966-65.217-5.375 13.259-9.675 36.192 6.809 67.009.716 1.075 1.791 1.791 3.225 1.791.716 0 1.075 0 1.791-.358 1.434-.717 2.15-2.15 1.792-3.583 0-.359-.358-1.075-.358-1.434-.717-1.433-1.434-2.866-2.15-3.941v-.359c-.717-1.075-1.434-2.508-1.792-3.583z" fill="#795548"/><path d="M136.167 64.5c-6.45-6.808 10.391-46.583-32.25-46.583-24.367 47.3 32.25 46.583 32.25 46.583z" fill="#4caf50"/></g></svg>