<svg xmlns="http://www.w3.org/2000/svg" width="48" height="48" viewBox="0 0 172 172"><g fill="none" stroke-miterlimit="10" font-family="none" font-weight="none" font-size="none" text-anchor="none" style="mix-blend-mode:normal"><path d="M0 172V0h172v172z"/><path d="M128.835 28.831c-.917-4.984-5.937-8.531-11.445-6.951-2.867.824-5.167 3.193-5.96 6.066a9.17 9.17 0 00-.275 3.627c.523 4.128-.917 8.256-3.86 11.198L87.578 62.49l7.6 7.6 19.719-19.72a13.47 13.47 0 0111.201-3.858 9.197 9.197 0 003.62-.276c2.873-.792 5.246-3.093 6.07-5.96 1.58-5.503-1.964-10.527-6.952-11.445zm28.606 28.66c.455-2.05.344-4.307-1.484-6.887-1.608-2.268-4.153-3.92-6.937-4.017a8.96 8.96 0 00-9.27 8.955v.064c.029 3.788-1.76 7.35-5.15 9.044L108.68 77.611l4.809 9.618 28.1-14.05c3.107-1.555 6.683-1.054 9.643.767 2.046 1.257 4.633 1.709 7.346.913 2.784-.817 5.052-3.085 5.866-5.873 1.612-5.55-1.975-10.606-7.002-11.495z" fill="#d7ccc8"/><path d="M111.083 68.083c0-11.305 3.813-17.712 3.813-17.712l-7.6-7.6C97.617 52.449 64.5 50.167 64.5 50.167z" fill="#bf360c"/><path d="M7.167 129s24.707 21.5 64.5 21.5 71.666-23.07 71.666-43-28.666-39.417-28.666-39.417S85.48 50.167 64.5 50.167C7.163 50.167 7.167 129 7.167 129z" fill="#e64a19"/><path d="M140.958 97.151c-2.512-5.805-6.694-11.244-11.023-15.827-27.742 3.386-76.185 19.01-76.185 19.01s8.958 21.5 35.833 21.5c23.933 0 35.013-5.72 51.375-24.683z" fill="#d84315"/><path d="M64.5 50.167c27.871 0 40.825 14.333 57.333 14.333h12.768l4.701 9.965S115.53 114.667 86 114.667c-21.5 0-32.25-14.334-32.25-14.334s-4.182-10.75-17.917-10.75C17.917 89.583 7.167 129 7.167 129s0-78.833 57.333-78.833z" fill="#ff7043"/><path d="M46.583 71.667A3.585 3.585 0 0143 75.25a3.585 3.585 0 01-3.583-3.583A3.585 3.585 0 0143 68.083a3.585 3.585 0 013.583 3.584zm10.75-10.75A3.585 3.585 0 0053.75 64.5a3.585 3.585 0 003.583 3.583 3.585 3.585 0 003.584-3.583 3.585 3.585 0 00-3.584-3.583zm0 14.333a3.585 3.585 0 00-3.583 3.583 3.585 3.585 0 003.583 3.584 3.585 3.585 0 003.584-3.584 3.585 3.585 0 00-3.584-3.583z" fill="#f4511e"/></g></svg>