<svg xmlns="http://www.w3.org/2000/svg" width="48" height="48" viewBox="0 0 172 172"><g fill="none" stroke-miterlimit="10" font-family="none" font-weight="none" font-size="none" text-anchor="none" style="mix-blend-mode:normal"><path d="M0 172V0h172v172z"/><path d="M93.525 115.025l3.583 28.308m0 3.584c-1.791 0-3.225-1.434-3.583-3.225l-3.583-28.309c-.359-1.791 1.075-3.583 3.225-3.941 1.791-.359 3.583 1.075 3.941 3.225l3.584 28.308c.358 1.792-1.075 3.583-3.225 3.942h-.359z" fill="#dd2c00"/><path d="M89.583 143.333h7.167s10.75 0 17.917 3.584" fill="#dd2c00"/><path d="M114.667 150.5c-.717 0-1.075 0-1.434-.358-6.45-3.225-16.483-3.225-16.483-3.225h-7.167c-2.15 0-3.583-1.434-3.583-3.584 0-2.15 1.433-3.583 3.583-3.583h7.167c.358 0 11.825 0 19.35 3.942 1.792.716 2.508 2.866 1.433 4.658-.358 1.433-1.433 2.15-2.866 2.15z" fill="#dd2c00"/><path d="M89.942 150.142c-1.792 0-3.225-1.434-3.584-3.225l-3.583-28.309c-.358-1.791 1.075-3.583 3.225-3.941 1.792-.359 3.583 1.075 3.942 3.225l3.583 28.308c.358 1.792-1.075 3.583-3.225 3.942h-.358z" fill="#ff3d00"/><path d="M82.417 146.917h7.166s10.75 0 17.917 3.583" fill="#dd2c00"/><path d="M107.5 154.083c-.717 0-1.075 0-1.433-.358-6.45-3.225-16.484-3.225-16.484-3.225h-7.166c-2.15 0-3.584-1.433-3.584-3.583 0-2.15 1.434-3.584 3.584-3.584h7.166c.359 0 11.825 0 19.35 3.942 1.792.717 2.509 2.867 1.434 4.658-.359 1.434-1.434 2.15-2.867 2.15z" fill="#ff3d00"/><path d="M132.583 58.408c-2.866-4.3 1.792-4.3 5.375-11.825l-12.541-21.5c-18.634 0-25.084 28.309-28.667 35.834-14.692 0-39.417 14.333-39.417 14.333-7.525 0-15.766-21.5-20.425-24.367 0 0-9.316 15.05-12.541 37.625 2.508 1.792 5.733 3.584 9.316 5.017 12.542 29.383 41.567 39.058 58.05 39.058 18.634 0 26.517-10.75 26.517-10.75s40.133-11.825 14.333-63.425z" fill="#cfd8dc"/><path d="M39.417 55.542c0 2.866-2.509 5.375-5.375 5.375-2.867 0-5.375-2.509-5.375-5.375 0-2.867 2.508-5.375 5.375-5.375 2.866 0 5.375 2.508 5.375 5.375zM32.25 73.458c0 2.867-2.15 5.375-5.375 5.375S21.5 76.325 21.5 73.458c0-2.866 2.508-5.375 5.375-5.375s5.375 2.509 5.375 5.375zm0 10.75c0 2.867-2.508 5.375-5.375 5.375S21.5 87.075 21.5 84.208c0-2.866 2.508-5.375 5.375-5.375s5.375 2.509 5.375 5.375z" fill="#cfd8dc"/><path d="M34.042 63.425c0 2.867-2.509 5.375-5.375 5.375-2.867 0-5.375-2.508-5.375-5.375s2.508-5.375 5.375-5.375c2.866 0 5.375 2.15 5.375 5.375z" fill="#cfd8dc"/><path d="M103.917 44.075c-3.225 6.808-5.734 13.975-7.167 16.842-14.333 0-39.775 14.333-39.775 14.333 7.167 7.167 18.275 7.167 18.275 7.167s-5.733 7.166-18.275 10.75c7.167 3.583 17.917 3.583 17.917 3.583s-3.584 7.167-14.334 10.75c7.167 3.583 19.709 3.225 27.234 0 28.666-11.825 26.875-39.417 26.875-39.417-.717-9.675-5.734-21.5-10.75-24.008z" fill="#b0bec5"/><path d="M122.192 26.875c0-2.867 3.583-12.542 5.375-12.542 1.791 0 5.375 9.675 5.375 12.542 0 2.867-2.509 5.375-5.375 5.375-2.867 0-5.375-2.508-5.375-5.375z" fill="#ff3d00"/><path d="M126.133 23.292c1.434-2.509 8.959-9.675 10.392-8.6 1.433.716.358 11.108-.717 13.616-1.433 2.509-4.658 3.584-7.166 2.509-2.867-1.792-3.584-5.017-2.509-7.525z" fill="#ff3d00"/><path d="M121.117 31.533c-1.434-2.508-3.584-12.541-2.15-13.616 1.433-1.075 9.675 5.375 11.108 7.883 1.433 2.508.717 5.733-1.792 7.525-2.15 1.433-5.375.717-7.166-1.792z" fill="#ff3d00"/><path d="M133.3 21.858c2.867-1.075 12.9-1.075 13.617.717.716 1.792-7.167 8.242-10.034 9.317-2.866 1.075-5.733-.359-6.808-3.225-.717-2.509.717-5.734 3.225-6.809z" fill="#ff3d00"/><path d="M139.033 28.667c2.867.358 11.825 5.375 11.467 7.166-.358 1.792-10.392 3.942-13.258 3.584-2.867-.359-5.017-3.225-4.659-6.092.717-2.867 3.584-5.017 6.45-4.658zm1.075 23.291c0 5.017-3.941 8.959-8.958 8.959-4.658 0-8.242-3.225-8.958-7.884 0 0 9.316 0 10.75-6.45l3.225-2.15c2.15 1.792 3.941 4.3 3.941 7.525z" fill="#ff3d00"/><path d="M140.108 39.417c0 7.883-6.45 14.333-14.333 14.333s-14.333-6.45-14.333-14.333c0-7.884 6.45-14.334 14.333-14.334s14.333 6.45 14.333 14.334z" fill="#607d8b"/><path d="M125.775 25.083c-18.275 0-25.442 25.084-28.667 35.834l10.75-7.167 5.375 8.242 9.317-8.959z" fill="#607d8b"/><path d="M132.942 39.417c0 2.15-1.434 3.583-3.584 3.583-2.15 0-3.583-1.433-3.583-3.583 0-2.15 1.433-3.584 3.583-3.584 1.792 0 3.584 1.434 3.584 3.584z" fill="#000"/><path d="M140.108 39.417l-7.166 7.166 7.166 3.584s7.167-3.584 14.334 0c-3.584-10.75-14.334-10.75-14.334-10.75z" fill="#ffc107"/></g></svg>