<svg xmlns="http://www.w3.org/2000/svg" width="48" height="48" viewBox="0 0 172 172"><g fill="none" stroke-miterlimit="10" font-family="none" font-weight="none" font-size="none" text-anchor="none" style="mix-blend-mode:normal"><path d="M0 172V0h172v172z"/><path d="M111.083 28.667H60.917C35.833 35.833 21.5 57.333 21.5 86v21.5h129V86c0-28.667-14.333-50.167-39.417-57.333z" fill="#fb8c00"/><path d="M103.917 21.5H68.083a7.165 7.165 0 00-7.166 7.167v90.658h50.166V28.667a7.165 7.165 0 00-7.166-7.167z" fill="#ffa726"/><path d="M150.5 86s0 17.917-10.75 17.917c-35.833 0-43-46.584-43-71.667V21.5a3.585 3.585 0 00-3.583-3.583H78.833A3.585 3.585 0 0075.25 21.5v10.75c0 25.083-7.167 71.667-43 71.667C21.5 103.917 21.5 86 21.5 86l-7.167 7.167V107.5s0 35.833 71.667 35.833 71.667-35.833 71.667-35.833V93.167z" fill="#ffcc80"/><path d="M157.667 93.167s-3.584 10.75-17.917 10.75C150.5 100.333 150.5 86 150.5 86zm-143.334 0s3.584 10.75 17.917 10.75C21.5 100.333 21.5 86 21.5 86z" fill="#ffb74d"/><path d="M157.667 103.917c-.09-.09-6.576 10.097-10.75 14.333-2.874 2.913-6.866 10.413-60.917 10.736-54.051-.323-58.043-7.823-60.917-10.736-4.174-4.236-10.66-14.423-10.75-14.333-.179.25-3.583 3.583-3.583 3.583 0 3.583 3.992 20.773 7.167 28.667 2.103 5.231 6.812 9.205 12.165 10.983 9.317 3.088 27.251 6.933 55.918 6.933 28.667 0 46.601-3.845 55.918-6.933 5.353-1.778 10.062-5.752 12.165-10.983 3.175-7.894 7.167-25.084 7.167-28.667 0 0-3.404-3.332-3.583-3.583z" fill="#ffb74d"/></g></svg>