<svg xmlns="http://www.w3.org/2000/svg" width="48" height="48" viewBox="0 0 172 172"><g fill="none" stroke-miterlimit="10" font-family="none" font-weight="none" font-size="none" text-anchor="none" style="mix-blend-mode:normal"><path d="M0 172V0h172v172z"/><path d="M82.417 163.095v-46.637h7.166v46.637L86 166.625z" fill="#cfd8dc"/><path fill="#e53935" d="M78.833 99.355h14.334v26.062H78.833z"/><path fill="#b71c1c" d="M82.417 99.355h7.166v26.062h-7.166z"/><path fill="#ff8f00" d="M75.25 68.187h21.5v35.73h-21.5z"/><path fill="#8d6e63" d="M75.25 46.687h21.5v35.73h-21.5z"/><path d="M157.885 32.25H14.115a6.948 6.948 0 01-6.948-6.948v-.437a6.948 6.948 0 016.948-6.948h143.77a6.948 6.948 0 016.948 6.948v.437a6.948 6.948 0 01-6.948 6.948z" fill="#90a4ae"/><path fill="#ff8f00" d="M35.833 14.333h100.334v21.5H35.833z"/><path fill="#8d6e63" d="M43 14.333h86v21.5H43z"/><path d="M121.833 7.167H50.167v38.456l17.916 21.5v8.127h35.834v-8.127l17.916-21.5z" fill="#ff8f00"/><path fill="#fff" d="M68.083 28.667h35.834v7.166H68.083zm0 14.333h35.834v7.167H68.083zm0-28.667h35.834V21.5H68.083z"/></g></svg>