<svg xmlns="http://www.w3.org/2000/svg" width="48" height="48" viewBox="0 0 172 172"><g fill="none" stroke-miterlimit="10" font-family="none" font-weight="none" font-size="none" text-anchor="none" style="mix-blend-mode:normal"><path d="M0 172V0h172v172z"/><path d="M43 139.75H17.917l82.416-39.417 21.5 3.584z" fill="#78909c"/><path d="M136.167 103.917L64.5 139.75V64.5l71.667-25.083z" fill="#90a4ae"/><path d="M89.583 46.583H17.917l82.416-32.25h57.334z" fill="#78909c"/><path d="M157.667 28.667L89.583 68.083v-21.5l68.084-32.25zm0 89.583l-68.084 43v-21.5l68.084-35.833z" fill="#546e7a"/><path d="M89.583 139.75H64.5l71.667-35.833h21.5z" fill="#78909c"/><path d="M89.583 68.083v-21.5H17.917v21.5H43v71.667H17.917v21.5h71.666v-21.5H64.5V68.083z" fill="#cfd8dc"/></g></svg>