<svg xmlns="http://www.w3.org/2000/svg" width="48" height="48" viewBox="0 0 172 172"><g fill="none" stroke-miterlimit="10" font-family="none" font-weight="none" font-size="none" text-anchor="none" style="mix-blend-mode:normal"><path d="M0 172V0h172v172z"/><path d="M68.083 157.667c-17.916 0-21.5-24.546-21.5-68.084 0-43.537 14.438-78.833 32.25-78.833 17.813 0 32.25 35.296 32.25 78.833 0 43.538-3.583 68.084-21.5 68.084" fill="#ea8711"/><path d="M89.583 132.583a7.17 7.17 0 01-7.166 7.167H75.25a7.17 7.17 0 01-7.167-7.167 7.17 7.17 0 017.167-7.166h7.167a7.17 7.17 0 017.166 7.166zm0-17.916a7.17 7.17 0 00-7.166-7.167H75.25a7.17 7.17 0 00-7.167 7.167 7.17 7.17 0 007.167 7.166h7.167a7.17 7.17 0 007.166-7.166zm0-17.917a7.17 7.17 0 00-7.166-7.167H75.25a7.17 7.17 0 00-7.167 7.167 7.17 7.17 0 007.167 7.167h7.167a7.17 7.17 0 007.166-7.167zm0-17.917a7.17 7.17 0 00-7.166-7.166H75.25a7.17 7.17 0 00-7.167 7.166A7.17 7.17 0 0075.25 86h7.167a7.17 7.17 0 007.166-7.167zm0-17.916a7.17 7.17 0 00-7.166-7.167H75.25a7.17 7.17 0 00-7.167 7.167 7.17 7.17 0 007.167 7.166h7.167a7.17 7.17 0 007.166-7.166zm0-17.917a7.17 7.17 0 00-7.166-7.167H75.25A7.17 7.17 0 0068.083 43a7.17 7.17 0 007.167 7.167h7.167A7.17 7.17 0 0089.583 43zm25.084 71.667a7.17 7.17 0 00-7.167-7.167h-7.167a7.17 7.17 0 00-7.166 7.167 7.17 7.17 0 007.166 7.166h7.167a7.17 7.17 0 007.167-7.166zm0-17.917a7.17 7.17 0 00-7.167-7.167h-7.167a7.17 7.17 0 00-7.166 7.167 7.17 7.17 0 007.166 7.167h7.167a7.17 7.17 0 007.167-7.167zm0-17.917a7.17 7.17 0 00-7.167-7.166h-7.167a7.17 7.17 0 00-7.166 7.166A7.17 7.17 0 00100.333 86h7.167a7.17 7.17 0 007.167-7.167zm0-17.916a7.17 7.17 0 00-7.167-7.167h-7.167a7.17 7.17 0 00-7.166 7.167 7.17 7.17 0 007.166 7.166h7.167a7.17 7.17 0 007.167-7.166zM111.083 43a7.17 7.17 0 00-7.166-7.167h-3.584A7.17 7.17 0 0093.167 43a7.17 7.17 0 007.166 7.167h3.584A7.17 7.17 0 00111.083 43zM53.75 25.083a7.17 7.17 0 007.167 7.167 7.17 7.17 0 007.166-7.167 7.17 7.17 0 00-7.166-7.166 7.17 7.17 0 00-7.167 7.166zm17.917 0a7.17 7.17 0 007.166 7.167A7.17 7.17 0 0086 25.083a7.17 7.17 0 00-7.167-7.166 7.17 7.17 0 00-7.166 7.166zm17.916 0a7.17 7.17 0 007.167 7.167 7.17 7.17 0 007.167-7.167 7.17 7.17 0 00-7.167-7.166 7.17 7.17 0 00-7.167 7.166zM46.583 43a7.17 7.17 0 007.167 7.167h3.583A7.17 7.17 0 0064.5 43a7.17 7.17 0 00-7.167-7.167H53.75A7.17 7.17 0 0046.583 43zM43 60.917a7.17 7.17 0 007.167 7.166h7.166a7.17 7.17 0 007.167-7.166 7.17 7.17 0 00-7.167-7.167h-7.166A7.17 7.17 0 0043 60.917zm0 17.916A7.17 7.17 0 0050.167 86h7.166a7.17 7.17 0 007.167-7.167 7.17 7.17 0 00-7.167-7.166h-7.166A7.17 7.17 0 0043 78.833zm0 17.917a7.17 7.17 0 007.167 7.167h7.166A7.17 7.17 0 0064.5 96.75a7.17 7.17 0 00-7.167-7.167h-7.166A7.17 7.17 0 0043 96.75z" fill="#ffc107"/><path d="M146.917 120.776c-43.15-42.996-64.5 18.974-64.5 18.974S67.22 99.025 25.083 75.25c27.922 26.81.51 86 55.84 86 50.765 0 17.77-60.2 65.994-40.474z" fill="#4caf50"/><path d="M146.917 120.776c-43.15-42.996-64.5 40.474-64.5 40.474S46.583 86 25.083 75.25c27.922 26.81 25.084 86 55.84 86 33.744 0 19.41-68.083 65.994-40.474z" fill="#388e3c"/></g></svg>