<svg xmlns="http://www.w3.org/2000/svg" width="48" height="48" viewBox="0 0 172 172"><g fill="none" stroke-miterlimit="10" font-family="none" font-weight="none" font-size="none" text-anchor="none" style="mix-blend-mode:normal"><path d="M0 172V0h172v172z"/><path d="M70.789 46.046l-13.316-3.45-6.658-1.724-3.329-.864-2.046-.523a14.74 14.74 0 01-2.05-.867c-2.533-1.283-4.737-3.154-6.306-5.454-1.577-2.3-2.408-4.938-2.623-7.464-.262-2.577.211-4.938.476-7.16l.448-3.411.03-.215.006-.054.004-.025.003-.014c.362-.011-.813 0 .814.003l-.015.108-.057.426-.11.85-.227 1.709-.222-1.706-.115-.85-.053-.426-.015-.107c1.624-.004.452-.014.814-.004l.003.015.004.025.007.053.029.215.448 3.412c.319 2.307.494 4.536 1.243 6.425 1.369 3.902 4.512 6.314 7.973 6.955.416.075.86.14 1.204.14.029 0 .093.003.079-.007l-.007-.011.028.003c-.38-.06-.09-.018-.168-.032h.104l.43-.003.86-.008 3.436-.028 6.88-.05 13.753-.104zm28.666-14.222l13.753.103 6.88.05 3.437.03.86.007.43.003h.104c-.076.014.215-.029-.169.032l.029-.003-.007.007c-.015.01.053.007.079.007.344 0 .788-.064 1.204-.14 3.461-.645 6.604-3.056 7.972-6.955.75-1.888.925-4.117 1.244-6.425l.448-3.411.028-.215.008-.054.003-.025.004-.014c.362-.011-.814 0 .813.003l-.014.108-.057.426-.112.85-.225 1.709-.226-1.706-.111-.85-.057-.426-.015-.107c1.623-.004.452-.014.814-.004l.003.015.004.025.007.053.029.215.448 3.412c.265 2.221.738 4.583.476 7.16-.215 2.526-1.046 5.163-2.62 7.46-1.569 2.304-3.773 4.17-6.306 5.454-.649.326-1.286.612-2.05.867l-2.046.523-3.329.864-6.657 1.723-13.316 3.45z" fill="#ffd54f"/><path d="M121.833 64.5s-.3-6.572 2.989-6.572c3.282 0 3.282 6.572 13.136 6.572 9.855 0 19.709-13.147 19.709-16.426 0-3.282-13.137-6.575-19.709-6.575-6.571 0-13.136 6.575-16.426 6.575-3.282 0-17.615-12.24-17.615-12.24H68.083s-14.333 12.24-17.615 12.24c-3.29 0-9.855-6.575-16.426-6.575-6.572 0-19.709 3.293-19.709 6.575 0 3.279 9.855 16.426 19.709 16.426s9.854-6.572 13.136-6.572c3.29 0 2.989 6.572 2.989 6.572z" fill="#5d4037"/><path d="M114.667 46.583H57.333s-7.166 7.167-7.166 14.334c0 17.916 14.333 71.666 17.916 75.25 1.269 1.268 7.167 1.791 14.334 1.343 7.166.448 20.231-.075 21.5-1.343 3.583-3.584 17.916-60.917 17.916-75.25 0-7.167-7.166-14.334-7.166-14.334z" fill="#795548"/><path d="M96.75 25.083h-21.5c-7.916 0-10.75 7.167-14.333 14.334l-3.584 7.166S75.25 60.917 75.25 96.75c0 10.75-6.593 32.633-7.167 35.833h35.834c-.574-3.2-8.127-25.083-8.127-35.833 0-35.833 18.877-50.167 18.877-50.167l-3.584-7.166c-3.583-7.167-6.417-14.334-14.333-14.334z" fill="#cfd8dc"/><path d="M103.917 152.292a5.372 5.372 0 01-5.365 5.375H73.448a5.372 5.372 0 01-5.365-5.375 5.372 5.372 0 015.365-5.375h25.104a5.372 5.372 0 015.365 5.375z" fill="#78909c"/><path d="M107.5 146.917a3.58 3.58 0 01-3.583 3.583H68.083a3.58 3.58 0 01-3.583-3.583l3.583-14.334c.506-2.24 2.129-7.166 7.167-7.166h21.5c4.87 0 6.497 4.816 7.167 7.166z" fill="#b0bec5"/><path d="M93.167 139.75c0-1.982 7.166-7.167 7.166-7.167v7.167a3.58 3.58 0 01-3.583 3.583 3.58 3.58 0 01-3.583-3.583zm-14.334 0c0-1.982-7.166-7.167-7.166-7.167v7.167a3.58 3.58 0 003.583 3.583 3.58 3.58 0 003.583-3.583z" fill="#455a64"/><path d="M114.63 72.652a10.273 10.273 0 01-.58-3.426c0-3.124 1.373-5.851 3.422-7.414-2.977 1.15-6.389 3.799-6.389 9.855 0 0 1.663.358 3.605 1.007l-.057-.022zm-57.43 0c.373-1.053.581-2.21.581-3.426 0-3.124-1.372-5.851-3.422-7.414 2.978 1.15 6.39 3.799 6.39 9.855 0 0-1.663.358-3.606 1.007.018-.008.04-.015.058-.022z" fill="#fff"/><path d="M121.833 60.917s-2.05 0-4.36.896c-2.05 1.565-3.423 4.289-3.423 7.413 0 1.215.208 2.373.58 3.426 1.853.613 3.975 1.494 5.186 2.598 1.272-1.043 7.17-7.84 2.017-14.333zm-71.835 0s2.05 0 4.361.896c2.05 1.565 3.422 4.289 3.422 7.413 0 1.215-.208 2.373-.58 3.426-1.853.613-3.974 1.494-5.185 2.598-1.272-1.043-7.167-7.84-2.018-14.333z" fill="#263238"/></g></svg>