<svg xmlns="http://www.w3.org/2000/svg" width="48" height="48" viewBox="0 0 172 172"><g fill="none" stroke-miterlimit="10" font-family="none" font-weight="none" font-size="none" text-anchor="none" style="mix-blend-mode:normal"><path d="M0 172V0h172v172z"/><path d="M121.783 20.454c-5.55 18.074-19.049 35.94-42.143 59.186-23.25 23.094-41.112 36.593-59.186 42.143-8.87 2.723-7.84 15.573 1.422 17.874.828.204 1.674.412 2.544.616 32.52 7.719 67.116.96 91.637-21.665l.093.094c.43-.43.814-.886 1.23-1.323.436-.419.891-.802 1.321-1.229l-.093-.093c22.625-24.52 29.387-59.118 21.665-91.637a343.72 343.72 0 00-.616-2.544c-2.3-9.266-15.15-10.291-17.874-1.422z" fill="#e67e22"/><path d="M146.917 43c0 28.068-8.306 56.226-29.742 77.662C96.56 141.276 70.771 150.5 43 150.5l-10.75-39.417 78.833-78.833z" fill="#ff9800"/><path d="M154.083 78.5c-4.117 18.013-13.2 35.181-27.255 49.231-13.125 13.126-28.9 21.902-45.655 26.352L44.48 91.701l48.894-48.895z" fill="#ffb74d"/><path d="M146.917 118.465c-3.81 5.97-8.339 11.581-13.538 16.78a99.537 99.537 0 01-13.742 11.478L53.75 75.057l21.5-21.5z" fill="#ffcc80"/></g></svg>