<svg xmlns="http://www.w3.org/2000/svg" width="48" height="48" viewBox="0 0 172 172"><g fill="none" stroke-miterlimit="10" font-family="none" font-weight="none" font-size="none" text-anchor="none" style="mix-blend-mode:normal"><path d="M0 172V0h172v172z"/><path d="M45.508 161.25c-19.35 0-34.758-15.767-34.758-34.758 0-27.234 16.483-33.325 33.683-39.417 8.959-3.225 18.634-6.45 27.234-13.258 6.45-4.659 12.183-10.392 17.916-16.484 7.525-8.241 13.259-12.9 14.334-14.333.716-1.075 10.033-5.375 10.75-4.658 0 0 15.05-5.017 25.083 4.658 10.033 9.675 7.167 27.592 7.167 28.667-3.584 37.266-50.167 89.583-101.409 89.583z" fill="#4a148c"/><path d="M154.083 10.75l7.167 7.167s-7.883 13.616-14.333 21.5c5.016 6.45 11.108 17.2 3.583 35.833-7.525-2.15-14.333-17.917-14.333-17.917s-4.3 5.375-17.917 7.167c-1.075-13.258 3.583-17.917 3.583-17.917s-16.483 1.434-21.5-3.583c0 0 10.034-18.992 35.834-10.75 10.033-7.167 17.916-21.5 17.916-21.5z" fill="#4caf50"/><path d="M25.083 129c-1.791 0-3.225-1.075-3.583-2.867 0-.716-2.508-15.408 20.067-25.441l7.525-3.225C67.367 89.583 86 81.342 101.408 62.35c1.075-1.433 3.584-1.792 5.017-.717 1.433 1.075 1.792 3.584.717 5.017-16.484 20.425-36.909 29.383-54.825 37.267-2.509 1.075-5.017 2.15-7.167 3.225-17.558 7.525-16.483 17.2-16.483 17.558.358 1.792-1.075 3.583-2.867 3.942-.358.358-.717.358-.717.358z" fill="#9575cd"/></g></svg>