<svg xmlns="http://www.w3.org/2000/svg" width="48" height="48" viewBox="0 0 172 172"><g fill="none" stroke-miterlimit="10" font-family="none" font-weight="none" font-size="none" text-anchor="none" style="mix-blend-mode:normal"><path d="M0 172V0h172v172z"/><path d="M45.58 139.75l-2.365 9.46a6.405 6.405 0 01-6.235 4.873h-9.352c-2.939 0-5.483-2.006-6.2-4.873l-2.365-9.46zM81.413 139.75l-2.365 9.46a6.405 6.405 0 01-6.235 4.873h-9.352c-2.938 0-5.483-2.006-6.2-4.873l-2.364-9.46zM117.247 139.75l-2.365 9.46a6.405 6.405 0 01-6.235 4.873h-9.353c-2.938 0-5.482-2.006-6.199-4.873l-2.365-9.46zM153.08 139.75l-2.365 9.46a6.405 6.405 0 01-6.235 4.873h-9.352c-2.939 0-5.483-2.006-6.2-4.873l-2.365-9.46z" fill="#795548"/><path d="M150.5 143.333h-129c-7.916 0-14.333-6.417-14.333-14.333V53.75c0-7.916 6.417-14.333 14.333-14.333h129c7.916 0 14.333 6.417 14.333 14.333V129c0 7.916-6.417 14.333-14.333 14.333z" fill="#8d6e63"/><path d="M150.5 136.167h-129c-7.916 0-14.333-6.418-14.333-14.334v-75.25c0-7.915 6.417-14.333 14.333-14.333h129c7.916 0 14.333 6.418 14.333 14.333v75.25c0 7.916-6.417 14.334-14.333 14.334z" fill="#a1887f"/><path d="M32.25 50.167c-12.47 0-14.333-7.382-14.333-11.546 0-9.32 6.614-20.704 14.333-20.704 7.718 0 14.333 11.384 14.333 20.704 0 4.164-1.863 11.546-14.333 11.546zM68.083 50.167c-12.47 0-14.333-7.382-14.333-11.546 0-9.32 6.615-20.704 14.333-20.704 7.719 0 14.334 11.384 14.334 20.704 0 4.164-1.864 11.546-14.334 11.546zM103.917 50.167c-12.47 0-14.334-7.382-14.334-11.546 0-9.32 6.615-20.704 14.334-20.704 7.718 0 14.333 11.384 14.333 20.704 0 4.164-1.863 11.546-14.333 11.546zM139.75 50.167c-12.47 0-14.333-7.382-14.333-11.546 0-9.32 6.614-20.704 14.333-20.704 7.718 0 14.333 11.384 14.333 20.704 0 4.164-1.863 11.546-14.333 11.546zM32.25 89.583c-12.47 0-14.333-7.381-14.333-11.545 0-9.32 6.614-20.705 14.333-20.705 7.718 0 14.333 11.385 14.333 20.705 0 4.164-1.863 11.545-14.333 11.545zM68.083 89.583c-12.47 0-14.333-7.381-14.333-11.545 0-9.32 6.615-20.705 14.333-20.705 7.719 0 14.334 11.385 14.334 20.705 0 4.164-1.864 11.545-14.334 11.545zM103.917 89.583c-12.47 0-14.334-7.381-14.334-11.545 0-9.32 6.615-20.705 14.334-20.705 7.718 0 14.333 11.385 14.333 20.705 0 4.164-1.863 11.545-14.333 11.545zM139.75 89.583c-12.47 0-14.333-7.381-14.333-11.545 0-9.32 6.614-20.705 14.333-20.705 7.718 0 14.333 11.385 14.333 20.705 0 4.164-1.863 11.545-14.333 11.545zM32.25 129c-12.47 0-14.333-7.382-14.333-11.546 0-9.32 6.614-20.704 14.333-20.704 7.718 0 14.333 11.384 14.333 20.704 0 4.164-1.863 11.546-14.333 11.546zM68.083 129c-12.47 0-14.333-7.382-14.333-11.546 0-9.32 6.615-20.704 14.333-20.704 7.719 0 14.334 11.384 14.334 20.704 0 4.164-1.864 11.546-14.334 11.546zM103.917 129c-12.47 0-14.334-7.382-14.334-11.546 0-9.32 6.615-20.704 14.334-20.704 7.718 0 14.333 11.384 14.333 20.704 0 4.164-1.863 11.546-14.333 11.546zM139.75 129c-12.47 0-14.333-7.382-14.333-11.546 0-9.32 6.614-20.704 14.333-20.704 7.718 0 14.333 11.384 14.333 20.704 0 4.164-1.863 11.546-14.333 11.546z" fill="#b3e5fc"/></g></svg>