<svg xmlns="http://www.w3.org/2000/svg" width="48" height="48" viewBox="0 0 172 172"><g fill="none" stroke-miterlimit="10" font-family="none" font-weight="none" font-size="none" text-anchor="none" style="mix-blend-mode:normal"><path d="M0 172V0h172v172z"/><path d="M157.667 64.5V50.167h-35.834V14.333H107.5v35.834H93.167V14.333H78.833v35.834H64.5V14.333H50.167v35.834H14.333V64.5h35.834v14.333H14.333v14.334h35.834V107.5H14.333v14.333h35.834v35.834H64.5v-35.834h14.333v35.834h14.334v-35.834H107.5v35.834h14.333v-35.834h35.834V107.5h-35.834V93.167h35.834V78.833h-35.834V64.5z" fill="#ff9800"/><path d="M28.667 43v86c0 7.883 6.45 14.333 14.333 14.333h86c7.883 0 14.333-6.45 14.333-14.333V43c0-7.883-6.45-14.333-14.333-14.333H43c-7.883 0-14.333 6.45-14.333 14.333z" fill="#4caf50"/><path d="M111.083 111.083H60.917c-3.942 0-7.167-3.225-7.167-7.166V68.083c0-3.941 3.225-7.166 7.167-7.166h50.166c3.942 0 7.167 3.225 7.167 7.166v35.834c0 3.941-3.225 7.166-7.167 7.166z" fill="#37474f"/></g></svg>