<svg xmlns="http://www.w3.org/2000/svg" width="48" height="48" viewBox="0 0 172 172"><g fill="none" stroke-miterlimit="10" font-family="none" font-weight="none" font-size="none" text-anchor="none" style="mix-blend-mode:normal"><path d="M0 172V0h172v172z"/><path d="M86 172c-2.15 0-3.583-1.433-3.583-3.583V14.333c0-2.15 1.433-3.583 3.583-3.583 2.15 0 3.583 1.433 3.583 3.583v154.084c0 2.15-1.433 3.583-3.583 3.583z" fill="#455a64"/><path d="M93.167 7.167L86 168.417 78.833 7.167C78.475 3.225 81.7 0 85.642-.358c3.941 0 7.166 2.866 7.525 6.808v.717z" fill="#546e7a"/><path d="M46.583 75.25v.717c0 26.158 21.5 67.366 39.417 67.366s39.417-41.208 39.417-67.366v-.717z" fill="#e0dddc"/><path d="M46.583 75.967c0 2.15 0 4.3.359 6.45h78.116c.359-2.15.359-4.3.359-6.45 0-3.942-.359-7.884-1.075-11.467H47.658c-.716 3.583-1.075 7.525-1.075 11.467z" fill="#546e7a"/><path d="M124.342 64.5C120.758 44.075 107.858 28.667 86 28.667c-21.858 0-35.117 15.408-38.342 35.833z" fill="#ff754c"/></g></svg>