<svg xmlns="http://www.w3.org/2000/svg" width="48" height="48" viewBox="0 0 172 172"><g fill="none" stroke-miterlimit="10" font-family="none" font-weight="none" font-size="none" text-anchor="none" style="mix-blend-mode:normal"><path d="M0 172V0h172v172z"/><path d="M44.767 89.988c.14-3.716-1.63-7.571-5.35-7.571-10.75 0-17.917-21.5-17.917-21.5s-4.5 6.027-7.68 14.157c6.72 5.86 18.068 13.71 30.964 14.405.004.172-.01.34-.017.51zM21.5 118.25s7.167-21.5 17.917-21.5c3.44 0 5.21-3.304 5.35-6.74-11.374 2.716-23.7 9.528-30.975 14.007 3.179 8.174 7.708 14.233 7.708 14.233z" fill="#5c6bc0"/><path d="M44.785 89.48c-12.9-.692-24.249-8.547-30.964-14.406 0 .008-.004.015-.007.03a52.208 52.208 0 00-1.18 3.339c-.006.028-.017.054-.024.079a45.149 45.149 0 00-.94 3.465c-.028.129-.05.254-.074.38-.212.97-.38 1.952-.516 2.938-.04.286-.08.573-.111.86a29.536 29.536 0 00-.219 3.418c0 1.133.086 2.269.211 3.394.033.294.072.58.112.87.132.968.297 1.928.501 2.874.032.147.058.294.09.437a45.4 45.4 0 00.928 3.444c0 .01.003.018.007.032a53.124 53.124 0 001.19 3.38c7.274-4.476 19.6-11.288 30.974-14.004v-.022c.01-.168.025-.337.021-.509z" fill="#1a237e"/><path d="M126.011 49.572S100.334 32.25 68.084 32.25c-28.666 0-29.562 13.215-28.666 17.917.67 3.518 10.75 25.083 0 32.25z" fill="#f9a825"/><path d="M39.417 89.583c10.75 7.167.483 28.7 0 32.25-.674 4.927 0 17.917 28.666 17.917 32.25 0 57.929-17.315 57.929-17.315z" fill="#ffc107"/><path d="M160.2 89.332s-13.832-5.92-20.529-20.869C134.451 53.27 123.281 43 103.917 43c-35.834 0-53.75 32.25-64.5 39.417 0 0-3.584 3.497-3.584 7.166 0 2.763 3.584 7.167 3.584 7.167 10.75 7.167 25.083 35.833 53.75 35.833 43.3 0 67.033-38.184 67.033-38.184a3.58 3.58 0 000-5.066z" fill="#ffc107"/><path d="M160.2 89.332s-13.832-5.92-20.529-20.869C134.451 53.27 123.281 43 103.917 43c-35.834 0-53.75 32.25-64.5 39.417 0 0-3.584 3.497-3.584 7.166 0 2.763 3.584 7.167 3.584 7.167 10.75 7.167 25.083 35.833 53.75 35.833 43.3 0 67.033-38.184 67.033-38.184a3.58 3.58 0 000-5.066z" fill="#ffc107"/><path d="M47.544 119.132c.129-2.796.892-8.357.215-14.38a124.427 124.427 0 00-3.62-3.881c-.146 8.646-4.63 18.626-4.722 20.962-.226 5.601 0 17.917 28.666 17.917.527 0 1.036-.043 1.56-.05-19.405-.538-22.386-14.283-22.1-20.568zm-8.127-36.715c2.483-1.656 5.375-4.684 8.757-8.31 3.652-7.11 1.706-15.326.649-18.791-2.465-8.063 2.179-22.389 21.077-23.009-.61-.007-1.204-.057-1.817-.057-28.666 0-30.01 12.99-28.666 17.917.942 3.458 10.75 25.083 0 32.25zm114.892 3.415c-3.078-1.96-12.599-14.058-20.98-14.058-11.496 0-15.079 21.393-15.079 21.393s10.08 17.3 12.71 28.835c6.156-3.96 7.446-4.59 10.08-6.945.867-3.898 1.677-21.217 13.27-29.225z" fill="#3f51b5"/><path d="M139.75 82.417a3.583 3.583 0 100 7.166 3.583 3.583 0 000-7.166z" fill="#000"/><path d="M60.437 118.132l-3.104-39.299-2.648 33.562a114.35 114.35 0 005.752 5.737zm12.014 8.88l-4.368-55.345-3.923 49.683c2.565 2.085 5.324 4.002 8.291 5.661zm6.382-60.118l-4.816 60.999a42.662 42.662 0 009.919 3.605zm16.129 65.64c3.702-.09 7.26-.449 10.671-1.05l-5.3-74.15zm-5.379-71.617l-5.3 70.652c2.81.62 5.748 1.014 8.884 1.014.605 0 1.19-.035 1.788-.05zm21.5-7.167l-5.375 77.644h.423a72.81 72.81 0 0010.145-2.63z" fill="#ff9100"/></g></svg>