<svg xmlns="http://www.w3.org/2000/svg" width="48" height="48" viewBox="0 0 172 172"><g fill="none" stroke-miterlimit="10" font-family="none" font-weight="none" font-size="none" text-anchor="none" style="mix-blend-mode:normal"><path d="M0 172V0h172v172z"/><path d="M153.059 132.135c4.045-2.103 8.191-4.253 8.191-8.51s-4.146-6.407-8.191-8.51c-16.38-8.51-28.667-25.532-59.38-25.532-26.011 0-47.096 15.24-47.096 34.042s21.085 34.042 47.096 34.042c30.713 0 43-17.021 59.38-25.532z" fill="#d84315"/><ellipse cx="26.5" cy="36.5" transform="scale(3.58333)" rx="7.5" ry="3.5" fill="#f4511e"/><path d="M141.57 16.096c-2.97-2.97-7.37-1.58-11.663-.222-17.383 5.497-37.851 2.19-59.301 23.64-18.164 18.163-22.245 43.533-9.116 56.663 13.13 13.129 38.5 9.048 56.663-9.116 21.45-21.45 18.143-41.918 23.64-59.3 1.358-4.294 2.748-8.694-.223-11.665z" fill="#ef6c00"/><path d="M109.062 34.271c-5.02-5.02-17.809-.37-28.57 10.388-10.757 10.757-15.408 23.55-10.388 28.57s17.81.37 28.567-10.388c10.757-10.757 15.412-23.55 10.391-28.57z" fill="#ff8f00"/><path d="M53.302 36.858c-2.103-4.045-4.253-8.191-8.51-8.191s-6.407 4.146-8.51 8.191C27.77 53.238 10.75 65.525 10.75 96.238c0 26.011 15.24 47.095 34.042 47.095 18.801 0 34.041-21.084 34.041-47.095 0-30.713-17.02-43-25.53-59.38z" fill="#f9a825"/><ellipse cx="9.5" cy="26.5" transform="scale(3.58333)" rx="3.5" ry="7.5" fill="#ffc107"/></g></svg>