<svg xmlns="http://www.w3.org/2000/svg" width="48" height="48" viewBox="0 0 172 172"><g fill="none" stroke-miterlimit="10" font-family="none" font-weight="none" font-size="none" text-anchor="none" style="mix-blend-mode:normal"><path d="M0 172V0h172v172z"/><path d="M148.708 133.3s-5.016-2.15-7.525-12.9c-2.508-10.75-3.941-48.375-20.066-51.6C114.308 75.25 98.542 78.833 86 78.833c-12.542 0-28.308-3.583-35.117-10.033-16.125 3.225-17.558 40.85-20.066 51.6-2.509 10.75-7.525 12.9-7.525 12.9-1.075.358-1.792 1.433-1.792 2.867 0 .716 0 1.075.358 1.075.359.716.717 1.075 1.075 1.433 0 0 16.484 11.467 63.067 11.467s63.067-11.467 63.067-11.467c.358-.358 1.075-1.075 1.075-1.433 0-.359.358-.717.358-1.075 0-1.434-.717-2.509-1.792-2.867z" fill="#ffb300"/><path d="M39.775 42.642s8.958 11.825 11.108 22.216c1.434 5.734 8.6 13.975 35.117 13.975 26.517 0 32.967-10.033 28.667-7.166-.717.358 11.466-5.734 17.916-21.5z" fill="#ffb300"/><path d="M86.358 82.417h-.716c-12.542 0-29.384-3.584-37.267-11.109-1.433-1.433-1.433-3.583 0-5.016 1.433-1.434 3.583-1.434 5.017 0C58.767 71.667 73.1 75.25 86 75.25h.358c13.259 0 26.875-3.942 32.25-8.958 1.434-1.434 3.584-1.434 5.017 0 1.433 1.433 1.433 3.583 0 5.016-7.883 7.525-24.725 11.109-37.267 11.109z" fill="#795548"/><path d="M57.333 143.333c-2.15 0-3.583-1.433-3.583-3.583v-7.167c0-11.108 0-20.783 1.792-32.608.716-4.658 1.791-8.6 2.866-12.542 0-.358.359-1.075.359-1.433 1.075-4.658 2.508-8.6 5.375-10.75 1.791-1.075 3.583-1.433 5.375-.717 3.941 1.434 6.808 7.167 9.675 19.35v.359c2.866 11.466 3.225 21.5 3.225 35.116 0 2.15-1.434 3.584-3.584 3.584-2.15 0-3.583-1.792-3.583-3.584 0-12.9-.358-22.575-3.225-33.325v-.358c-2.15-8.6-3.942-12.183-4.658-13.258-.717 1.433-1.434 4.3-1.792 5.375-.358.716-.358 1.433-.358 1.791-1.075 3.584-1.792 7.167-2.509 11.467-2.15 11.108-1.791 20.425-1.791 31.533v7.167c0 2.15-1.434 3.583-3.584 3.583z" fill="#795548"/><path d="M132.583 46.583c7.167 16.484-3.225 25.084-25.083 25.084-21.858 0-68.083-20.067-68.083-30.817S53.75 21.5 86 21.5c21.858 0 42.283 15.408 46.583 25.083z" fill="#ff9800"/><path d="M117.892 66.292c-2.509-11.109-13.259-26.875-17.559-26.875-2.866 0-6.45 4.658-10.75 3.583-5.016-1.433-10.75-10.75-13.975-10.75-5.016 0-13.258 13.617-17.916 24.367 13.258 6.808 31.175 13.258 44.075 14.691 1.791.359 11.825 0 16.125-5.016z" fill="#fff"/><path d="M103.917 50.167c0 2.15-1.434 3.583-3.584 3.583-2.15 0-3.583-1.433-3.583-3.583 0-2.15 1.433-3.584 3.583-3.584 2.15 0 3.584 1.434 3.584 3.584zm3.583 10.75c0 2.15-1.433 3.583-3.583 3.583-2.15 0-3.584-1.433-3.584-3.583 0-2.15 1.434-3.584 3.584-3.584 2.15 0 3.583 1.434 3.583 3.584z" fill="#bdbdbd"/></g></svg>