<svg xmlns="http://www.w3.org/2000/svg" width="48" height="48" viewBox="0 0 172 172"><g fill="none" stroke-miterlimit="10" font-family="none" font-weight="none" font-size="none" text-anchor="none" style="mix-blend-mode:normal"><path d="M0 172V0h172v172z"/><path d="M153.994 150.593c0 .358-.359.717-.359 1.075s-.716 1.075-1.078 1.433c0 0-16.39 11.732-62.974 11.732-25.083 0-42.745-3.282-52.703-6.163-9.923-2.881-14.04-5.755-14.04-5.755-.358-.358-.716-.717-1.071-1.433-.359 0-.359-.358-.359-1.075.004-1.433.72-2.508 1.796-2.863 0 0 5.02-2.143 7.543-12.89 1.802-7.808 2.698-34.468 6.948-50.299a67.834 67.834 0 011.007-3.476c.215-.716.469-1.433.72-2.114.935-2.544 3.271-6.84 3.594-7.163 10.74 7.181 34.027 10.793 46.569 10.815 12.542.018 35.837-3.537 46.598-10.686.322.323 2.644 4.626 3.572 7.17.251.681.498 1.398.713 2.115a67.6 67.6 0 011 3.475c4.203 15.846 5.031 42.506 6.812 50.321 2.494 10.754 3.924 12.91 3.924 12.91 1.075.363 1.791 1.438 1.788 2.871z" fill="#ffb300"/><path d="M141.474 84.495l-2.115.892c-.537.251-1.039.43-1.576.642-14.34 5.102-32.942 7.66-48.207 7.64-15.265-.022-33.859-2.624-48.15-7.77-.572-.214-1.074-.394-1.612-.648l-2.114-.9a67.834 67.834 0 011.007-3.475c.215-.717.47-1.433.72-2.114.936-2.545 3.272-6.84 3.594-7.163 10.74 7.18 34.028 10.793 46.57 10.814 12.541.018 35.836-3.537 46.597-10.685.323.322 2.645 4.626 3.573 7.17.25.68.498 1.397.713 2.114a70.448 70.448 0 011 3.483z" fill="#ff9800"/><path d="M119.203 163.332c-.946-.29-1.892-.58-2.798-.993-6.013-2.512-10.263-6.73-11.69-11.803-3.547-12.08 5.376-15.559 13.904-18.762 2.24-.9 4.615-1.76 6.762-2.82.702-.316 1.444-.75 2.146-1.061 9.715-4.956 20.565-10.625 29.577-.172 3.626 4.293 4.88 9.445 3.741 15.053-1.688 7.69-8.062 15.13-16.39 19.057-7.99 3.368-17.279 3.952-25.252 1.5z" fill="#8d6e63"/><path d="M134.751 74.136l-3.264 1.394c-.287.143-.61.25-.896.358a121.762 121.762 0 01-41.004 7.034 121.8 121.8 0 01-40.983-7.156c-.286-.108-.609-.215-.895-.358l-3.258-1.401c-8.593-5.999-11.724-20.264-8.56-27.499 1.691-3.902 6.708-5.65 12.122-6.468 4.694-.71 9.64-.666 12.972-.663l57.333.086c4.408.007 8.85-.021 12.828.484 5.734.688 10.389 2.415 12.245 6.719 3.142 7.238-.033 21.496-8.64 27.47z" fill="#ffb300"/><path d="M132.644 45.215c-.003 3.583-1.516 7.127-4.457 10.348l-.036.036c-4.666 5.189-13.022 9.478-24.492 11.36-.072 0-.108.035-.18.035h-.035c-4.193.71-8.815 1.097-13.832 1.09a89.046 89.046 0 01-11.073-.7c-2.4-.326-4.658-.723-6.804-1.229-7.916-1.802-14.111-4.823-18.336-8.445-4.436-3.77-6.762-8.181-6.755-12.624.004-1.72.47-3.44 1.37-5.05 1.002-.143 2.006-.247 3.01-.354 3.726-.355 7.345-.312 9.96-.308l57.334.086c3.942.007 7.883-.025 11.503.376.465 0 .895.072 1.325.111.964 1.68 1.502 3.44 1.498 5.267z" fill="#ff9800"/><path d="M94.66 46.322c-7.743 1.093-16.178-1.25-21.642-5.97-3.924-3.487-6.006-7.765-6.028-12.545.072-11.721 10.47-12.75 19.716-13.757.641-.104 1.38-.143 2.025-.247 2.024-.247 4.085-.745 6.077-1.15 7.468-1.706 15.35-3.4 19.83 6.926 1.92 4.308 1.487 9.324-1.082 13.947-.37.72-.831 1.372-1.294 2.024-3.906 5.497-10.399 9.439-17.601 10.772z" fill="#8d6e63"/><path d="M96.743 67.772a62.75 62.75 0 01-5.841.28c-.434.031-.864.031-1.294.031a91.013 91.013 0 01-8.456-.405s-.036.036-.072 0c-.86-.071-1.72-.182-2.544-.29a84.758 84.758 0 01-3.19-.505c.581-5.375 5.14-9.56 10.693-9.553 5.845.007 10.568 4.637 10.704 10.442z" fill="#4e342e"/><path d="M94.865 52.718c-.365 4.658-2.63 8.632-6.647 11.6a7.585 7.585 0 01-1.147.748c-1.755 1.143-3.766 2-5.916 2.609 0 0-.035.036-.071 0a56.25 56.25 0 01-2.544-.29c-2.401-.326-4.659-.724-6.805-1.23-7.916-1.802-14.111-4.823-18.336-8.445-1.075-.932-2.04-1.867-2.9-2.87 0 0 0-.036-.035-.072-.215-.394-.43-.824-.605-1.254-2.143-4.77-2.244-9.68-.122-13.689.036 0 .036-.036.036-.036 4.995-9.596 12.409-7.113 19.464-4.701 1.864.613 3.83 1.297 5.73 1.763.61.18 1.326.29 1.935.434 2.723.612 5.55 1.225 8.13 2.125 2.688.935 5.121 2.157 6.873 4.06 2.075 2.117 3.215 5.056 2.96 9.248z" fill="#5d4037"/><path d="M129.516 51.693c-.143.789-.398 1.505-.649 2.258-.179.537-.358 1.039-.648 1.54 0 .036 0 .036-.036.072l-.036.036c-4.665 5.189-13.022 9.478-24.492 11.36-.072 0-.107.035-.18.035h-.035a79.514 79.514 0 01-12.542 1.057 15.904 15.904 0 01-3.83-2.981 15.215 15.215 0 01-3.644-6.06c-2.57-8.317 2.275-12.502 8.478-15.537 2.006-1 4.16-1.856 6.238-2.713.61-.25 1.29-.498 1.864-.784.394-.18.824-.359 1.218-.538 1.433-.641 2.87-1.465 4.232-2.179 6.636-3.608 13.627-7.36 20.962 1.108.359.43.717.86 1 1.29 2.33 3.364 3.039 7.632 2.1 12.036z" fill="#795548"/><circle cx="29" cy="6" transform="scale(3.58333)" r="1" fill="#795548"/><circle cx="27" cy="9" transform="scale(3.58333)" r="1" fill="#795548"/><circle cx="25.5" cy="6.5" transform="scale(3.58333)" r=".5" fill="#795548"/><path d="M160.856 142.76c-1.684 7.704-8.063 15.158-16.412 19.063-4.73 1.971-9.89 3.01-14.942 3.01-3.548 0-7.024-.501-10.285-1.505-.967-.286-1.899-.573-2.795-1.003-6.02-2.508-10.284-6.7-11.717-11.79a22.708 22.708 0 01-.717-3.44c5.913 6.45 14.907 10.572 25.012 10.572 15.73 0 28.81-9.998 31.677-23.256.68 2.616.752 5.446.179 8.349z" fill="#795548"/><circle cx="41" cy="37" transform="scale(3.58333)" r="1" fill="#5d4037"/><circle cx="37" cy="38" transform="scale(3.58333)" r="1" fill="#5d4037"/><circle cx="39.5" cy="40.5" transform="scale(3.58333)" r=".5" fill="#5d4037"/><circle cx="34.5" cy="40.5" transform="scale(3.58333)" r=".5" fill="#5d4037"/></g></svg>