<svg xmlns="http://www.w3.org/2000/svg" width="48" height="48" viewBox="0 0 172 172"><g fill="none" stroke-miterlimit="10" font-family="none" font-weight="none" font-size="none" text-anchor="none" style="mix-blend-mode:normal"><path d="M0 172V0h172v172z"/><path d="M99.975 54.825l-6.808-2.15c.716-1.433 12.183-34.758 43-34.758v7.166c-25.8 0-35.834 29.384-36.192 29.742z" fill="#e65100"/><path d="M107.5 40.133l-7.167-1.433 3.584.717-3.584-.717c.359-2.15 1.075-8.242-1.791-11.467-1.075-1.433-2.867-2.15-5.375-2.15-2.867 0-3.584 2.15-3.584 3.584 0 1.433.717 3.583 3.584 3.583v7.167c-7.884 0-10.75-6.45-10.75-10.75s2.866-10.75 10.75-10.75c6.091 0 9.316 2.508 11.108 4.658 5.017 6.45 3.225 16.483 3.225 17.558z" fill="#e65100"/><path d="M71.667 139.75c0 7.883-6.45 14.333-14.334 14.333-7.883 0-14.333-6.45-14.333-14.333s6.45-14.333 14.333-14.333c7.884 0 14.334 6.45 14.334 14.333z" fill="#9c27b0"/><path d="M68.083 114.667c0 7.883-6.45 14.333-14.333 14.333s-14.333-6.45-14.333-14.333c0-7.884 6.45-14.334 14.333-14.334s14.333 6.45 14.333 14.334z" fill="#9c27b0"/><path d="M93.167 125.417c0 7.883-6.45 14.333-14.334 14.333-7.883 0-14.333-6.45-14.333-14.333 0-7.884 6.45-14.334 14.333-14.334 7.884 0 14.334 6.45 14.334 14.334zM64.5 89.583c0 7.884-6.45 14.334-14.333 14.334-7.884 0-14.334-6.45-14.334-14.334 0-7.883 6.45-14.333 14.334-14.333 7.883 0 14.333 6.45 14.333 14.333z" fill="#9c27b0"/><path d="M89.583 100.333c0 7.884-6.45 14.334-14.333 14.334s-14.333-6.45-14.333-14.334C60.917 92.45 67.367 86 75.25 86s14.333 6.45 14.333 14.333z" fill="#9c27b0"/><path d="M114.667 111.083c0 7.884-6.45 14.334-14.334 14.334-7.883 0-14.333-6.45-14.333-14.334 0-7.883 6.45-14.333 14.333-14.333 7.884 0 14.334 6.45 14.334 14.333zM60.917 64.5c0 7.883-6.45 14.333-14.334 14.333-7.883 0-14.333-6.45-14.333-14.333s6.45-14.333 14.333-14.333c7.884 0 14.334 6.45 14.334 14.333z" fill="#9c27b0"/><path d="M86 75.25c0 7.883-6.45 14.333-14.333 14.333-7.884 0-14.334-6.45-14.334-14.333s6.45-14.333 14.334-14.333C79.55 60.917 86 67.367 86 75.25z" fill="#9c27b0"/><path d="M82.417 50.167c0 7.883-6.45 14.333-14.334 14.333-7.883 0-14.333-6.45-14.333-14.333 0-7.884 6.45-14.334 14.333-14.334 7.884 0 14.334 6.45 14.334 14.334zM111.083 86c0 7.883-6.45 14.333-14.333 14.333S82.417 93.883 82.417 86s6.45-14.333 14.333-14.333 14.333 6.45 14.333 14.333z" fill="#9c27b0"/><path d="M107.5 60.917c0 7.883-6.45 14.333-14.333 14.333-7.884 0-14.334-6.45-14.334-14.333 0-7.884 6.45-14.334 14.334-14.334 7.883 0 14.333 6.45 14.333 14.334zm28.667 35.833c0 7.883-6.45 14.333-14.334 14.333-7.883 0-14.333-6.45-14.333-14.333s6.45-14.333 14.333-14.333c7.884 0 14.334 6.45 14.334 14.333z" fill="#9c27b0"/><path d="M132.583 71.667c0 7.883-6.45 14.333-14.333 14.333s-14.333-6.45-14.333-14.333c0-7.884 6.45-14.334 14.333-14.334s14.333 6.45 14.333 14.334zm-82.058 68.441c0-3.941 3.225-7.166 7.167-7.166" fill="#9c27b0"/><path d="M50.525 143.692c-2.15 0-3.583-1.434-3.583-3.584 0-6.091 4.658-10.75 10.75-10.75 2.15 0 3.583 1.434 3.583 3.584 0 2.15-1.433 3.583-3.583 3.583-2.15 0-3.584 1.433-3.584 3.583 0 2.15-1.433 3.584-3.583 3.584z" fill="#ea80fc"/><path d="M46.942 115.025c0-3.942 3.225-7.167 7.166-7.167" fill="#9c27b0"/><path d="M46.942 118.608c-2.15 0-3.584-1.433-3.584-3.583 0-6.092 4.659-10.75 10.75-10.75 2.15 0 3.584 1.433 3.584 3.583 0 2.15-1.434 3.584-3.584 3.584-2.15 0-3.583 1.433-3.583 3.583 0 2.15-1.433 3.583-3.583 3.583z" fill="#ea80fc"/><path d="M72.025 125.775c0-3.942 3.225-7.167 7.167-7.167" fill="#9c27b0"/><path d="M72.025 129.358c-2.15 0-3.583-1.433-3.583-3.583 0-6.092 4.658-10.75 10.75-10.75 2.15 0 3.583 1.433 3.583 3.583 0 2.15-1.433 3.584-3.583 3.584-2.15 0-3.584 1.433-3.584 3.583 0 2.15-1.433 3.583-3.583 3.583z" fill="#ea80fc"/><path d="M43.358 89.942c0-3.942 3.225-7.167 7.167-7.167" fill="#9c27b0"/><path d="M43.358 93.525c-2.15 0-3.583-1.433-3.583-3.583 0-6.092 4.658-10.75 10.75-10.75 2.15 0 3.583 1.433 3.583 3.583 0 2.15-1.433 3.583-3.583 3.583-2.15 0-3.583 1.434-3.583 3.584 0 2.15-1.434 3.583-3.584 3.583z" fill="#ea80fc"/><path d="M68.442 100.692c0-3.942 3.225-7.167 7.166-7.167" fill="#9c27b0"/><path d="M68.442 104.275c-2.15 0-3.584-1.433-3.584-3.583 0-6.092 4.659-10.75 10.75-10.75 2.15 0 3.584 1.433 3.584 3.583 0 2.15-1.434 3.583-3.584 3.583-2.15 0-3.583 1.434-3.583 3.584 0 2.15-1.433 3.583-3.583 3.583z" fill="#ea80fc"/><path d="M93.525 111.442c0-3.942 3.225-7.167 7.167-7.167" fill="#9c27b0"/><path d="M93.525 115.025c-2.15 0-3.583-1.433-3.583-3.583 0-6.092 4.658-10.75 10.75-10.75 2.15 0 3.583 1.433 3.583 3.583 0 2.15-1.433 3.583-3.583 3.583-2.15 0-3.584 1.434-3.584 3.584 0 2.15-1.433 3.583-3.583 3.583z" fill="#ea80fc"/><path d="M39.775 64.858c0-3.941 3.225-7.166 7.167-7.166" fill="#9c27b0"/><path d="M39.775 68.442c-2.15 0-3.583-1.434-3.583-3.584 0-6.091 4.658-10.75 10.75-10.75 2.15 0 3.583 1.434 3.583 3.584 0 2.15-1.433 3.583-3.583 3.583-2.15 0-3.584 1.433-3.584 3.583 0 2.15-1.433 3.584-3.583 3.584z" fill="#ea80fc"/><path d="M64.858 75.608c0-3.941 3.225-7.166 7.167-7.166" fill="#9c27b0"/><path d="M64.858 79.192c-2.15 0-3.583-1.434-3.583-3.584 0-6.091 4.658-10.75 10.75-10.75 2.15 0 3.583 1.434 3.583 3.584 0 2.15-1.433 3.583-3.583 3.583-2.15 0-3.583 1.433-3.583 3.583 0 2.15-1.434 3.584-3.584 3.584z" fill="#ea80fc"/><path d="M61.275 50.525c0-3.942 3.225-7.167 7.167-7.167" fill="#9c27b0"/><path d="M61.275 54.108c-2.15 0-3.583-1.433-3.583-3.583 0-6.092 4.658-10.75 10.75-10.75 2.15 0 3.583 1.433 3.583 3.583 0 2.15-1.433 3.584-3.583 3.584-2.15 0-3.584 1.433-3.584 3.583 0 2.15-1.433 3.583-3.583 3.583z" fill="#ea80fc"/><path d="M89.942 86.358c0-3.941 3.225-7.166 7.166-7.166" fill="#9c27b0"/><path d="M89.942 89.942c-2.15 0-3.584-1.434-3.584-3.584 0-6.091 4.659-10.75 10.75-10.75 2.15 0 3.584 1.434 3.584 3.584 0 2.15-1.434 3.583-3.584 3.583-2.15 0-3.583 1.433-3.583 3.583 0 2.15-1.433 3.584-3.583 3.584z" fill="#ea80fc"/><path d="M86.358 61.275c0-3.942 3.225-7.167 7.167-7.167" fill="#9c27b0"/><path d="M86.358 64.858c-2.15 0-3.583-1.433-3.583-3.583 0-6.092 4.658-10.75 10.75-10.75 2.15 0 3.583 1.433 3.583 3.583 0 2.15-1.433 3.584-3.583 3.584-2.15 0-3.583 1.433-3.583 3.583 0 2.15-1.434 3.583-3.584 3.583z" fill="#ea80fc"/><path d="M115.025 97.108c0-3.941 3.225-7.166 7.167-7.166" fill="#9c27b0"/><path d="M115.025 100.692c-2.15 0-3.583-1.434-3.583-3.584 0-6.091 4.658-10.75 10.75-10.75 2.15 0 3.583 1.434 3.583 3.584 0 2.15-1.433 3.583-3.583 3.583-2.15 0-3.584 1.433-3.584 3.583 0 2.15-1.433 3.584-3.583 3.584z" fill="#ea80fc"/><path d="M111.442 72.025c0-3.942 3.225-7.167 7.166-7.167" fill="#9c27b0"/><path d="M111.442 75.608c-2.15 0-3.584-1.433-3.584-3.583 0-6.092 4.659-10.75 10.75-10.75 2.15 0 3.584 1.433 3.584 3.583 0 2.15-1.434 3.584-3.584 3.584-2.15 0-3.583 1.433-3.583 3.583 0 2.15-1.433 3.583-3.583 3.583z" fill="#ea80fc"/><path d="M65.575 127.925c1.433 2.15 2.508 5.017 2.508 8.242 0 7.883-6.45 14.333-14.333 14.333-3.225 0-5.733-1.075-8.242-2.508 2.509 3.583 6.809 6.091 11.825 6.091 7.884 0 14.334-6.45 14.334-14.333 0-5.017-2.509-9.317-6.092-11.825zm-3.583-25.083c1.433 2.15 2.508 5.016 2.508 8.241 0 7.884-6.45 14.334-14.333 14.334-3.225 0-5.734-1.075-8.242-2.509C44.433 126.492 48.733 129 53.75 129c7.883 0 14.333-6.45 14.333-14.333 0-5.017-2.508-9.317-6.091-11.825zm-3.584-25.084c1.434 2.15 2.509 5.017 2.509 8.242 0 7.883-6.45 14.333-14.334 14.333-3.225 0-5.733-1.075-8.241-2.508 2.508 3.583 6.808 6.092 11.825 6.092 7.883 0 14.333-6.45 14.333-14.334 0-5.016-2.508-9.316-6.092-11.825zm-3.583-25.083c1.433 2.15 2.508 5.017 2.508 8.242 0 7.883-6.45 14.333-14.333 14.333-3.225 0-5.733-1.075-8.242-2.508 2.509 3.583 6.809 6.091 11.825 6.091 7.884 0 14.334-6.45 14.334-14.333 0-5.017-2.509-9.317-6.092-11.825z" fill="#6a1b9a"/><path d="M76.325 38.342c1.433 2.15 2.508 5.016 2.508 8.241 0 7.884-6.45 14.334-14.333 14.334-1.433 0-2.867-.359-4.3-.717.358.717.358 1.433.358 2.15a12.92 12.92 0 007.167 2.15c7.883 0 14.333-6.45 14.333-14.333.359-5.017-2.15-9.317-5.733-11.825zm25.083 10.75c1.434 2.15 2.509 5.016 2.509 8.241 0 7.884-6.45 14.334-14.334 14.334-1.433 0-2.866-.359-4.3-.717.359.717.359 1.433.359 2.15a12.92 12.92 0 007.166 2.15c7.884 0 14.334-6.45 14.334-14.333.358-5.017-2.15-9.317-5.734-11.825z" fill="#6a1b9a"/><path d="M79.908 63.425c1.434 2.15 2.509 5.017 2.509 8.242C82.417 79.55 75.967 86 68.083 86c-1.433 0-2.866-.358-4.3-.717.359.717.359 1.434.359 2.15a12.92 12.92 0 007.166 2.15c7.884 0 14.334-6.45 14.334-14.333.358-5.017-2.15-9.317-5.734-11.825zm46.584-3.583c1.433 2.15 2.508 5.016 2.508 8.241 0 7.884-6.45 14.334-14.333 14.334-1.434 0-2.867-.359-4.3-.717.358.717.358 1.433.358 2.15a12.92 12.92 0 007.167 2.15c7.883 0 14.333-6.45 14.333-14.333.358-5.017-2.15-9.317-5.733-11.825zm3.583 25.083c1.433 2.15 2.508 5.017 2.508 8.242 0 7.883-6.45 14.333-14.333 14.333-1.433 0-2.867-.358-4.3-.717.358.717.358 1.434.358 2.15a12.92 12.92 0 007.167 2.15c7.883 0 14.333-6.45 14.333-14.333.359-5.017-2.15-9.317-5.733-11.825z" fill="#6a1b9a"/><path d="M104.992 74.175c1.433 2.15 2.508 5.017 2.508 8.242 0 7.883-6.45 14.333-14.333 14.333-1.434 0-2.867-.358-4.3-.717.358.717.358 1.434.358 2.15a12.92 12.92 0 007.167 2.15c7.883 0 14.333-6.45 14.333-14.333.358-5.017-2.15-9.317-5.733-11.825z" fill="#6a1b9a"/><path d="M83.492 88.508C84.925 90.658 86 93.525 86 96.75c0 7.883-6.45 14.333-14.333 14.333-1.434 0-2.867-.358-4.3-.716.358.716.358 1.433.358 2.15a12.92 12.92 0 007.167 2.15c7.883 0 14.333-6.45 14.333-14.334.358-5.016-2.15-9.316-5.733-11.825zm25.083 10.75c1.433 2.15 2.508 5.017 2.508 8.242 0 7.883-6.45 14.333-14.333 14.333-1.433 0-2.867-.358-4.3-.716.358.716.358 1.433.358 2.15a12.92 12.92 0 007.167 2.15c7.883 0 14.333-6.45 14.333-14.334.359-5.016-2.15-9.316-5.733-11.825z" fill="#6a1b9a"/><path d="M87.075 113.592c1.433 2.15 2.508 5.016 2.508 8.241 0 7.884-6.45 14.334-14.333 14.334-1.433 0-2.867-.359-4.3-.717.358.717.358 1.433.358 2.15a12.92 12.92 0 007.167 2.15c7.883 0 14.333-6.45 14.333-14.333.359-5.017-2.15-9.317-5.733-11.825z" fill="#6a1b9a"/></g></svg>