<svg xmlns="http://www.w3.org/2000/svg" width="48" height="48" viewBox="0 0 172 172"><g fill="none" stroke-miterlimit="10" font-family="none" font-weight="none" font-size="none" text-anchor="none" style="mix-blend-mode:normal"><path d="M0 172V0h172v172z"/><path d="M153.768 87.928l-37.295-32.436-32.397-37.346c-18.229.226-38.887 10.413-49.393 21.099-22.009 22.406-19.346 62.97-9.507 85.193.033.08.022.14.065.226 3.766 7.844-1.347 18.257 1.208 20.866.017.018.039.029.057.047.014.017.025.035.043.053 2.605 2.562 13.007-2.558 20.844 1.211.086.043.14.03.222.058 22.192 9.858 62.709 12.524 85.087-9.51 10.667-10.525 20.847-31.208 21.066-49.461z" fill="#e65100"/><path d="M76.96 39.18c-3.939.44-8.626 1.749-12.786 3.38a63.198 63.198 0 00-12.176 6.352c-3.741 2.534-7.622 5.612-10.335 8.952-2.899 3.465-5.188 7.539-6.994 11.864-3.584 8.697-5.26 18.315-5.92 27.96-.616 9.665-.312 19.466.99 29.151-2.13-9.55-3.287-19.343-3.505-29.211-.162-9.854.662-19.891 3.708-29.62 1.552-4.845 3.684-9.607 6.705-13.932 3.167-4.49 6.722-7.923 10.714-11.32a71.397 71.397 0 0112.975-8.589c4.73-2.39 9.342-4.34 15.032-5.615z" fill="#d84315"/><path d="M88.204 59.62c-6.622 1.963-13.642 5.335-19.77 9.374-3.095 2.053-6.048 4.303-8.79 6.85-2.594 2.427-5.038 5.333-7.195 8.397-4.343 6.17-7.797 13.115-10.674 20.3-2.856 7.202-5.2 14.662-6.884 22.298.803-7.786 2.283-15.523 4.332-23.152 2.086-7.614 4.78-15.146 8.658-22.277 1.956-3.576 4.174-6.98 6.94-10.241 2.656-3.1 5.633-5.977 8.772-8.622 6.39-5.285 13.126-9.657 21.164-13.108zm14.982 16.784l-65.712 58.19 58.104-65.79zm40.201 20.235c-1.268 5.687-3.21 10.295-5.597 15.028a71.668 71.668 0 01-8.564 12.986c-3.394 4-6.805 7.554-11.295 10.732-4.318 3.025-9.077 5.168-13.914 6.726-9.725 3.06-19.755 3.888-29.61 3.727-9.864-.211-19.65-1.372-29.196-3.5a147.759 147.759 0 0029.14.985c9.635-.663 19.25-2.344 27.939-5.938 4.318-1.81 8.381-4.106 11.843-7.009 3.325-2.72 6.4-6.608 8.922-10.352a63.28 63.28 0 006.336-12.184c1.623-4.16 2.927-8.85 3.364-12.785z" fill="#d84315"/><path d="M122.528 87.236c-3.44 8.034-7.808 14.774-13.075 21.17-2.637 3.14-5.511 6.124-8.604 8.783-3.257 2.77-6.657 4.995-10.226 6.952-7.124 3.888-14.653 6.593-22.264 8.679-7.621 2.057-15.358 3.547-23.14 4.35 7.632-1.688 15.092-4.035 22.287-6.898 7.178-2.885 14.115-6.346 20.279-10.693 3.06-2.157 5.959-4.611 8.38-7.202 2.542-2.752 4.785-5.705 6.834-8.804 4.028-6.131 7.393-13.155 9.35-19.777z" fill="#d84315"/><path d="M42.158 130.261c-6.705-6.6-13.825-11.46-19.855-13.928a47.422 47.422 0 002.877 8.392c.014.043.007.075.025.122 3.86 9.958-1.261 18.225 1.344 20.783 2.605 2.562 13.007-2.558 20.844 1.211.086.043.14.03.222.058a49.183 49.183 0 008.686 2.913c-2.522-5.934-7.446-12.96-14.143-19.55zM152.93 96.861c4.615-20.676-5.999-38.299-22.371-54.825L96.77 75.866c3.129-.14 17.756 2.54 17.756 17.777 9.481-4.733 17.755-2.54 25.363 10.159 5.038-11.857 13.04-6.94 13.04-6.94zM75.625 18.91c21.142-3.995 38.431 6.733 54.93 23.127l-33.788 33.83c.14-3.131-2.537-17.78-17.755-17.78 4.73-9.496 2.536-17.773-10.145-25.395 11.843-5.038 6.758-13.782 6.758-13.782z" fill="#fb8c00"/><path d="M120.024 48.343c-4.546-4.547-9.813-6.651-11.766-4.7-1.952 1.953.15 7.221 4.696 11.768 4.546 4.548 9.814 6.652 11.766 4.7 1.953-1.952-.15-7.22-4.696-11.768z" fill="#ef6c00"/></g></svg>