<svg xmlns="http://www.w3.org/2000/svg" width="48" height="48" viewBox="0 0 172 172"><g fill="none" stroke-miterlimit="10" font-family="none" font-weight="none" font-size="none" text-anchor="none" style="mix-blend-mode:normal"><path d="M0 172V0h172v172z"/><path d="M103.917 25.083C91.375 24.725 94.6 14.333 86 14.333c-8.6 0-5.375 10.392-17.917 10.75C57.692 25.442 53.75 43 53.75 43L86 125.417 118.25 43s-3.942-17.558-14.333-17.917z" fill="#689f38"/><path d="M71.667 161.25c-1.434-8.242 3.941-15.408-3.225-19.708-3.584-2.15-7.884-2.867-11.109-5.375-5.375-3.584-3.941-13.259-5.375-19.709-.358-1.075-.716-2.508-1.433-3.225-1.433-1.791-7.883-4.658-10.033-5.375-4.3-.716-7.167-3.941-8.242-7.525-1.075-3.941.358-8.241 0-12.183 0-5.017 1.433-6.45-2.15-10.033-2.508-2.15-5.375-3.584-7.167-6.45-3.225-5.017-1.075-14.334 4.3-17.2 2.867-1.434 6.45-1.792 8.6-8.242 1.792-5.733 1.792-7.525 3.584-13.258 1.433-4.659 6.091-7.884 10.75-8.242 4.658-.358 9.316 2.508 10.75 7.167 2.15 6.45 1.075 6.091 3.583 10.75 2.867 5.375 13.975 6.808 14.333 17.916 0 3.942-5.375 9.675-3.941 12.9.716 1.434 2.15 2.509 3.583 3.942 3.583 3.583 5.375 8.958 4.658 13.975-.358 2.867-1.791 5.733-2.15 8.958-.358 6.45 4.659 11.467 8.6 16.842 9.317 12.542 3.584 22.217 3.584 43.717 0 .358-21.5.358-21.5.358z" fill="#8bc34a"/><path d="M93.167 161.25c1.433-8.242 3.225-15.408 10.391-19.708 3.584-2.15 7.884-2.867 11.109-5.375 5.375-3.584 3.941-13.259 5.375-19.709.358-1.075.716-2.508 1.433-3.225 1.433-1.791 7.883-4.658 10.033-5.375 3.584-1.075 6.809-3.941 7.884-7.525 1.075-3.941-.359-8.241 0-12.183 0-5.017-1.434-6.45 2.15-10.033 2.508-2.15 5.375-3.584 7.166-6.45 3.225-5.017 1.075-14.334-4.3-17.2-2.866-1.434-6.45-3.584-8.6-8.242-2.508-5.375-1.791-7.525-3.583-13.258-1.433-4.659-6.092-7.884-10.75-8.242-4.658-.358-9.317 2.508-10.75 7.167-2.15 6.45-1.075 6.091-3.583 10.75-2.867 5.375-13.975 6.808-14.334 17.916 0 3.942 5.375 9.675 3.942 12.9-.717 1.434-2.15 2.509-3.583 3.942-3.584 3.583-5.375 8.958-4.659 13.975.359 2.867 1.792 5.733 2.15 8.958.359 6.45-4.658 11.467-8.6 16.842-9.316 12.542-10.75 22.217-10.75 43.717.359.358 21.859.358 21.859.358z" fill="#8bc34a"/><path d="M103.917 25.083c-10.034-.358-10.034-7.166-13.975-9.675 3.225 16.484 13.616 15.05 12.9 20.425-.359 1.434-.359 2.15-1.434 3.942-.358.358-2.15 1.792-3.225 2.508-4.3 2.867-11.466 7.884-11.825 18.634v0C86 50.167 78.833 45.508 74.533 42.283c-1.075-.716-2.866-1.791-3.225-2.508-1.075-1.792-1.433-2.15-1.433-3.942-.358-5.733 8.958-3.941 12.9-20.425-4.658 2.509-4.658 9.317-14.692 9.675-3.583 0-6.091 2.15-8.241 4.659.358.716.716 1.791 1.075 2.508 2.15 6.45 1.075 6.092 3.583 10.75 2.867 5.375 13.975 6.808 14.333 17.917 0 3.941-5.375 9.675-3.941 12.9.716 1.433 2.15 2.508 3.583 3.941 3.583 3.584 5.375 8.959 4.658 13.975-.358 2.867-1.791 5.734-2.15 8.959 0 2.15.359 3.941 1.075 5.733-12.183 12.542-10.391 38.342-10.033 40.133.717-12.183 3.583-19.708 10.392-29.025 1.075-1.433 2.508-2.866 3.583-4.658 2.867-3.583 5.375-7.525 5.017-12.183 0-3.225-1.434-6.092-2.15-8.959-.717-5.016.716-10.391 4.658-13.975 1.075-1.075 2.867-2.15 3.583-3.941 1.434-3.584-3.941-9.317-3.941-12.9C93.525 49.808 104.633 48.375 107.5 43c2.508-4.658 1.433-4.658 3.583-10.75.359-.717.717-1.792 1.075-2.508-2.15-2.509-4.658-4.659-8.241-4.659zM88.508 72.742c-1.075 1.075-1.791 1.791-2.508 2.866-.717-1.075-1.792-2.15-2.508-2.866l-1.075-1.075c.358-.717.716-1.075.716-1.792C84.567 67.367 86 64.5 86 61.275c0 3.225 1.433 6.092 2.867 8.6.358.358.716 1.075.716 1.792l-1.075 1.075z" fill="#558b2f"/><path d="M72.025 131.867c-.358-.717-.717-1.075-1.075-1.792-1.433-2.867-3.225-5.733-5.017-8.6-1.791-2.867-3.583-6.092-5.375-9.317-1.791-3.225-3.583-6.45-5.016-9.675-1.434-3.225-3.225-6.45-4.3-9.675-1.434-3.225-2.15-6.45-2.867-9.316-.717-2.867-1.075-6.092-1.433-8.6-.359-2.867-.359-5.375-.359-7.525-.358-2.15.359-3.942.359-5.734.358-3.225.358-5.016.358-5.016s0 1.791.358 5.016c0 1.434 0 3.584.359 5.375.358 2.15.716 4.659 1.433 7.167.717 2.508 1.433 5.375 2.508 8.242 1.075 2.866 2.15 5.733 3.942 8.6 1.433 2.866 3.225 5.733 5.017 8.6 1.791 2.866 3.941 5.733 6.091 8.6 2.15 2.866 4.3 5.733 6.45 8.241.717.717 1.075 1.434 1.792 2.15-.358 1.434-1.075 3.225-1.433 4.659V124.7c-.359.717-.359 1.792-.359 2.508 0 1.075-.358 2.15-.358 3.225-.717.359-.717 1.075-1.075 1.434zm17.558 29.383s0-1.792-.358-5.017c-.358-1.791 0-2.866.358-4.658 0-1.433.359-3.583 1.075-6.092.359-1.075.717-2.508 1.075-3.583.359-1.075.717-2.508 1.434-3.942 1.075-2.508 2.508-5.375 3.941-8.241 1.434-2.867 3.225-5.734 5.017-8.6 1.792-2.867 3.583-6.092 5.375-9.317 1.792-3.225 3.583-6.45 5.017-9.675 1.433-3.225 3.225-6.45 4.3-9.675 1.433-3.225 2.15-6.45 2.866-9.317.717-2.866 1.075-6.091 1.434-8.6.358-2.866.358-5.016.358-7.525.358-2.15-.358-3.941-.358-5.733-.359-3.225-.359-5.017-.359-5.017s0 1.792-.358 5.017c0 1.433 0 3.583-.358 5.375-.359 2.15-.717 4.658-1.434 7.167-.716 2.508-1.433 5.375-2.508 8.241-1.075 2.867-2.15 5.734-3.942 8.6-1.433 2.867-3.225 5.734-5.016 8.6-1.792 2.867-3.942 5.734-6.092 8.6-2.15 2.867-4.3 5.734-6.45 8.242-2.15 2.867-4.3 5.375-6.45 8.242-2.15 2.866-3.942 5.733-5.375 8.6l-2.15 4.3c-.717 1.433-1.433 2.866-1.792 4.3-1.075 2.866-2.15 5.375-2.508 7.883-.717 2.508-1.075 5.017-1.075 6.45v5.375z" fill="#dcedc8"/></g></svg>