<svg xmlns="http://www.w3.org/2000/svg" width="48" height="48" viewBox="0 0 172 172"><g fill="none" stroke-miterlimit="10" font-family="none" font-weight="none" font-size="none" text-anchor="none" style="mix-blend-mode:normal"><path d="M0 172V0h172v172z"/><path d="M39.417 57.333V150.5c0 1.978 7.22 3.583 16.125 3.583 8.904 0 16.125-1.605 16.125-3.583V57.333z" fill="#8d6e63"/><path d="M28.667 89.583s7.32 5.92 10.825 20.877c1.953 8.317 4.293 7.89 7.091-17.293L32.25 82.417zm78.833-75.25s-3.583 7.167-17.419 10.704c-14.885 3.802 17.294 7.091 17.294 7.091l7.292-14.211zm-43 111.084l14.333-10.75 3.584 7.166s-10.75 7.167-14.334 21.5C64.5 139.75 64.5 125.417 64.5 125.417zm78.833-53.75l-10.75 8.062V57.333h-32.25V150.5c0 1.978 7.22 3.583 16.125 3.583 8.905 0 16.125-1.605 16.125-3.583v-50.167c3.584-14.333 14.334-21.5 14.334-21.5z" fill="#8d6e63"/><path d="M143.333 25.083H28.667v32.25h114.666c3.96 0 7.167-7.22 7.167-16.125 0-8.904-3.207-16.125-7.167-16.125z" fill="#8d6e63"/><path d="M28.667 50.167v7.166h114.666c2.484 0 4.67-2.848 5.956-7.166z" fill="#6d4c41"/><ellipse cx="8" cy="11.5" transform="scale(3.58333)" rx="2" ry="4.5" fill="#bcaaa4"/><path d="M71.667 150.5v-16.25c4.554-8.27 10.75-12.417 10.75-12.417l-3.584-7.166-7.166 5.375V57.333H64.5v96.145c4.318-.642 7.167-1.735 7.167-2.978zm60.916 0v-50.167c3.584-14.333 14.334-21.5 14.334-21.5l-3.584-7.166-10.75 8.062V57.333h-7.166v96.145c4.318-.642 7.166-1.735 7.166-2.978z" fill="#6d4c41"/></g></svg>