<svg xmlns="http://www.w3.org/2000/svg" width="48" height="48" viewBox="0 0 172 172"><g fill="none" stroke-miterlimit="10" font-family="none" font-weight="none" font-size="none" text-anchor="none" style="mix-blend-mode:normal"><path d="M0 172V0h172v172z"/><path d="M71.667 35.833l-39.417 75.25v10.75S57.333 150.5 111.083 150.5l35.834-82.417c-53.75 0-72.176-25.323-75.25-32.25z" fill="#e0b990"/><path d="M32.25 114.667s32.924 22.395 73.684 14.559l37.4-79.06s-35.834 10.75-71.667-10.75l-39.417 68.07z" fill="#ffe0b2"/><path d="M25.083 107.5h7.167v14.333h-7.167z" fill="#b78b69"/><path d="M25.083 107.5h7.167c13.172 3.347 46.29 10.897 68.083 0l43-86s-32.25 14.333-71.666 10.75H64.5z" fill="#ff3d00"/><path d="M25.083 107.5h7.167l39.417-75.25H64.5z" fill="#dd2c00"/><path d="M102.727 75.236l3.325-5.322c1.491-4.905.538-7.02-3.877-7.02-2.21 0-6.74-.207-6.117-2.253.631-2.064.631-2.276 2.068-3.24 1.344-.899 3.236-1.806 5.042-6.754 2.623-7.253-1.351-10.865-8.46-10.618-7.84.27-9.668 5.734-11.105 9.61-.882 2.352.333 5.487 1.752 6.573.824.641-.111 1.555-.72 3.2-.9 2.365-5.354 2.268-7.403 3.074-5.354 2.132-6.013 2.766-8.73 7.715-2.329 4.21-6.675 12.123-6.675 12.123 9.363.684 29.792 3.085 40.9-7.088zm-34.54 22.653c.971-1.21 2.946-1.988 4.275-.784.62.555.448 1.49.99 2.1.583.63 1.31.648 2.135.609 2.003-.093 2.931-1.975 4.067-3.343.831-.982 2.476-3.412 3.917-2.591 1.225.702 1.25 2.275 2.737 2.752 1.283.412 2.34.104 3.48-.484 1.637-.85 1.77-1.265 2.547-2.845 1.444-2.956 2.906-5.91 4.415-8.998-1.483.896-3.064 1.498-4.64 2.222-1.065.48-2.208.906-2.957 1.863-.663.831-1.322 1.58-2.443 1.358-1.495-.319-.212-1.594-1.269-2.046-.917-.383-3.003.315-3.927.484-1.598.272-2.824.455-3.716 2.007-.835 1.44-2.114 4.314-4.272 3.182-1.712-.896.71-3.365-1.168-4.283-1.322-.645-3.812-.146-4.712.94-1.103 1.35-1.752 3.658-3.508 4.35-2.064.82-2.963-.914-2.616-2.67.258-1.269 1.699-3.186-.38-3.408-1.745-.183-4.737-1.408-5.769.294-.71 1.175-1.25 2.515-1.863 3.759-1.154 2.329-2.318 4.676-3.476 6.998.086-.183 3.659.595 4.1.552 1.676-.14 2.53-1.727 3.708-2.688.978-.806 3.376-1.548 4.472-.727 1.333 1.01.29 3.096 2.243 3.72 1.85.602 2.702-1.126 3.63-2.322z" fill="#ffccbc"/></g></svg>