<svg xmlns="http://www.w3.org/2000/svg" width="48" height="48" viewBox="0 0 172 172"><g fill="none" stroke-miterlimit="10" font-family="none" font-weight="none" font-size="none" text-anchor="none" style="mix-blend-mode:normal"><path d="M0 172V0h172v172z"/><path d="M118.25 93.167c0-23.292-14.333-17.917-14.333-68.084H68.083c0 50.167-14.333 44.792-14.333 68.084v55.541a5.377 5.377 0 005.375 5.375h53.75a5.377 5.377 0 005.375-5.375z" fill="#90caf9"/><path d="M107.5 23.292a5.377 5.377 0 01-5.375 5.375h-32.25a5.377 5.377 0 01-5.375-5.375v-3.584a5.377 5.377 0 015.375-5.375h32.25a5.377 5.377 0 015.375 5.375z" fill="#9c27b0"/><path d="M111.083 141.542c0 .989-.802 1.791-1.791 1.791H62.708a1.792 1.792 0 01-1.791-1.791V93.167c0-7.755 1.752-11.273 4.404-16.605 2.393-4.806 5.092-10.27 7.077-19.229h27.211c1.986 8.959 4.684 14.423 7.078 19.229 2.644 5.332 4.396 8.85 4.396 16.605z" fill="#fafafa"/></g></svg>