<svg xmlns="http://www.w3.org/2000/svg" width="48" height="48" viewBox="0 0 172 172"><g fill="none" stroke-miterlimit="10" font-family="none" font-weight="none" font-size="none" text-anchor="none" style="mix-blend-mode:normal"><path d="M0 172V0h172v172z"/><path d="M35.898 106.975l19.003-19.003 7.602 7.6L43.5 114.578z" fill="#fb8c00"/><path d="M143.333 150.5v-17.917c0-3.941-3.225-7.166-7.166-7.166H57.333c-3.941 0-7.166 3.225-7.166 7.166V150.5zM44.855 87.663l69.932-69.934 17.737 17.736L62.592 105.4z" fill="#ffb74d"/><path d="M70.592 129.717L34.758 94.6l-8.241 8.6c-1.075 1.433-1.434 2.867-1.434 4.3 0 2.15 1.075 4.3 2.867 5.733l30.458 29.384z" fill="#ffb74d"/><path d="M101.408 111.083c-6.45 0-12.541-2.508-17.2-7.166L50.167 69.875C45.508 65.217 43 59.125 43 52.675c0-6.45 2.508-12.542 7.167-17.2l10.75-10.75c4.658-4.658 10.75-7.167 17.2-7.167 6.45 0 12.541 2.509 17.2 7.167l34.041 34.042c4.659 4.658 7.167 10.75 7.167 17.2 0 6.45-2.508 12.541-7.167 17.2l-10.75 10.75c-4.658 4.658-10.75 7.166-17.2 7.166z" fill="#2196f3"/><path d="M61.992 24.008l-1.075 1.075-8.6 8.6c-2.15 12.9-2.509 25.8-1.434 36.909l8.242 8.241C56.975 63.067 56.617 43 61.992 24.008zM43 52.675c0 4.658 1.433 9.317 3.942 13.258-.359-8.958-.359-18.275 1.075-27.95C44.792 42.283 43 47.3 43 52.675z" fill="#64b5f6"/><path d="M74.533 18.275c-2.866.358-5.733 1.433-8.6 2.867-6.45 21.5-5.733 44.433-3.225 61.275l8.6 8.6c-2.866-17.2-6.091-46.584 3.225-72.742zm22.217 88.15c0-.358-13.258-43.717-2.508-82.417-1.792-1.791-3.942-3.225-6.45-3.941-12.184 39.058 0 82.058 1.791 88.15 2.509 1.433 5.734 2.508 8.6 2.866-.716-1.791-1.075-3.583-1.433-4.658z" fill="#64b5f6"/><path d="M85.283 104.992c-2.15-7.884-12.9-50.167-.358-86-2.15-.717-4.658-1.075-7.167-1.075H77.4c-9.675 28.666-5.375 60.2-1.792 77.4l8.6 8.6 1.075 1.075z" fill="#64b5f6"/><path d="M92.808 29.742c2.15 0 4.659 0 6.809-.359l-4.659-4.3c-.358-.358-.716-.716-1.075-.716l-1.075 5.375zm-2.866 32.25c12.183 0 25.441-1.075 38.341-3.942l-6.091-6.092c-11.109 1.792-21.859 2.509-32.25 2.867v7.167zm0-10.75c9.316 0 19.35-.717 29.025-2.15l-6.45-6.45c-7.525.716-15.05 1.433-22.217 1.433 0 2.508-.358 5.017-.358 7.167zm.716-10.75c6.092 0 12.184-.359 18.634-1.075l-6.809-6.809c-3.583.359-7.525.359-11.108.359 0 2.866-.358 5.016-.717 7.525zm0 32.25c13.617-.359 28.309-1.434 43-5.017.359 0 .717-.358 1.075-.717-.716-2.15-2.15-4.3-3.583-6.45-13.975 3.225-27.95 4.3-40.85 4.3-.358 3.225 0 5.734.358 7.884zm1.792 14.333c.358 2.508.717 5.017 1.433 7.167 12.184-.359 25.442-1.792 38.342-4.659 1.792-2.508 2.867-5.375 3.583-8.241-2.15.716-3.941 1.075-3.941 1.075-13.259 3.225-26.875 4.3-39.417 4.658zm5.733 23.65c-1.075 0-2.15-.358-3.225-.717 2.15.717 3.942.717 6.092.717 5.017 0 9.675-1.433 13.617-3.942-6.092.717-11.825 1.075-17.559 1.434.359 1.075.717 1.791 1.075 2.508zm-2.15-5.733c7.525-.359 15.409-1.075 23.65-2.15l8.959-8.959c-11.467 2.509-23.292 3.584-34.042 3.942.358 3.225 1.075 5.733 1.433 7.167zm39.417-34.4c-2.15.716-3.942 1.075-3.942 1.075-13.616 3.225-27.95 4.3-40.85 4.658.359 2.508.717 5.017 1.075 7.167 13.259-.359 27.592-1.434 41.567-5.017.358 0 1.075-.358 2.867-.717v-1.791c0-1.434 0-3.584-.717-5.375z" fill="#1976d2"/></g></svg>