<svg xmlns="http://www.w3.org/2000/svg" width="48" height="48" viewBox="0 0 172 172"><g fill="none" stroke-miterlimit="10" font-family="none" font-weight="none" font-size="none" text-anchor="none" style="mix-blend-mode:normal"><path d="M0 172V0h172v172z"/><path d="M92.808 32.25c37.625 0 61.275 32.608 61.275 60.917 0 33.683-30.458 60.916-68.083 60.916S17.917 126.85 17.917 93.167c0-33.684 23.65-60.917 61.275-60.917z" fill="#ffab00"/><path d="M82.058 43h-2.15c-1.433 0-3.583 0-6.091.358-1.434 0-2.867.359-4.3.717-1.434.358-2.867.717-4.659 1.433-1.433.359-3.225 1.434-4.658 2.15-1.433.717-3.225 1.792-4.658 2.867l-4.3 3.225c-1.434 1.075-2.867 2.15-3.942 3.583-1.075 1.434-2.508 2.509-3.583 3.584-1.075 1.433-1.792 2.508-2.867 3.583-1.792 2.15-2.867 4.3-3.942 5.733-.716.717-1.075 1.434-1.075 1.434l1.075-2.15c.717-1.434 1.434-3.584 3.225-6.092.717-1.075 1.434-2.508 2.509-3.942l3.225-4.3c1.075-1.433 2.508-2.866 3.583-4.3 1.433-1.433 2.867-2.508 4.3-3.941 1.433-1.075 3.225-2.509 4.658-3.584 1.792-1.075 3.225-2.15 5.017-2.866 1.792-.717 3.225-1.434 5.017-2.15 1.433-.717 3.225-1.075 4.658-1.434 2.867-.716 5.375-1.075 7.167-1.075H83.133c2.15 0 3.584 1.792 3.584 3.584 0 1.791-1.792 3.583-3.584 3.583h-1.075z" fill="#fb8c00"/><path d="M85.642 35.833H88.508c1.792 0 3.942.359 6.45.717l4.3 1.075c1.434.717 2.867 1.075 4.3 1.792 1.434.716 2.867 1.791 4.3 2.508 1.434 1.075 2.867 2.15 3.942 3.225l3.583 3.583c1.075 1.434 2.15 2.509 2.867 3.942.717 1.433 1.792 2.508 2.508 3.942.717 1.433 1.075 2.508 1.792 3.583 1.075 2.15 1.792 4.3 2.15 5.375.358 1.792.717 2.508.717 2.508l-1.075-2.15c-.717-1.075-1.434-3.225-2.867-5.016l-2.15-3.225c-.717-1.075-1.792-2.15-2.867-3.225l-3.225-3.225c-1.075-1.075-2.508-1.792-3.583-2.867-1.433-.717-2.508-1.792-3.942-2.508-1.433-.717-2.866-1.434-3.941-1.792-1.434-.358-2.867-.717-3.942-1.075-1.433-.358-2.508-.358-3.583-.358-2.15-.359-3.942 0-5.375 0-.717 0-1.075 0-1.434.358h-.358c-1.792.358-3.942-.717-4.3-2.867-.358-1.791.717-3.941 2.867-4.3-.359 0-.359 0 0 0z" fill="#fb8c00"/><path d="M87.792 42.283l-.359.359c-.358 0-.716.358-1.075.716-1.075.717-2.15 1.434-3.941 2.867-1.434 1.433-3.225 2.867-5.017 5.017-1.792 1.791-3.225 4.3-5.017 6.45-1.433 2.508-2.866 5.016-3.941 7.166-1.075 2.509-1.792 4.659-2.509 6.809-.716 2.15-1.075 3.941-1.433 5.016.358 1.434 0 2.15 0 2.15s0-.716.358-2.15c0-1.433.359-3.225.717-5.375s.717-4.658 1.433-7.166c.717-2.509 1.792-5.375 2.867-8.242 1.075-2.867 2.508-5.375 3.942-7.883 1.433-2.509 3.225-4.659 4.658-6.45 1.433-1.792 2.867-3.225 3.942-3.942.716-.358 1.075-.717 1.433-1.075l.358-.358c1.434-1.075 3.942-1.075 5.017.716 1.075 1.434 1.075 3.942-.717 5.017-.358.358-.358.358-.716.358z" fill="#fb8c00"/><path d="M82.417 17.917h7.166v21.5h-7.166z" fill="#5d4037"/><path d="M129 96.75a3.583 3.583 0 100 7.167 3.583 3.583 0 000-7.167zm7.167 10.75a3.583 3.583 0 100 7.167 3.583 3.583 0 000-7.167zm7.166-10.75a3.583 3.583 0 100 7.167 3.583 3.583 0 000-7.167zM107.5 107.5a3.583 3.583 0 100 7.167 3.583 3.583 0 000-7.167zm7.167 10.75a3.583 3.583 0 100 7.167 3.583 3.583 0 000-7.167zm7.166-10.75a3.583 3.583 0 100 7.167 3.583 3.583 0 000-7.167zm0 21.5a3.583 3.583 0 100 7.167 3.583 3.583 0 000-7.167zm-28.666 0a3.583 3.583 0 100 7.167 3.583 3.583 0 000-7.167zm7.166 10.75a3.583 3.583 0 100 7.167 3.583 3.583 0 000-7.167zM107.5 129a3.583 3.583 0 100 7.167 3.583 3.583 0 000-7.167zM86 139.75a3.583 3.583 0 100 7.167 3.583 3.583 0 000-7.167zm14.333-21.5a3.583 3.583 0 100 7.167 3.583 3.583 0 000-7.167zm28.667 0a3.583 3.583 0 100 7.167 3.583 3.583 0 000-7.167zM107.5 86a3.583 3.583 0 100 7.167 3.583 3.583 0 000-7.167zm7.167 10.75a3.583 3.583 0 100 7.167 3.583 3.583 0 000-7.167zM121.833 86a3.583 3.583 0 100 7.167 3.583 3.583 0 000-7.167zM129 75.25a3.583 3.583 0 100 7.167 3.583 3.583 0 000-7.167zM136.167 86a3.583 3.583 0 100 7.167 3.583 3.583 0 000-7.167zm7.166-10.75a3.583 3.583 0 100 7.167 3.583 3.583 0 000-7.167zm-7.166-10.75a3.583 3.583 0 100 7.167 3.583 3.583 0 000-7.167zm-21.5 10.75a3.583 3.583 0 100 7.167 3.583 3.583 0 000-7.167zM78.833 129a3.583 3.583 0 100 7.167 3.583 3.583 0 000-7.167zM86 118.25a3.583 3.583 0 100 7.167 3.583 3.583 0 000-7.167zM64.5 129a3.583 3.583 0 100 7.167 3.583 3.583 0 000-7.167zm7.167-10.75a3.583 3.583 0 100 7.167 3.583 3.583 0 000-7.167zm0 21.5a3.583 3.583 0 100 7.167 3.583 3.583 0 000-7.167zM50.167 129a3.583 3.583 0 100 7.167 3.583 3.583 0 000-7.167zm71.666-64.5a3.583 3.583 0 100 7.167 3.583 3.583 0 000-7.167z" fill="#f57c00"/><path d="M82.417 39.417s16.841-21.142 43-21.5c9.675 0 20.425 3.225 32.25 10.75-17.559 18.275-33.684 21.858-46.584 21.5-17.558-.717-28.666-10.75-28.666-10.75z" fill="#4caf50"/><path d="M82.417 39.417s1.075-.717 2.508-2.15c.717-.717 1.792-1.434 3.225-2.15 1.433-.717 2.867-1.434 4.658-2.509 3.225-1.433 7.525-2.866 11.825-3.941 2.15-.717 4.659-1.075 6.809-1.434 2.508-.358 4.658-.716 7.166-1.075 2.509-.358 5.017-.358 7.167-.716h7.167c4.658 0 8.958.358 12.541 1.075 7.525.716 12.184 2.15 12.184 2.15s-5.017.716-12.184 1.433c-3.583.358-7.883.717-12.183 1.433-4.3.359-8.958 1.075-13.617 1.434-2.508.358-4.658.716-6.808.716-2.15.359-4.658.717-6.808 1.075l-6.45 1.075c-1.792.359-3.942.717-5.734 1.075-1.791.359-3.225.717-4.658 1.075-1.433.359-2.508.717-3.583 1.075-2.15 0-3.225.359-3.225.359z" fill="#2e7d32"/></g></svg>