<svg xmlns="http://www.w3.org/2000/svg" width="48" height="48" viewBox="0 0 172 172"><g fill="none" stroke-miterlimit="10" font-family="none" font-weight="none" font-size="none" text-anchor="none" style="mix-blend-mode:normal"><path d="M0 172V0h172v172z"/><path d="M150.5 116.458c0-22.933-19.35-41.208-43-41.208s-43 18.275-43 41.208c0 22.934 19.35 41.209 43 41.209s43-18.275 43-41.209z" fill="#ff8f00"/><path d="M125.417 125.417c0 2.15-1.434 3.583-3.584 3.583-2.15 0-3.583-1.433-3.583-3.583 0-2.15 1.433-3.584 3.583-3.584 2.15 0 3.584 1.434 3.584 3.584zm7.166 10.75c0 2.15-1.433 3.583-3.583 3.583-2.15 0-3.583-1.433-3.583-3.583 0-2.15 1.433-3.584 3.583-3.584 2.15 0 3.583 1.434 3.583 3.584zm7.167-10.75c0 2.15-1.433 3.583-3.583 3.583-2.15 0-3.584-1.433-3.584-3.583 0-2.15 1.434-3.584 3.584-3.584 2.15 0 3.583 1.434 3.583 3.584zM107.5 75.25c-2.867 0-6.092.358-8.958 1.075-2.15 39.058-6.092 63.783-7.884 75.608 0 .717-.358 1.792-.716 2.15 2.508 1.075 4.658 1.792 7.525 2.509 3.941-12.542 6.808-27.592 9.675-46.225 1.791-11.825 10.033-21.5 21.141-25.442.359-.358 3.225-.717 5.375-1.433-7.525-5.017-16.483-8.242-26.158-8.242z" fill="#ef6c00"/><path d="M107.5 82.775s34.4 2.508 43-32.608c-41.925 0-43 32.608-43 32.608z" fill="#4caf50"/><path d="M103.917 68.083h7.166v14.692h-7.166z" fill="#5d4037"/><path d="M21.5 14.333c0 75.967 7.167 120.4 9.675 137.242.717 3.583 3.583 6.092 7.167 6.092h45.15c3.583 0 6.45-2.509 7.166-6.092 2.509-16.842 9.675-61.275 9.675-137.242z" fill="#bbdefb"/><path d="M29.383 43h10.034v-7.167V21.5h-10.75c0 5.017 0 9.675.358 14.333 0 2.509 0 4.659.358 7.167z" fill="#fff"/><path d="M99.975 43H21.858c1.075 44.433 4.659 75.608 7.167 94.6v-1.433c0 .716.358 1.433.358 2.15.717 2.866 3.225 5.016 6.45 5.016H86c3.225 0 5.733-2.15 6.45-5.016 0-.717.358-1.434.358-2.15v1.433c2.509-18.992 6.092-50.167 7.167-94.6z" fill="#ffb300"/><path d="M29.383 43c1.434 47.658 5.375 82.058 7.884 100.333h2.15c0-33.325.358-61.275 0-100.333z" fill="#ffe082"/></g></svg>