<svg xmlns="http://www.w3.org/2000/svg" width="48" height="48" viewBox="0 0 172 172"><g fill="none" stroke-miterlimit="10" font-family="none" font-weight="none" font-size="none" text-anchor="none" style="mix-blend-mode:normal"><path d="M0 172V0h172v172z"/><path d="M131.408 25.81c-1.863-.128-3.444.176-4.268.309-4.586.25-21.206 2.63-41.692 22.503-3.86 2.652-16.54 12.266-17.805 24.729l-.065.66c-.304 3.296-.942 10.147-5.55 12.15-9.16 3.974-17.73 9.03-19.497 10.299-10.138 6.288-25.69 21.622-19.698 39.194C26.051 145.09 33.519 150.5 43.33 150.5c6.471 0 12.384-2.361 15.458-3.845 6.59-1.369 36.51-8.919 43.165-34.25.43-.86.907-2.12 1.494-3.68 2.1-5.593 5.619-14.953 12.553-20.869.645-.548 2.53-2.196 5.052-4.404 5.117-4.468 12.872-11.244 18.44-16.01l.265-.255c1.093-1.057 9.854-10.728 10.582-24.373 1.849-34.587-12.886-16.577-18.931-17.003z" fill="#fbc02d"/><path d="M47.666 103.935s-21.468 13.125-16.097 28.874c5.368 15.756 24.152 5.257 24.152 5.257s32.207-5.257 37.56-28.889c0 0 4.927-8.55 3.132-13.119-.903-2.314-6.371-.938-9.23-2.372-3.656-1.834-9.324-2.393-18.05-.254-10.732 2.626-21.468 10.503-21.468 10.503z" fill="#d84315"/><path d="M87.573 57.943S64.557 73.285 77.346 86.075c12.79 12.79 25.57 0 28.133-2.555 2.555-2.565 23.02-20.457 23.02-20.457s7.668-7.672 7.668-17.91c0-10.223-12.786-7.668-12.786-7.668s-15.35 0-35.808 20.458z" fill="#d84315"/><path d="M96.531 96.639c-7.614 9.28-26.982 28.172-64.202 37.94 6.163 13.065 23.385 3.487 23.385 3.487s32.207-5.257 37.56-28.889c.007 0 4.497-7.865 3.257-12.538zm37.55-57.068c-.025.079-.072.118-.082.211-5.913 10.256-21.687 31.705-56 46.834l-.008.018c12.574 11.754 24.969-.602 27.495-3.114 2.548-2.565 23.012-20.457 23.012-20.457s7.669-7.672 7.669-17.91c0-2.615-.839-4.385-2.086-5.582z" fill="#a52e0e"/></g></svg>