<svg xmlns="http://www.w3.org/2000/svg" width="48" height="48" viewBox="0 0 172 172"><g fill="none" stroke-miterlimit="10" font-family="none" font-weight="none" font-size="none" text-anchor="none" style="mix-blend-mode:normal"><path d="M0 172V0h172v172z"/><path d="M136.167 120.042c0-22.934-22.575-41.209-50.167-41.209-27.592 0-50.167 18.275-50.167 41.209 0 22.933 22.575 41.208 50.167 41.208 27.592 0 50.167-18.275 50.167-41.208z" fill="#ffc400"/><path d="M136.167 121.833c0-28.666-21.5-35.833-25.084-57.333C108.933 50.883 99.975 39.417 86 39.417c-13.975 0-22.933 11.466-25.083 25.083-3.584 21.5-25.084 28.667-25.084 57.333" fill="#ffc400"/><path d="M96.75 17.917S86 28.667 86 46.583" fill="#fff"/><path d="M89.583 46.583h-7.166c0-19.35 11.466-30.816 11.825-31.175l5.016 5.017-2.508-2.508 2.508 2.508s-9.675 10.033-9.675 26.158z" fill="#795548"/><path d="M89.583 46.583c0 2.15-1.433 3.584-3.583 3.584-2.15 0-3.583-1.434-3.583-3.584C82.417 44.433 83.85 43 86 43c2.15 0 3.583 1.433 3.583 3.583z" fill="#795548"/><path d="M86 50.167S81.342 5.375 35.833 21.5C40.85 68.083 86 50.167 86 50.167z" fill="#4caf50"/><path d="M135.45 112.875c-3.942-21.5-21.142-29.383-24.367-48.375-1.791-11.108-7.883-20.783-17.558-24.008 7.525 5.375 10.392 25.8 10.392 38.341 0 14.334 14.333 21.5 14.333 35.834 0 14.333-14.333 32.25-35.833 32.25-39.775 0-45.867-24.725-46.584-28.309V121.833C36.908 143.692 58.767 161.25 86 161.25s48.733-17.558 50.167-39.417v-1.075-.716c0-2.509-.359-4.659-.717-7.167z" fill="#ffab00"/><path d="M111.083 114.667c0 2.15-1.433 3.583-3.583 3.583-2.15 0-3.583-1.433-3.583-3.583 0-2.15 1.433-3.584 3.583-3.584 2.15 0 3.583 1.434 3.583 3.584zm-14.333 0c0 2.15-1.433 3.583-3.583 3.583-2.15 0-3.584-1.433-3.584-3.583 0-2.15 1.434-3.584 3.584-3.584 2.15 0 3.583 1.434 3.583 3.584zm7.167 10.75c0 2.15-1.434 3.583-3.584 3.583-2.15 0-3.583-1.433-3.583-3.583 0-2.15 1.433-3.584 3.583-3.584 2.15 0 3.584 1.434 3.584 3.584z" fill="#ff9100"/></g></svg>