<svg xmlns="http://www.w3.org/2000/svg" width="48" height="48" viewBox="0 0 172 172"><g fill="none" stroke-miterlimit="10" font-family="none" font-weight="none" font-size="none" text-anchor="none" style="mix-blend-mode:normal"><path d="M0 172V0h172v172z"/><path d="M139.75 43H32.25c-6.092 0-10.75-4.658-10.75-10.75S26.158 21.5 32.25 21.5h107.5c6.092 0 10.75 4.658 10.75 10.75S145.842 43 139.75 43zm0 107.5H32.25c-6.092 0-10.75-4.658-10.75-10.75S26.158 129 32.25 129h107.5c6.092 0 10.75 4.658 10.75 10.75s-4.658 10.75-10.75 10.75zm0-53.75H32.25c-6.092 0-10.75-4.658-10.75-10.75s4.658-10.75 10.75-10.75h107.5c6.092 0 10.75 4.658 10.75 10.75s-4.658 10.75-10.75 10.75z" fill="#673ab7"/><path d="M28.667 39.417h114.666v93.166H28.667z" fill="#673ab7"/><path d="M107.5 93.167c0 11.825-9.675 21.5-21.5 21.5s-21.5-9.675-21.5-21.5S86 55.542 86 55.542s21.5 25.8 21.5 37.625z" fill="#ffeb3b"/></g></svg>