<svg xmlns="http://www.w3.org/2000/svg" width="48" height="48" viewBox="0 0 172 172"><g fill="none" stroke-miterlimit="10" font-family="none" font-weight="none" font-size="none" text-anchor="none" style="mix-blend-mode:normal"><path d="M0 172V0h172v172z"/><path d="M168.417 89.583C141.9 124.7 120.042 118.25 86 118.25c-51.958 0-57.333-17.917-57.333-46.583 0-45.15 57.691-43 60.916-43 60.917 0 57.334 43 71.667 46.583" fill="#f48fb1"/><path d="M28.667 64.5c0 32.25 7.166 43 7.166 43l-7.166 7.167v28.666H43v-17.916s25.083-3.584 28.667-17.917v-43zm93.166 32.25l-7.166 35.833v3.584h-14.334l-3.583-32.25zM28.667 57.333h10.75V64.5h-10.75z" fill="#f48fb1"/><path d="M30.458 64.5H29.025c-.717 0-1.075 0-1.433-.358-1.075-.359-1.792-.717-2.509-1.075-1.433-.717-2.866-1.792-3.941-2.867-2.15-2.15-3.942-4.658-5.017-7.883-.358-1.434-1.075-3.225-.717-5.017 0-1.792.717-3.583 1.792-5.017 1.075-1.433 2.15-2.866 4.3-3.225 2.15-.358 4.3.359 5.375 1.792 1.075 1.433 1.792 3.225 1.792 5.017 0 1.791-.359 3.225-1.075 4.658-.717 1.433-1.792 2.508-2.867 3.583-1.075 1.075-2.508 1.434-3.942 1.792-2.866.358-5.733 0-8.241-1.075-2.509-1.075-4.659-3.225-5.375-5.733 1.075 2.508 3.225 4.3 5.733 5.016 2.508.717 5.017 1.075 7.525.359 2.508-.717 3.942-2.509 4.658-4.659 1.075-2.15.717-4.3-.716-5.375-1.792-1.075-2.509-.358-3.584 1.075-.716 1.792-.716 3.584.359 5.375 1.075 1.792 2.508 3.942 4.3 5.017 1.791 1.433 3.583 2.15 4.658 1.433z" fill="#f48fb1"/><path d="M143.333 75.25c0 2.15-1.433 3.583-3.583 3.583-2.15 0-3.583-1.433-3.583-3.583 0-2.15 1.433-3.583 3.583-3.583 2.15 0 3.583 1.433 3.583 3.583z" fill="#000"/><path d="M168.417 86c0-6.092-3.942-10.75-8.959-10.75-5.016 0-8.958 4.658-8.958 10.75s3.942 10.75 8.958 10.75c5.017 0 8.959-4.658 8.959-10.75z" fill="#ec407a"/><path d="M157.667 86c0-2.15-.717-3.583-1.792-3.583-1.075 0-1.792 1.433-1.792 3.583 0 2.15.717 3.583 1.792 3.583 1.075 0 1.792-1.433 1.792-3.583zm7.166 0c0-2.15-.716-3.583-1.791-3.583S161.25 83.85 161.25 86c0 2.15.717 3.583 1.792 3.583 1.075 0 1.791-1.433 1.791-3.583z" fill="#880e4f"/><path d="M148.35 58.767c5.375-2.867 12.9-10.034 12.9-26.517-8.6 4.3-19.35 4.658-26.875 9.675 6.45 5.017 10.75 11.467 13.975 16.842zm-83.492 58.05c-5.733 4.3-13.616 6.808-18.275 7.883v18.633h14.334v-17.916s11.466-1.792 20.066-7.167c-6.091-.358-11.466-.717-16.125-1.433zm52.675 1.791l-2.866 13.975v3.584h10.75v-3.584l3.225-15.408c-3.584.717-7.525 1.075-11.109 1.433z" fill="#f06292"/><path d="M120.042 54.825s17.916-3.583 17.916-28.667c-14.333 7.167-35.833 3.584-35.833 28.667 0 0 3.942-2.508 17.917 0z" fill="#f06292"/><path d="M111.083 136.167l14.334-3.584 3.583 10.75h-17.917zm-64.5 0l14.334-3.584 3.583 10.75H46.583z" fill="#5d4037"/><path d="M28.667 136.167L43 132.583l3.583 10.75H28.667zm71.666 0l14.334-3.584 3.583 10.75h-17.917z" fill="#795548"/></g></svg>