<svg xmlns="http://www.w3.org/2000/svg" width="48" height="48" viewBox="0 0 172 172"><g fill="none" stroke-miterlimit="10" font-family="none" font-weight="none" font-size="none" text-anchor="none" style="mix-blend-mode:normal"><path d="M0 172V0h172v172z"/><path d="M146.917 139.75H25.083c-7.883 0-14.333-6.45-14.333-14.333V46.583c0-7.883 6.45-14.333 14.333-14.333h121.834c7.883 0 14.333 6.45 14.333 14.333v78.834c0 7.883-6.45 14.333-14.333 14.333z" fill="#ef6c00"/><path d="M157.667 78.833c0-19.35-14.692-36.191-37.625-46.583h-21.5C129 39.775 150.5 57.692 150.5 78.833c0 27.592-36.908 50.167-82.417 50.167-22.216 0-42.641-5.375-57.333-14.333v7.883c15.408 8.242 35.475 13.258 57.333 13.258 49.45.359 89.584-25.441 89.584-56.975z" fill="#d15f00"/><path d="M25.083 139.75h7.884c-6.45-1.433-12.9-3.225-18.634-5.375 2.509 3.225 6.45 5.375 10.75 5.375zm121.834-107.5h-4.659c7.525 4.3 13.617 8.958 18.992 14.333 0-7.883-6.45-14.333-14.333-14.333zM11.467 42.642c7.525-4.3 16.483-7.884 26.158-10.392H25.083c-6.45 0-11.825 4.3-13.616 10.392zm116.816 97.108c12.9-5.017 24.009-11.467 32.967-19.35v-9.317c-12.9 13.259-33.325 23.65-58.05 28.667z" fill="#db6400"/><g fill="#c45900"><path d="M68.083 121.833c36.192 0 65.934-19.35 65.934-43s-29.742-43-65.934-43c-24.725 0-45.866 8.959-57.333 21.859v13.616C16.483 55.183 40.133 43 68.083 43c32.25 0 58.767 16.125 58.767 35.833 0 19.709-26.517 35.834-58.767 35.834-27.95 0-51.6-12.184-57.333-28.309v13.617c11.467 12.9 32.608 21.858 57.333 21.858z"/><path d="M111.083 78.833c0-16.125-18.991-28.666-43-28.666-24.008 0-43 12.541-43 28.666s18.992 28.667 43 28.667c24.009 0 43-12.542 43-28.667zm-78.833 0c0-11.825 16.483-21.5 35.833-21.5 19.35 0 35.834 9.675 35.834 21.5s-16.484 21.5-35.834 21.5-35.833-9.675-35.833-21.5z"/><path d="M68.083 75.25c-3.958 0-7.166 1.604-7.166 3.583 0 1.98 3.208 3.584 7.166 3.584s7.167-1.605 7.167-3.584-3.209-3.583-7.167-3.583z"/><path d="M93.167 78.833c0-8.241-10.75-14.333-25.084-14.333C53.75 64.5 43 70.592 43 78.833c0 8.242 10.75 14.334 25.083 14.334 14.334 0 25.084-6.092 25.084-14.334zm-43 0c0-2.866 6.808-7.166 17.916-7.166 11.109 0 17.917 4.3 17.917 7.166C86 81.7 79.192 86 68.083 86c-11.108 0-17.916-4.3-17.916-7.167z"/></g></g></svg>