<svg xmlns="http://www.w3.org/2000/svg" width="48" height="48" viewBox="0 0 172 172"><g fill="none" stroke-miterlimit="10" font-family="none" font-weight="none" font-size="none" text-anchor="none" style="mix-blend-mode:normal"><path d="M0 172V0h172v172z"/><path d="M111.083 36.192H60.917V21.858c0-3.941 3.225-7.166 7.166-7.166h35.834c3.941 0 7.166 3.225 7.166 7.166z" fill="#673ab7"/><path d="M121.833 125.775c0-3.942 3.225-7.167 7.167-7.167V82.775c-3.942 0-7.167-3.225-7.167-7.167 0-3.941 3.225-7.166 7.167-7.166v-5.734c0-3.225-1.075-6.45-3.225-9.316l-14.692-17.2H60.917L46.225 53.75C44.075 56.258 43 59.483 43 63.067V68.8c3.942 0 7.167 3.225 7.167 7.167 0 3.941-3.225 7.166-7.167 7.166v35.834c3.942 0 7.167 3.225 7.167 7.166 0 3.942-3.225 7.167-7.167 7.167v10.75c0 7.883 6.45 14.333 14.333 14.333h57.334c7.883 0 14.333-6.45 14.333-14.333V133.3c-3.942-.358-7.167-3.583-7.167-7.525z" fill="#d1c4e9"/><path d="M129 68.442H43c3.942 0 7.167 3.225 7.167 7.166 0 3.942-3.225 7.167-7.167 7.167h86c-3.942 0-7.167-3.225-7.167-7.167 0-3.941 3.225-7.166 7.167-7.166zm0 50.166H43c3.942 0 7.167 3.225 7.167 7.167 0 3.942-3.225 7.167-7.167 7.167h86c-3.942 0-7.167-3.225-7.167-7.167 0-3.942 3.225-7.167 7.167-7.167z" fill="#b39ddb"/></g></svg>