<svg xmlns="http://www.w3.org/2000/svg" width="48" height="48" viewBox="0 0 172 172"><g fill="none" stroke-miterlimit="10" font-family="none" font-weight="none" font-size="none" text-anchor="none" style="mix-blend-mode:normal"><path d="M0 172V0h172v172z"/><path d="M70.95 154.083c-2.508 0-5.017 0-7.525-.358-16.483-1.792-30.1-9.675-37.625-22.217-18.275-29.741.358-46.583 18.275-62.35 4.658-4.3 9.675-8.6 13.975-13.258 1.433-1.433 2.867-3.225 4.3-4.658 19.35-21.5 40.85-45.867 70.95-25.084 12.183 8.6 19.35 21.5 21.142 37.625 2.15 22.217-7.167 47.659-24.009 65.217-16.483 15.767-38.341 25.083-59.483 25.083z" fill="#8d6e63"/><path d="M70.95 154.083c-2.508 0-5.017 0-7.525-.358-16.483-1.792-30.1-9.675-37.625-22.217-5.017-8.241-7.167-15.05-7.525-21.5 34.758 31.534 120.4 7.884 135.808-46.583 2.15 22.217-7.166 47.658-24.008 65.217-16.125 16.125-37.983 25.441-59.125 25.441z" fill="#795548"/><path d="M80.625 132.583a5.375 5.375 0 100 10.75 5.375 5.375 0 000-10.75z" fill="#3e2723"/><path d="M121.833 46.583c2.15 0 3.584 1.434 3.584 3.584 0 2.15-1.434 3.583-3.584 3.583-2.15 0-3.583-1.433-3.583-3.583 0-2.15 1.433-3.584 3.583-3.584zm0 39.417c0 2.15 1.434 3.583 3.584 3.583 2.15 0 3.583-1.433 3.583-3.583 0-2.15-1.433-3.583-3.583-3.583-2.15 0-3.584 1.433-3.584 3.583zM93.167 60.917c0 2.15 1.433 3.583 3.583 3.583 2.15 0 3.583-1.433 3.583-3.583 0-2.15-1.433-3.584-3.583-3.584-2.15 0-3.583 1.434-3.583 3.584zm-43 53.75c0 2.15 1.433 3.583 3.583 3.583 2.15 0 3.583-1.433 3.583-3.583 0-2.15-1.433-3.584-3.583-3.584-2.15 0-3.583 1.434-3.583 3.584zm21.5-12.542c0 2.867 2.508 5.375 5.375 5.375 2.866 0 5.375-2.508 5.375-5.375s-2.509-5.375-5.375-5.375c-2.867 0-5.375 2.508-5.375 5.375z" fill="#5d4037"/></g></svg>