<svg xmlns="http://www.w3.org/2000/svg" width="48" height="48" viewBox="0 0 172 172"><g fill="none" stroke-miterlimit="10" font-family="none" font-weight="none" font-size="none" text-anchor="none" style="mix-blend-mode:normal"><path d="M0 172V0h172v172z"/><path d="M157.667 64.858V50.525h-35.834V14.692H107.5v35.833H93.167V14.692H78.833v35.833H64.5V14.692H50.167v35.833H14.333v14.333h35.834v14.334H14.333v14.333h35.834v14.333H14.333v14.334h35.834v35.833H64.5v-35.833h14.333v35.833h14.334v-35.833H107.5v35.833h14.333v-35.833h35.834v-14.334h-35.834V93.525h35.834V79.192h-35.834V64.858z" fill="#ff9800"/><path d="M28.667 43.358v86c0 7.884 6.45 14.334 14.333 14.334h86c7.883 0 14.333-6.45 14.333-14.334v-86c0-7.883-6.45-14.333-14.333-14.333H43c-7.883 0-14.333 6.45-14.333 14.333z" fill="#607d8b"/><path d="M53.75 46.942a7.167 7.167 0 100 14.333 7.167 7.167 0 000-14.333zm64.5 64.5a7.167 7.167 0 100 14.333 7.167 7.167 0 000-14.333z" fill="#455a64"/></g></svg>