<svg xmlns="http://www.w3.org/2000/svg" width="48" height="48" viewBox="0 0 172 172"><g fill="none" stroke-miterlimit="10" font-family="none" font-weight="none" font-size="none" text-anchor="none" style="mix-blend-mode:normal"><path d="M0 172V0h172v172z"/><path d="M43 125.417v17.916H28.2c-4.693 0-8.635-3.368-9.28-7.668a7.834 7.834 0 01-.107-1.29c0-2.007.716-3.87 1.935-5.375.25-.322.501-.645.824-.932a9.53 9.53 0 016.629-2.651z" fill="#9fa8da"/><path d="M60.82 50.998l-6.97-1.666 5.999-25.084c1.075-4.296 4.572-7.45 8.919-8.07l20.5-1.834.638 7.138-20.318 1.813c-1.261.187-2.426 1.237-2.78 2.656z" fill="#4fc3f7"/><path d="M68.083 45.867h-43c0 2.949-10.75 13.785-10.75 18.812v13.438l56.438 5.375 8.062-5.375V64.679c0-5.2-10.75-16.039-10.75-18.812zm-20.89 58.659a15.798 15.798 0 00-2.437 3.26 14.323 14.323 0 00-1.756 6.88V129H14.333v-21.321l10.75-5.375z" fill="#d32f2f"/><path d="M78.833 78.01v22.323h-21.5c-3.941 0-7.525 1.613-10.14 4.193a15.798 15.798 0 00-2.437 3.26c-2.831-.824-8.564-2.221-14.298-2.221-8.062 0-16.125 2.76-16.125 2.76V78.008s8.063-2.759 16.125-2.759c8.063 0 16.125 2.76 16.125 2.76s8.063 2.758 16.125 2.758c8.063 0 16.125-2.759 16.125-2.759z" fill="#ffd740"/><path d="M71.667 43c0-1.978-1.247-3.583-2.788-3.583H24.288c-1.541 0-2.788 1.605-2.788 3.583 0 1.978 1.247 3.583 2.788 3.583h44.59c1.542 0 2.789-1.605 2.789-3.583zM43 129v7.167H21.5c-.896 0-1.792-.18-2.58-.502-2.688-1.04-4.587-3.62-4.587-6.665z" fill="#c5cae9"/><path d="M78.833 100.333v7.991s-8.062 2.76-16.125 2.76c-8.062 0-16.125-2.76-16.125-2.76s-.68-.215-1.827-.537a15.797 15.797 0 012.437-3.261c2.615-2.58 6.199-4.193 10.14-4.193z" fill="#fbc02d"/><path d="M78.833 108.324V129H43v-14.333c0-2.509.645-4.838 1.756-6.88 1.147.322 1.827.537 1.827.537s8.063 2.76 16.125 2.76c8.063 0 16.125-2.76 16.125-2.76z" fill="#b71c1c"/><path d="M78.833 129c0 1.97-.788 3.763-2.114 5.053-.43.465-.967.86-1.505 1.182-1.039.61-2.257.932-3.547.932H43V129z" fill="#9fa8da"/><path d="M75.214 135.235c-.215 2.114-1.254 4.013-2.723 5.447-1.684 1.648-4.05 2.651-6.63 2.651H43v-7.166h28.667c1.29 0 2.508-.323 3.547-.932z" fill="#7986cb"/><path d="M150.5 154.083H57.333a7.165 7.165 0 01-7.166-7.166v-32.25a7.165 7.165 0 017.166-7.167H150.5a7.165 7.165 0 017.167 7.167v32.25a7.165 7.165 0 01-7.167 7.166z" fill="#ffab40"/><path fill="#fff3e0" d="M50.167 118.25h107.5v25.083h-107.5z"/><path fill="#f44336" d="M50.167 118.25h107.5v7.167h-107.5z"/><path fill="#8bc34a" d="M50.167 136.167h107.5v7.166h-107.5z"/></g></svg>