<svg xmlns="http://www.w3.org/2000/svg" width="48" height="48" viewBox="0 0 172 172"><g fill="none" stroke-miterlimit="10" font-family="none" font-weight="none" font-size="none" text-anchor="none" style="mix-blend-mode:normal"><path d="M0 172V0h172v172z"/><path d="M82.417 14.333h7.166V53.75h-7.166zM150.5 75.25c0-3.942 3.225-7.167 7.167-7.167 3.941 0 7.166 3.225 7.166 7.167v50.167c0 3.941-3.225 7.166-7.166 7.166-3.942 0-7.167-3.225-7.167-7.166zm-143.333 0c0-3.942 3.225-7.167 7.166-7.167 3.942 0 7.167 3.225 7.167 7.167v50.167c0 3.941-3.225 7.166-7.167 7.166-3.941 0-7.166-3.225-7.166-7.166z" fill="#512da8"/><path d="M100.333 21.5c0 7.883-6.45 14.333-14.333 14.333-1.792 0-3.583-.358-5.017-.716-5.375-2.15-5.375-13.617-5.375-13.617L86 8.958s6.808-.358 9.317 1.792c3.225 2.508 5.016 6.45 5.016 10.75zm53.75 86.358v33.325c0 12.184-52.675 16.484-65.933 16.484h-4.3c-13.258 0-65.933-4.3-65.933-16.484v-33.325c0-33.683 30.1-61.275 65.933-61.275h4.3c35.833 0 65.933 27.592 65.933 61.275z" fill="#7e57c2"/><path d="M116.458 86c-12.863 0-23.291 10.428-23.291 23.292 0 12.863 10.428 23.291 23.291 23.291 12.864 0 23.292-10.428 23.292-23.291C139.75 96.428 129.322 86 116.458 86zm-60.916 0C42.678 86 32.25 96.428 32.25 109.292c0 12.863 10.428 23.291 23.292 23.291 12.863 0 23.291-10.428 23.291-23.291C78.833 96.428 68.405 86 55.542 86z" fill="#5e35b1"/><path d="M55.542 93.167c-8.906 0-16.125 7.22-16.125 16.125 0 8.905 7.22 16.125 16.125 16.125 8.905 0 16.125-7.22 16.125-16.125 0-8.906-7.22-16.125-16.125-16.125zm60.916 0c-8.905 0-16.125 7.22-16.125 16.125 0 8.905 7.22 16.125 16.125 16.125 8.906 0 16.125-7.22 16.125-16.125 0-8.906-7.22-16.125-16.125-16.125z" fill="#fff9c4"/><path d="M55.542 100.333a8.958 8.958 0 100 17.917 8.958 8.958 0 000-17.917zm60.916 0a8.958 8.958 0 100 17.917 8.958 8.958 0 000-17.917z" fill="#5c6bc0"/><path d="M78.833 25.083c0 4.3 1.792 7.884 4.659 10.392C76.683 34.4 71.667 28.667 71.667 21.5c0-7.883 6.45-14.333 14.333-14.333 3.583 0 7.167 1.433 9.675 3.941-.717-.358-1.433-.358-2.508-.358-7.884 0-14.334 6.45-14.334 14.333zm-60.916 82.775v33.325c0 3.584 4.3 6.45 10.75 8.6v-36.191c0-35.834 28.308-65.217 62.708-67.009H83.85c-35.833 0-65.933 27.592-65.933 61.275z" fill="#6e49b9"/></g></svg>