<svg xmlns="http://www.w3.org/2000/svg" width="48" height="48" viewBox="0 0 172 172"><g fill="none" stroke-miterlimit="10" font-family="none" font-weight="none" font-size="none" text-anchor="none" style="mix-blend-mode:normal"><path d="M0 172V0h172v172z"/><path d="M109.707 21.5c-4.045 0-8.198 3.085-11.287 4.984-6.01 3.68-12.725 3.24-19.587 3.24-1.691 0-3.415-.093-5.152-.262-3.458-.347-7.461-.795-11.349-.795-1.913 0-3.791.1-5.565.38-10.435 1.637-10.556 13.258-17.121 19.44-3.15 2.955-6.443 4.407-7.507 8.85-1.054 4.4.656 9.85 1.132 14.122.498 4.432 1.24 8.725-.663 12.825-1.852 4.002-5.353 6.837-6.776 11.287-1.928 6.02.33 11.492 1.502 17.361 1.103 5.519 0 8.765-.663 14.097-1.118 8.883 3.282 13.95 11.993 15.66 2.813.551 5.748 1.175 8.557 1.58 2.494.369 5.798-.344 7.97 1.304 2.562 1.913 1.207 4.748 5.134 4.895a36.71 36.71 0 001.53.032c10.453 0 19.196-3.806 29.273-5.948 2.913-.624 6.31-1.108 9.26-1.839 6.438-1.601 12.95-2.031 19.431-3.235 5.917-1.086 9.611-2.939 12.56-8.238 3.247-5.82 10.463-6.6 12.767-13.03 1.681-4.686 1.538-9.735.972-14.881-.563-5.16-2.025-7.4-4.21-11.807-2.527-5.06.422-6.042 2.927-10.03 1.562-2.469 3.12-6.54 2.408-9.503-.466-1.978-1.387-4.715-2.52-6.407-.824-1.25-2.286-1.856-2.816-3.382-.903-2.555 1.05-5.626.935-8.274-.236-4.978-3.561-6.59-7.485-8.25-5.153-2.185-6.669-4.486-6.135-9.785.996-9.905-8.224-11.291-15.985-13.466a7.002 7.002 0 00-3.53-.925z" fill="#b0bec5"/><path d="M145.147 118.21c1.68-4.686 1.537-9.735.97-14.881-.562-5.16-2.024-7.4-4.21-11.807-2.526-5.06.423-6.042 2.928-10.03 1.562-2.469 3.12-6.54 2.408-9.503-.466-1.978-1.387-4.716-2.52-6.407-.824-1.25-2.286-1.856-2.816-3.383-.903-2.554 1.05-5.625.935-8.273-.236-4.978-3.561-6.59-7.485-8.25-5.153-2.185-6.669-4.486-6.135-9.785.996-9.905-8.224-11.291-15.985-13.466a6.878 6.878 0 00-1.824-.714c6.851 3.892 7.74 18.791 7.314 23.862-.244 2.77-1.398 5.027-1.104 8.073.272 2.827 1.444 5.182 1.462 8.07.046 6.822-3.103 10.893-.81 17.687 2.028 6.045 2.885 10.829-4.325 13.968-2.605 1.132-5.465 1.35-7.805 2.738-3.063 1.81-3.68 2.694-7.238 3.4-5.44 1.082-10.553 3.802-10.503 9.987.033 3.354 1.068 4.687-1.075 7.439-1.666 2.146-4.593 5.074-7.435 5.375-2.175.244-3.067-1.54-5.006-2.179-2.286-.745-4.465.115-6.45 1.294-6.597 3.91-28.111 14.079-36.138 9.076-2.408-1.501-3.938-3.55-5.314-5.686a78.834 78.834 0 00-.312 2.214c-1.118 8.883 3.283 13.95 11.994 15.66 2.813.551 5.747 1.175 8.557 1.58 2.494.369 5.798-.344 7.97 1.304 2.561 1.913 1.207 4.748 5.134 4.895.512.021 1.021.032 1.526.032 10.453 0 19.196-3.806 29.273-5.948 2.913-.624 6.31-1.108 9.26-1.839 6.438-1.601 12.95-2.031 19.431-3.235 5.917-1.086 9.611-2.939 12.56-8.238 3.247-5.82 10.46-6.6 12.767-13.03z" fill="#607d8b"/><path d="M78.54 63.65c-.05-1.536 1.006-4.582 2.06-5.679 1.724-1.777 4.809-1.157 6.866-2.605 2.214-1.544 11.208-8.396 13.19-3.873 1.43 3.242-2.046 6.077 1.154 8.893 1.512 1.319 2.827 1.337 2.246 3.523-.39 1.498-1.981 2.791-2.07 4.336-.097 1.462 1.576 2.379 1.58 3.6.01 2.15-2.824 2.534-4.25 3.319-2.466 1.372-5.013 3.264-6.98 5.293-2.014 2.064-3.713 4.325-6.963 4.167-6.583-.337-3.705-8.191-4.253-12.327-.395-2.988-2.49-5.561-2.58-8.646zM52.378 92.877c-.538-.792-1.018-2.744-.842-3.665.304-1.523 2.132-2.236 2.72-3.691.644-1.562 3.034-8.202 5.607-6.5 1.85 1.218.978 3.873 3.623 4.271 1.236.172 1.931-.262 2.368 1.09.316.92-.093 2.142.38 2.97.452.806 1.634.717 2.054 1.362.73 1.121-.62 2.279-1.108 3.174-.831 1.563-1.53 3.412-1.867 5.142-.365 1.77-.48 3.526-2.232 4.548-3.576 2.053-4.726-3.039-6.414-5.024-1.222-1.455-3.193-2.09-4.29-3.677z" fill="#607d8b"/></g></svg>