<svg xmlns="http://www.w3.org/2000/svg" width="48" height="48" viewBox="0 0 172 172"><g fill="none" stroke-miterlimit="10" font-family="none" font-weight="none" font-size="none" text-anchor="none" style="mix-blend-mode:normal"><path d="M0 172V0h172v172z"/><path d="M146.917 130.433c-2.15 0-3.584-1.433-3.584-3.583 0-18.633-9.675-29.742-25.8-29.742-2.15 0-3.583-1.433-3.583-3.583 0-2.15 1.433-3.583 3.583-3.583 20.425 0 32.967 14.333 32.967 36.908 0 1.792-1.792 3.583-3.583 3.583z" fill="#7a534b"/><path d="M110.367 98.9c7.166-5.017 16.483-10.392 23.65-17.2 15.05-14.692 17.2-36.55 5.016-48.375-12.183-12.183-34.4-10.033-49.45 4.658-6.808 6.809-10.75 14.334-15.766 21.142 0 0 .716 14.333 12.9 25.442 12.541 11.108 23.65 14.333 23.65 14.333z" fill="#7a534b"/><path d="M110.367 102.483h-.717c-.358 0-12.183-3.225-25.083-15.05C71.308 75.25 70.592 60.2 70.592 59.483c0-.716 0-1.433.716-2.15 1.075-1.791 2.15-3.225 3.225-5.016 3.584-5.734 7.167-11.467 12.9-16.842C103.917 19.35 127.925 17.2 141.9 30.817c5.733 5.733 8.958 13.616 8.958 22.575 0 11.108-5.016 22.575-13.975 31.175-6.091 6.091-13.616 10.75-20.066 15.05-1.434 1.075-2.867 1.791-3.942 2.508-1.075 0-1.792.358-2.508.358zM77.758 59.842c.359 3.225 2.509 13.616 11.825 22.216 8.959 8.242 17.2 11.825 20.425 12.9.717-.716 1.792-1.075 2.509-1.791 6.45-3.942 13.258-8.6 18.991-14.334 7.525-7.166 11.825-16.841 11.825-26.158 0-6.808-2.508-12.9-6.808-17.2-10.75-10.75-30.817-8.6-44.433 4.658-5.017 5.017-8.242 10.392-11.825 15.409-.717 1.433-1.434 2.866-2.509 4.3z" fill="#aa6c4c"/><path d="M101.05 93.167c-1.433 0-2.508-.717-3.225-1.792-1.075-1.792-.358-3.942 1.433-5.017 9.675-5.375 18.275-13.616 23.65-19.35 7.167-7.525 8.959-17.558 3.942-22.575-5.017-5.016-16.842-2.508-25.083 5.375-7.525 7.525-13.975 16.125-18.634 25.8-.716 1.792-2.866 2.509-4.658 1.792-1.792-.717-2.508-2.867-1.792-4.658C81.7 62.708 88.508 53.033 96.392 45.15c11.108-11.108 26.875-13.258 35.116-5.375 8.6 8.6 4.659 23.65-3.941 32.608-5.734 6.092-15.05 15.05-25.442 20.784h-1.075z" fill="#aa6c4c"/><path d="M89.583 86c-.716 0-1.791-.358-2.508-.717-1.075-1.075-1.433-2.866-.717-4.3 4.3-8.6 22.575-31.891 31.534-33.325 2.508-.358 3.941.717 4.658 1.434 1.075 1.075 1.433 2.508 1.433 3.941-.716 9.317-31.891 31.892-32.25 32.25-.716.359-1.433.717-2.15.717z" fill="#aa6c4c"/><path d="M61.633 73.458c-7.166 5.017-16.483 10.392-23.65 17.2-15.05 14.692-17.2 36.55-5.016 48.375 12.183 12.184 34.4 10.034 49.45-4.658 6.808-6.808 10.75-14.333 15.766-21.142 0 0-.716-14.333-12.9-25.441-12.541-11.467-23.65-14.334-23.65-14.334z" fill="#7a534b"/><path d="M53.392 150.5c-8.6 0-16.842-2.867-22.575-8.958-6.092-5.734-9.317-13.617-9.317-22.217 0-11.108 5.017-22.575 13.975-31.175 6.092-6.092 13.617-10.75 20.067-15.05 1.433-1.075 2.866-1.792 3.941-2.508.717-.717 1.792-.717 2.867-.359.358 0 12.183 3.225 25.083 15.05 13.259 12.184 13.975 27.234 13.975 27.95 0 .717 0 1.434-.716 2.15-1.075 1.792-2.15 3.225-3.225 5.017-3.584 5.733-7.167 11.467-12.9 16.842-8.959 8.6-20.425 13.258-31.175 13.258zm8.6-73.458c-.717.716-1.792 1.075-2.867 1.791-6.45 3.942-13.258 8.6-18.992 14.334-7.166 7.166-11.466 16.841-11.466 26.158 0 6.808 2.508 12.9 6.808 17.2 10.75 10.75 30.817 8.6 44.433-4.658 5.017-5.017 8.242-10.392 11.825-15.409.717-1.433 1.792-2.866 2.509-3.941-.359-3.225-2.509-13.617-11.825-22.217-8.6-8.6-17.2-11.825-20.425-13.258z" fill="#aa6c4c"/><path d="M52.317 137.242c-5.017 0-9.317-1.434-12.542-4.659-8.6-8.6-4.658-23.65 3.942-32.608 5.733-6.092 14.691-15.05 25.441-20.783 1.792-1.075 3.942-.359 5.017 1.433 1.075 1.792.358 3.942-1.433 5.017-10.034 5.375-18.275 13.616-23.65 19.35-7.167 7.525-8.959 17.558-3.942 22.575 5.017 5.016 16.842 2.508 25.083-5.375 5.375-5.017 12.542-13.617 18.634-25.8.716-1.792 2.866-2.509 4.658-1.792 1.792.717 2.508 2.867 1.792 4.658-6.45 12.9-14.334 22.217-19.709 27.592-7.525 6.808-15.766 10.392-23.291 10.392z" fill="#aa6c4c"/><path d="M53.033 124.342c-1.791 0-3.225-.717-3.583-1.434-1.075-1.075-1.433-2.508-1.433-3.941.716-9.317 31.891-31.892 32.25-32.25 1.433-1.075 3.225-.717 4.3.358 1.075 1.075 1.433 2.867.716 4.3-4.3 8.6-22.575 31.533-31.533 33.325 0-.358-.358-.358-.717-.358z" fill="#aa6c4c"/><path d="M97.467 119.325c-8.242 0-19.709-6.808-28.667-15.767-10.033-9.675-16.125-20.425-16.125-28.308 0-3.942 1.433-6.092 2.867-7.525 1.433-1.433 3.583-1.433 5.016 0 1.434 1.433 1.434 3.583 0 5.017-.716.716-.716 1.433-.716 2.508 0 4.658 4.3 13.975 13.975 23.292 11.825 11.825 23.65 15.408 26.158 12.9 1.433-1.434 3.583-1.434 5.017 0 1.433 1.433 1.433 3.583 0 5.016-2.15 1.792-4.659 2.867-7.525 2.867z" fill="#aa6c4c"/><path d="M101.767 114.667c-8.242 0-19.709-6.809-28.667-15.767-10.033-9.675-16.125-20.425-16.125-28.308 0-3.942 1.433-6.092 2.867-7.525 1.433-1.434 3.583-1.434 5.016 0 1.434 1.433 1.434 3.583 0 5.016-.716.717-.716 1.434-.716 2.509 0 4.658 4.3 13.975 13.975 23.291 11.825 11.825 23.65 15.409 26.158 12.9 1.433-1.433 3.583-1.433 5.017 0 1.433 1.434 1.433 3.584 0 5.017-1.792 1.792-4.659 2.867-7.525 2.867z" fill="#7a534b"/><path d="M106.067 110.008c-8.242 0-19.709-6.808-28.667-15.766-10.033-9.675-16.125-20.425-16.125-28.309 0-3.941 1.433-6.091 2.867-7.525 1.433-1.433 3.583-1.433 5.016 0 1.434 1.434 1.434 3.584 0 5.017-.716.717-.716 1.433-.716 2.508 0 4.659 4.3 13.975 13.975 23.292 11.825 11.825 23.65 15.408 26.158 12.9 1.433-1.433 3.583-1.433 5.017 0 1.433 1.433 1.433 3.583 0 5.017-1.792 2.15-4.3 2.866-7.525 2.866z" fill="#aa6c4c"/><path d="M110.367 104.992c-8.242 0-19.709-6.809-28.667-15.767C71.667 79.55 65.575 68.8 65.575 60.917c0-3.942 1.433-6.092 2.867-7.525 1.433-1.434 3.583-1.434 5.016 0 1.434 1.433 1.434 3.583 0 5.016-.716.717-.716 1.434-.716 2.509 0 4.658 4.3 13.975 13.975 23.291 11.825 11.825 23.65 15.409 26.158 12.9 1.433-1.433 3.583-1.433 5.017 0 1.433 1.434 1.433 3.584 0 5.017-1.792 2.15-4.659 2.867-7.525 2.867z" fill="#7a534b"/><path d="M115.025 100.692c-8.242 0-19.708-6.809-28.667-15.767C76.325 75.25 70.233 64.5 70.233 56.617c0-3.942 1.434-6.092 2.867-7.525 1.433-1.434 3.583-1.434 5.017 0 1.433 1.433 1.433 3.583 0 5.016-.717.717-.717 1.434-.717 2.509 0 4.658 4.3 13.975 13.975 23.291 11.825 11.825 23.65 15.409 26.158 12.9 1.434-1.433 3.584-1.433 5.017 0 1.433 1.434 1.433 3.584 0 5.017-2.15 1.792-4.658 2.867-7.525 2.867z" fill="#aa6c4c"/></g></svg>