<svg xmlns="http://www.w3.org/2000/svg" width="48" height="48" viewBox="0 0 172 172"><g fill="none" stroke-miterlimit="10" font-family="none" font-weight="none" font-size="none" text-anchor="none" style="mix-blend-mode:normal"><path d="M0 172V0h172v172z"/><path d="M129 71.663L57.333 21.5l-43 60.913 75.25 50.167h21.5l25.342-41.585z" fill="#e0ac6e"/><path d="M130.734 128.015c4.515 4.303 9.822 5.844 11.822 3.415 2.014-2.426-.029-7.895-4.548-12.198-4.518-4.304-9.81-5.845-11.82-3.412-2.011 2.416.035 7.884 4.546 12.195zm-21.948 9.707c5.791 2.759 11.542 2.69 12.797-.15 1.272-2.846-2.412-7.393-8.206-10.134-5.791-2.752-11.531-2.695-12.793.154-1.272 2.834 2.412 7.374 8.202 10.13zm-3.135-24.04c4.515 4.303 9.822 5.844 11.821 3.414 2.014-2.426-.028-7.894-4.547-12.198-4.518-4.303-9.811-5.844-11.821-3.41-2.01 2.414.036 7.882 4.547 12.193zm37.682 29.648c-5.937 0-10.75 2.406-10.75 5.375 0 2.968 4.813 5.375 10.75 5.375s10.75-2.407 10.75-5.375c0-2.969-4.813-5.375-10.75-5.375z" fill="#5d4037"/><path d="M57.333 21.5l7.937 20.257-29.437 40.656h-21.5l75.25 50.167L129 71.663z" fill="#ffcc80"/><path d="M100.333 82.417c0 11.878-9.617 21.496-21.5 21.496-11.882 0-21.5-9.618-21.5-21.496 0-11.886 9.618-21.504 21.5-21.504 11.883 0 21.5 9.618 21.5 21.504" fill="#558b2f"/><g fill="#fff"><path d="M73.587 71.462c0-2.97 2.347-5.367 5.246-5.367 2.9 0 5.246 2.397 5.246 5.367 0 2.982-5.246 10.758-5.246 10.758s-5.246-7.776-5.246-10.758M84.08 92.97c0 2.977-2.347 5.375-5.246 5.375-2.899 0-5.246-2.398-5.246-5.375 0-2.978 5.246-10.75 5.246-10.75s5.246 7.772 5.246 10.75"/><path d="M67.123 81.496c-2.512-1.487-3.365-4.762-1.92-7.342 1.443-2.577 4.658-3.455 7.17-1.96 2.504 1.487 6.46 10.026 6.46 10.026s-9.198.756-11.71-.724m23.42 1.444c2.513 1.487 3.365 4.77 1.921 7.342-1.444 2.58-4.658 3.454-7.17 1.967-2.508-1.483-6.46-10.03-6.46-10.03s9.198-.766 11.71.72"/><path d="M90.544 81.496c2.512-1.487 3.364-4.762 1.92-7.342-1.444-2.577-4.658-3.455-7.17-1.96-2.508 1.487-6.46 10.026-6.46 10.026s9.198.756 11.71-.724M67.123 82.94c-2.512 1.487-3.365 4.77-1.92 7.342 1.443 2.58 4.658 3.454 7.17 1.967 2.504-1.483 6.46-10.03 6.46-10.03s-9.198-.766-11.71.72"/></g><path d="M84.208 82.417a5.372 5.372 0 01-5.375 5.371 5.372 5.372 0 01-5.375-5.371 5.373 5.373 0 015.375-5.379 5.373 5.373 0 015.375 5.379" fill="#ffc107"/></g></svg>