<svg xmlns="http://www.w3.org/2000/svg" width="48" height="48" viewBox="0 0 172 172"><g fill="none" stroke-miterlimit="10" font-family="none" font-weight="none" font-size="none" text-anchor="none" style="mix-blend-mode:normal"><path d="M0 172V0h172v172z"/><path d="M57.333 129H0l1.193-3.583L44 96.75c1.54 0 2.913.985 3.4 2.451zm57.334 0H57.333l1.194-3.583 42.806-28.667c1.54 0 2.913.985 3.4 2.451zM172 129h-57.333l1.193-3.583 42.806-28.667c1.541 0 2.914.985 3.401 2.451zm-28.667-32.25H86l1.193-3.583L130 64.5c1.54 0 2.913.985 3.4 2.451zM114.667 64.5H57.333l1.194-3.583 42.806-28.667c1.54 0 2.913.985 3.4 2.451zM86 96.75H28.667l1.193-3.583L72.666 64.5c1.541 0 2.914.985 3.401 2.451z" fill="#456"/><path d="M47.193 98.685L0 129l9.926-29.813c.501-1.434 1.863-2.437 3.404-2.437h30.673c1.362 0 2.544.752 3.19 1.935zm57.333 0L57.333 129l9.926-29.813c.502-1.434 1.863-2.437 3.404-2.437h30.674c1.361 0 2.544.752 3.189 1.935zm57.333 0L114.667 129l9.926-29.813c.501-1.434 1.863-2.437 3.404-2.437h30.673c1.362 0 2.544.752 3.19 1.935zm-28.667-32.25L86 96.75l9.926-29.813c.502-1.434 1.863-2.437 3.404-2.437h30.673c1.362 0 2.545.752 3.19 1.935zm-28.666-32.25L57.333 64.5l9.926-29.813c.502-1.434 1.863-2.437 3.404-2.437h30.674c1.361 0 2.544.752 3.189 1.935zm-28.667 32.25L28.667 96.75l9.926-29.813c.501-1.434 1.863-2.437 3.404-2.437H72.67c1.362 0 2.544.752 3.19 1.935z" fill="#789"/></g></svg>
