<svg xmlns="http://www.w3.org/2000/svg" width="48" height="48" viewBox="0 0 172 172"><g fill="none" stroke-miterlimit="10" font-family="none" font-weight="none" font-size="none" text-anchor="none" style="mix-blend-mode:normal"><path d="M0 172V0h172v172z"/><path d="M122.471 19.988C86.481.004 59.315 14.598 37.603 49.54c-13.097 21.077-13.595 47.74-9.825 58.662 3.19 9.948 7.414 21.035-6.5 41.904-6.955 6.955.63 13.699 7.586 10.22 6.837-3.419 22.453-18.11 40.789-17.387 23.643.165 54.592-3.103 72.258-35.174 19.117-34.7 16.551-67.79-19.44-87.777z" fill="#8bc34a"/><path d="M36.6 140.864c1.111-1.526 10.306-13.48 12.03-15.684 11.556-14.792 37.345-53.829 48.12-100.939 0 52.18-33.544 100.663-60.15 116.623z" fill="#ccff90"/><path d="M65.18 114.04l-7.166.132c-.498-26.577-12.158-49.866-12.158-49.866.638.635 18.773 20.296 19.325 49.734zM79.188 77.06c-2.566-22.64-11.427-42.993-11.427-42.993.562.552 15.68 16.877 18.55 42.183z" fill="#ccff90"/><path d="M83.427 82.965l-5.267-4.86c18.733-20.302 57.147-20.274 58.559-20.256.003 0-36.744 7.181-53.292 25.116zM63.045 116.286l-3.375-6.32c20.3-10.84 57.734-9.267 59.031-9.131-.003 0-37.32 5.665-55.656 15.451z" fill="#ccff90"/></g></svg>