<svg xmlns="http://www.w3.org/2000/svg" width="48" height="48" viewBox="0 0 172 172"><g fill="none" stroke-miterlimit="10" font-family="none" font-weight="none" font-size="none" text-anchor="none" style="mix-blend-mode:normal"><path d="M0 172V0h172v172z"/><path d="M19.346 129.946c1.728 13.312 10.654 23.406 23.27 23.406 61.813 0 94.475-29.501 94.475-29.501 1.433-1.43 19.766-18.29 19.766-37.421 0-16.874-13.083-32.318-25.015-42.477-9.693-8.245-19.69-18.29-33.433-18.29-24.402 0-38.524 9.278-44.121 25.851 10.076 57.33-38.3 52.628-34.942 78.432z" fill="#f44336"/><path d="M89.225 92.833a3.597 3.597 0 116.493-3.06c2.035 5.132 3.024 10.198 2.845 15.595-.168 5.307-2.2 10.847-6.06 14.577-1.967 1.9-4.027 3.135-5.897 4.612a121.614 121.614 0 00-5.633 4.507c-1.835 1.56-3.612 3.179-5.264 4.92-1.57 1.767-3.354 3.562-3.956 5.916.322-2.447 1.91-4.497 3.282-6.478 1.458-1.967 3.064-3.824 4.723-5.619a126.49 126.49 0 015.142-5.235c1.749-1.734 3.684-3.297 4.999-4.977 2.73-3.465 3.708-7.834 3.325-12.17-.355-4.296-1.892-8.807-3.92-12.444zm27.477-13.957a3.619 3.619 0 013.193-4.006 3.622 3.622 0 014.01 3.19l.003.057c.297 2.62.262 4.92.097 7.342a36.858 36.858 0 01-1.197 7.055c-1.24 4.576-3.745 8.944-7.457 11.553 2.874-3.508 3.906-7.876 3.91-12.069 0-2.114-.223-4.21-.628-6.27-.394-2.021-.974-4.16-1.684-5.88a3.98 3.98 0 01-.247-.972zm-6.905-20.744a5.392 5.392 0 017.951 2.265 5.399 5.399 0 01-2.72 7.138c-4.661 2.086-9.098 3.497-14.096 4.29-2.476.358-5.06.53-7.762.179a16.048 16.048 0 01-7.66-3.032c-2.283-1.684-3.889-4.074-4.803-6.39-.931-2.332-1.372-4.614-1.813-6.804-.426-2.196-.853-4.296-1.62-6.332-.795-1.938-1.67-4.178-3.733-5.099 2.297.455 3.787 2.598 5.052 4.43 1.269 1.92 2.233 4.066 3.128 6.105 1.728 4.114 3.795 7.87 6.91 9.045 3.152 1.308 6.643.956 10.42-.33 3.662-1.233 7.51-3.257 10.65-5.41z" fill="#ff8a80"/><path d="M122.141 59.164c-.24 4.085-.003 8.68.67 12.925.689 4.286 1.878 8.49 4.028 12.012 1.125 1.83 2.315 3.046 4.268 4.77 1.827 1.737 3.458 3.697 4.619 5.998 1.172 2.268 1.67 4.941 1.268 7.392-.376 2.466-1.515 4.608-2.755 6.58.85-2.172 1.512-4.451 1.415-6.659-.079-2.21-.91-4.242-2.221-5.905-1.294-1.673-3.003-3.078-4.816-4.235-1.796-1.029-4.325-2.702-6.013-4.627-3.555-3.891-5.848-8.546-7.579-13.23-1.713-4.765-2.91-9.438-3.626-14.655zm-28.595 52.177c.086-.989.96-1.72 1.95-1.637a1.797 1.797 0 011.641 1.946l-.004.042c-.265 3.122-.236 6.425.226 9.59.237 1.587.61 3.164 1.236 4.633.631 1.455 1.556 2.863 3.018 3.683-1.591-.534-2.863-1.838-3.806-3.253-.946-1.43-1.637-3.017-2.19-4.63-1.096-3.254-1.734-6.568-2.067-10.044a3.331 3.331 0 01-.003-.33z" fill="#ff8a80"/><path d="M109.826 54.424c8.481-30.502-27.266-29.172-34.88-27.828 16.24-5.096 32.128-10.27 58.558 18.844 25.306 23.07 30.688 38.994 26.27 51.084C163.13 75.472 130 40.667 120.13 62.483c-17.02 37.625-77.887 63.776-81.969 66.291-4.368 2.688-8.79-2.462-5.375-5.375 3.856-3.282 65.393-27.097 77.039-68.975z" fill="#fbe9e7"/><path d="M14.878 135.522l.147-.007c1.276 12.806 10.897 22.087 24.93 22.087 70.025 0 100.333-31.515 100.333-31.515 1.533-1.527 21.052-19.483 21.052-39.865 0-17.974-13.943-34.421-26.653-45.24C124.363 32.197 113.71 21.5 99.076 21.5c-15.953 0-30.702 6.654-41.32 16.91l.007.082c-8.614 8.425-7.535 18.089-6.572 26.62.918 8.113 1.785 15.778-4.231 23.64-4.508 5.895-9.579 10.184-14.477 14.326-9.65 8.17-18.762 15.885-17.605 32.444zm7.156-2.939c0-1.071.043-2.01.132-2.906a22.23 22.23 0 01.359-2.15c.372-1.602.996-3.268 1.974-5.45 2.652-5.02 7.167-8.915 12.617-13.53 4.952-4.19 10.557-8.941 15.537-15.445 7.773-10.151 6.651-20.06 5.662-28.8-.92-8.187-1.641-14.666 4.404-20.625 9.464-9.399 22.328-15.01 36.357-15.01 10.449 0 18.83 7.267 27.699 14.96 1.096.946 2.178 1.888 3.264 2.813 9.012 7.668 24.127 23.034 24.127 39.782 0 14.839-12.983 29.01-18.565 34.418l-.201.2c-1.663 1.448-32.45 30.405-95.457 29.6-10.148.085-17.91-7.68-17.91-17.857z" fill="#ffccbc"/></g></svg>