<svg xmlns="http://www.w3.org/2000/svg" width="48" height="48" viewBox="0 0 172 172"><g fill="none" stroke-miterlimit="10" font-family="none" font-weight="none" font-size="none" text-anchor="none" style="mix-blend-mode:normal"><path d="M0 172V0h172v172z"/><path d="M53.75 43v111.026c0 2.365 1.136 4.619 3.114 5.923 4.321 2.849 9.392 4.884 14.803 4.884 5.41 0 10.48-2.035 14.802-4.884 1.978-1.3 3.114-3.554 3.114-5.923V28.666z" fill="#cddc39"/><ellipse cx=".231" cy="22.163" transform="rotate(-63.876) scale(3.58333)" rx="5.939" ry="3.394" fill="#fff9c4"/><path d="M65.607 57.663c-1.716 0-3.36-.37-4.887-1.118-7.927-3.888-9.328-16.738-3.186-29.262 2.77-5.654 6.69-10.388 11.03-13.33 4.937-3.35 9.932-4.088 14.053-2.064 7.927 3.888 9.328 16.738 3.186 29.262-2.77 5.654-6.69 10.388-11.03 13.33-3.114 2.11-6.245 3.182-9.166 3.182zM77.73 17.956c-1.484 0-3.272.663-5.15 1.932-3.275 2.221-6.417 6.066-8.617 10.556-4.458 9.095-3.727 17.884-.09 19.669 1.691.835 4.196.258 6.876-1.559 3.276-2.222 6.418-6.066 8.618-10.556 4.458-9.095 3.727-17.885.09-19.67-.505-.25-1.09-.372-1.727-.372z" fill="#ffb300"/><path d="M89.583 121.833c15.968-12.774 53.75-35.833 43-82.416-14.333 35.833-35.833 32.25-43 60.916" fill="#689f38"/><path d="M71.667 121.833c-7.49 0-14.083-3.834-17.917-9.639v9.64C58.66 125.81 64.894 129 71.667 129c6.772 0 13.007-3.19 17.916-7.167v-9.639c-3.834 5.805-10.427 9.64-17.916 9.64z" fill="#827717"/></g></svg>