<svg xmlns="http://www.w3.org/2000/svg" width="48" height="48" viewBox="0 0 172 172"><g fill="none" stroke-miterlimit="10" font-family="none" font-weight="none" font-size="none" text-anchor="none" style="mix-blend-mode:normal"><path d="M0 172V0h172v172z"/><path d="M107.5 161.25h-43s-17.917-43-17.917-80.625c0-12.542 3.584-19.708 19.709-19.708h39.416c16.125 0 19.709 7.166 19.709 19.708 0 37.625-17.917 80.625-17.917 80.625z" fill="#90caf9"/><path d="M78.833 53.75h14.334v46.583H78.833z" fill="#42a5f5"/><path d="M103.91 150.5c4.163-11.635 11.402-34.321 13.641-56.9-8.453 5.447-22.277 2.792-30.953-.322-5.113-1.835-9.531-4.626-14.935-6.038-2.784-.728-5.5-2.068-8.367-2.695-2.963-.648-6.307-.347-9.442.265.896 25.31 9.532 52.553 14.24 65.686h35.816z" fill="#eee"/><path d="M93.167 53.75H78.833v-43l14.334 14.333z" fill="#3f51b5"/><path d="M118.25 55.542a5.377 5.377 0 01-5.375 5.375h-53.75a5.375 5.375 0 01-5.375-5.375v-7.167A5.375 5.375 0 0159.125 43h53.75a5.377 5.377 0 015.375 5.375z" fill="#1976d2"/><path d="M68.083 111.083a3.583 3.583 0 100 7.167 3.583 3.583 0 000-7.167zm7.167-10.75a3.583 3.583 0 100 7.167 3.583 3.583 0 000-7.167zm7.167 10.75a3.583 3.583 0 100 7.167 3.583 3.583 0 000-7.167z" fill="#90a4ae"/></g></svg>