<svg xmlns="http://www.w3.org/2000/svg" width="48" height="48" viewBox="0 0 172 172"><g fill="none" stroke-miterlimit="10" font-family="none" font-weight="none" font-size="none" text-anchor="none" style="mix-blend-mode:normal"><path d="M0 172V0h172v172z"/><path d="M82.126 40.71S22.751 28.742 15.183 77.6c-7.554 48.867 37.32 64.16 50.285 67.088 12.957 2.924 71.186 10.972 83.402-41.975 10.126-43.875-28.943-70.309-62.418-61.02z" fill="#ff3d00"/><path d="M86.451 41.692l-4.325-.978s-43.297-8.7-60.648 19.2c5.72 3.49 15.097 7.585 15.097 7.585 6.464 2.788 12.678 4.207 18.469 4.207 5.719 0 10.957-1.358 15.515-3.934 1.502 7.249 5.644 14.874 15.287 20.765l7.005 4.278 3.297-7.52c2.763-6.308 4.139-11.564 4.476-16.294 3.708 1.867 7.836 3.06 12.344 3.06 5.407 0 10.876-1.71 16.25-5.07 0 0 7.056-4.075 11.578-7.518-12.294-16.1-34.314-23.339-54.344-17.78z" fill="#dd2c00"/><path d="M89.583 82.42c6.87-15.677 3.974-22.793-2.72-35.837 9.16 11.933 21.382 25.087 38.554 14.337-13.065-3.472-10.7-13.516-26.926-16.365 12.17.509 18.605 4.314 26.926-12.301-13.101 6.894-20.755-8.213-37.78 7.353-2.873 1.784-5.89-2.745-8.194-.29-12.291-20.43-26.897-2.172-32.86-17.813 0 24.05 23.084 17.508 28.667 21.5C53.52 41.173 55.194 57.71 39.417 60.92c20.754 8.959 34.224.226 39.674-14.66-.852 5.817-8.191 24.747 10.492 36.16z" fill="#4caf50"/><path d="M78.837 43.215c-.093.706 1.405 3.368 6.264 3.368 5.815 0 3.587-2.899 3.587-2.899s-.534-16.734 11.645-27.792c-3.092-2.562-6.346-1.19-6.346-1.19S80.983 28.13 78.837 43.215z" fill="#4caf50"/></g></svg>