<svg xmlns="http://www.w3.org/2000/svg" width="48" height="48" viewBox="0 0 172 172"><g fill="none" stroke-miterlimit="10" font-family="none" font-weight="none" font-size="none" text-anchor="none" style="mix-blend-mode:normal"><path d="M0 172V0h172v172z"/><path d="M71.667 50.167h28.666v75.25H71.667z" fill="#ef6c00"/><path d="M93.167 154.083H78.833a7.165 7.165 0 01-7.166-7.166v-25.084h28.666v25.084a7.165 7.165 0 01-7.166 7.166z" fill="#212121"/><path d="M121.833 21.5v25.083S118.25 43 114.667 43c-7.167 0-10.75 7.167-10.75 7.167v-32.25s3.583 7.166 10.75 7.166c3.583 0 7.166-3.583 7.166-3.583z" fill="#616161"/><path d="M132.583 46.583h-10.75V21.5h10.75a3.585 3.585 0 013.584 3.583V43a3.585 3.585 0 01-3.584 3.583zM76.816 17.917c-12.09 0-24.098 3.45-33.773 10.7a58.04 58.04 0 00-2.584 2.056c-3.78 3.15-6.93 6.888-9.481 10.797-2.648 3.856-4.379 8.148-5.895 12.28 3.068-3.243 6.16-6.282 9.754-8.532 3.501-2.318 7.927-4.698 11.746-5.801 6.16-1.86 11.822-3.071 17.598-3.455 2.1-.14 3.902 1.473 3.902 3.58v10.625l3.584 3.583h28.666l3.584-3.583v-32.25z" fill="#757575"/></g></svg>