<svg xmlns="http://www.w3.org/2000/svg" width="48" height="48" viewBox="0 0 172 172"><g fill="none" stroke-miterlimit="10" font-family="none" font-weight="none" font-size="none" text-anchor="none" style="mix-blend-mode:normal"><path d="M0 172V0h172v172z"/><path d="M124.49 41.183l5.068 5.067L26.51 149.293l-5.067-5.068z" fill="#d88a19"/><path d="M143.573 44.738c-9.341 9.342-19.89 5.798-21.64 4.626-1.762-1.763-4.715-12.298 4.043-21.65 7.59-7.59 24.563-7.543 24.563-7.543s.043 16.97-6.966 24.567zm-65.585 57.115c10.527-.56 22.83 3.562 28.11 7.091-4.088 7.013-11.097 12.266-21.632 13.993-14.036 2.304-20.503-7.658-21.095-10.005-.587-2.34-.021-9.947 14.617-11.08zm6.403-9.94c.591 2.343 7.056 11.728 21.095 9.413 10.532-1.727 17.544-7.56 21.626-14.577-6.454-4.698-18.16-7.65-28.112-5.913-9.95 1.728-15.197 8.74-14.609 11.077zm32.705-32.114c-9.94 3.49-11.828 7.951-11.226 9.7 1.64 4.776 10.097 11.373 22.388 8.47 9.944-2.318 16.942-12.835 17.52-19.858.576-.577-15.234-2.953-28.682 1.688z" fill="#f9a825"/><path d="M57.509 107.65c-2.344-.587-11.721-7.052-10.001-21.095 1.723-10.527 6.984-17.54 13.996-21.621 3.52 4.694 7.654 16.995 7.088 28.114-1.14 14.635-8.74 15.194-11.083 14.602zm32.687-35.618c1.734-9.947-1.225-21.661-5.916-28.111-7.016 4.078-12.266 10.506-14.58 21.034-2.312 14.043 7.073 20.508 9.41 21.095 2.343 1.175 9.355-4.07 11.086-14.018zm23.887-47.357c-7.024.57-17.54 6.98-20.443 17.519-3.487 12.273 3.271 21.335 6.557 23.127 1.756.587 7.543-.857 11.61-10.797 4.655-14.04 2.276-29.85 2.276-29.85zm-57.821 98.9c10.528-.56 22.83 3.562 28.111 7.091-4.088 7.013-11.097 12.266-21.632 13.993-14.036 2.304-20.504-7.657-21.095-10.004-.588-2.337-.022-9.944 14.616-11.08z" fill="#f9a825"/><path d="M35.783 129.373c-2.343-.588-11.72-7.052-10-21.095 1.723-10.528 6.983-17.54 13.996-21.622 3.518 4.694 7.654 16.996 7.087 28.115-1.136 14.634-8.736 15.197-11.083 14.602z" fill="#f9a825"/></g></svg>