<svg xmlns="http://www.w3.org/2000/svg" width="48" height="48" viewBox="0 0 172 172"><g fill="none" stroke-miterlimit="10" font-family="none" font-weight="none" font-size="none" text-anchor="none" style="mix-blend-mode:normal"><path d="M0 172V0h172v172z"/><path d="M43 114.667V150.5H32.25v-35.833zm86 0V150.5h10.75v-35.833z" fill="#ef6c00"/><path d="M154.083 121.833H17.917v-17.916h136.166z" fill="#ffa000"/><path d="M32.25 21.5h21.5v82.417h-21.5z" fill="#673ab7"/><path d="M32.25 21.5h7.167v82.417H32.25z" fill="#4527a0"/><path d="M60.917 21.5h21.5v82.417h-21.5z" fill="#4caf50"/><path d="M60.917 21.5h7.166v82.417h-7.166z" fill="#388e3c"/><path d="M82.417 43h21.5v60.917h-21.5z" fill="#f44336"/><path d="M82.417 43h7.166v60.917h-7.166z" fill="#d32f2f"/><path d="M53.75 39.417h-21.5V32.25h21.5zm0 46.583h-21.5v7.167h21.5z" fill="#9575cd"/><path d="M39.417 39.417H32.25V32.25h7.167zm0 46.583H32.25v7.167h7.167z" fill="#7e57c2"/><path d="M82.417 39.417h-21.5V32.25h21.5zm0 46.583h-21.5v7.167h21.5z" fill="#81c784"/><path d="M68.083 39.417h-7.166V32.25h7.166zm0 46.583h-7.166v7.167h7.166z" fill="#4caf50"/><path d="M103.917 60.917h-21.5V53.75h21.5zm0 25.083h-21.5v7.167h21.5z" fill="#ff8a80"/><path d="M89.583 60.917h-7.166V53.75h7.166zm0 25.083h-7.166v7.167h7.166z" fill="#ff5252"/><path d="M143.333 96.75l-21.5 7.167-17.916-57.334 21.5-7.166z" fill="#00bcd4"/><path d="M110.99 44.225l-7.073 2.358 17.916 57.334 7.081-2.362z" fill="#0097a7"/><path d="M118.676 93.815l-2.146-6.869 21.453-7.314 2.147 6.87zm-11.81-37.797l2.146 6.87 21.41-7.457-2.146-6.87z" fill="#4dd0e1"/><path d="M109.012 62.888l-.717-2.29-1.43-4.58 7.046-2.454 2.146 6.869zm14.584 21.65l-7.066 2.408 1.075 3.433 1.075 3.433 7.066-2.408z" fill="#00bcd4"/></g></svg>