<svg xmlns="http://www.w3.org/2000/svg" width="48" height="48" viewBox="0 0 172 172"><g fill="none" stroke-miterlimit="10" font-family="none" font-weight="none" font-size="none" text-anchor="none" style="mix-blend-mode:normal"><path d="M0 172V0h172v172z"/><path d="M39.93 53.75l6.653 46.583h78.834l6.654-46.583z" fill="#ffc107"/><path d="M139.75 53.75v-8.958a5.377 5.377 0 00-5.375-5.375h-96.75a5.377 5.377 0 00-5.375 5.375v8.958z" fill="#795548"/><path d="M47.096 103.917L53.75 150.5h64.5l6.654-46.583z" fill="#77574f"/><path d="M86 82.417c-9.895 0-17.917 8.021-17.917 17.916S76.105 118.25 86 118.25c9.895 0 17.917-8.022 17.917-17.917 0-9.895-8.022-17.916-17.917-17.916z" fill="#77574f"/><path d="M71.667 100.333c0-2.623.756-5.049 1.988-7.166H45.562l2.559 17.916h28.49c-3.006-2.626-4.944-6.446-4.944-10.75zm26.678-7.166c1.232 2.117 1.988 4.543 1.988 7.166 0 4.304-1.938 8.124-4.945 10.75h28.491l2.559-17.916zM129 21.5H43l-3.583 17.917h93.166z" fill="#4e342e"/><path d="M86 75.25c13.853 0 25.083 11.23 25.083 25.083 0 13.854-11.23 25.084-25.083 25.084-13.853 0-25.083-11.23-25.083-25.084C60.917 86.48 72.147 75.25 86 75.25m0-3.583c-15.806 0-28.667 12.86-28.667 28.666C57.333 116.14 70.193 129 86 129c15.806 0 28.667-12.86 28.667-28.667 0-15.806-12.86-28.666-28.667-28.666z" fill="#5d4037"/><path d="M86 75.25c-13.853 0-25.083 11.23-25.083 25.083 0 13.854 11.23 25.084 25.083 25.084 13.853 0 25.083-11.23 25.083-25.084 0-13.853-11.23-25.083-25.083-25.083zm0 39.417c-7.916 0-14.333-6.418-14.333-14.334C71.667 92.418 78.084 86 86 86s14.333 6.418 14.333 14.333c0 7.916-6.417 14.334-14.333 14.334z" fill="#fff3e0"/></g></svg>