<svg xmlns="http://www.w3.org/2000/svg" width="48" height="48" viewBox="0 0 172 172"><g fill="none" stroke-miterlimit="10" font-family="none" font-weight="none" font-size="none" text-anchor="none" style="mix-blend-mode:normal"><path d="M0 172V0h172v172z"/><path d="M117.175 29.742l-5.017 5.016L129 51.6v16.483c0 2.15 1.433 3.584 3.583 3.584h7.167c2.15 0 3.583-1.434 3.583-3.584v-9.316c0-1.792-.716-3.584-2.15-5.017z" fill="#42a5f5"/><path d="M118.25 154.083h-86V32.25c0-7.883 6.45-14.333 14.333-14.333h57.334c7.883 0 14.333 6.45 14.333 14.333z" fill="#ffc107"/><path d="M147.275 96.75c-3.583-6.45-7.525-12.9-7.525-25.083h-7.167c0 14.333 4.3 21.858 8.6 28.666 3.225 5.375 5.734 10.392 5.734 17.917 0 3.942-3.225 7.167-7.167 7.167-3.942 0-7.167-3.225-7.167-7.167v-17.917c0-3.941-3.225-7.166-7.166-7.166h-7.167v7.166h7.167v17.917c0 7.883 6.45 14.333 14.333 14.333s14.333-6.45 14.333-14.333c0-9.317-3.583-15.408-6.808-21.5zm-129.358 43h136.166v14.333H17.917z" fill="#607d8b"/><path d="M103.917 28.667H46.583C44.433 28.667 43 30.1 43 32.25v35.833c0 2.15 1.433 3.584 3.583 3.584h57.334c2.15 0 3.583-1.434 3.583-3.584V32.25c0-2.15-1.433-3.583-3.583-3.583z" fill="#b2ebf2"/><path d="M103.917 28.667H46.583C44.433 28.667 43 30.1 43 32.25v35.833c0 2.15 1.433 3.584 3.583 3.584h57.334c2.15 0 3.583-1.434 3.583-3.584V32.25c0-2.15-1.433-3.583-3.583-3.583z" fill="#b2ebf2"/><path d="M78.833 71.667l16.842-20.425-25.083 20.425z" fill="#f44336"/><path d="M50.167 49.45l-5.017-5.017c1.075-1.075 1.792-1.791 2.867-2.508l4.658 5.733c-1.075.359-1.792 1.075-2.508 1.792zm50.166 0c-.716-.717-1.433-1.433-2.508-2.15l4.3-5.733c1.075.716 2.15 1.791 2.867 2.508zm-39.416-7.167l-2.867-6.45c1.075-.358 2.508-1.075 3.583-1.433l2.15 6.808c-1.075.359-1.791.717-2.866 1.075zm28.308 0L86 41.208l2.15-6.808c1.075.358 2.508.717 3.583 1.433zm-15.767-2.866L73.1 32.25h3.942l-.359 7.167h-3.225zm8.959 32.25H68.083c0-3.942 3.225-7.167 7.167-7.167 3.942 0 7.167 3.225 7.167 7.167z" fill="#455a64"/></g></svg>