<svg xmlns="http://www.w3.org/2000/svg" width="48" height="48" viewBox="0 0 172 172"><g fill="none" stroke-miterlimit="10" font-family="none" font-weight="none" font-size="none" text-anchor="none" style="mix-blend-mode:normal"><path d="M0 172V0h172v172z"/><path d="M125.413 89.583s9.743-17.411 10.643-27.237c.283-3.081-.821-6.116-3.394-7.833l-2.14-1.426a7.856 7.856 0 01-3.346-8.084l1.666-5.586a7.858 7.858 0 00-6.167-9.249l-5.987-.523a7.865 7.865 0 01-6.085-5.802c-1.218-4.88-6.643-7.374-11.14-5.124l-.502.251c-3.028 1.512-6.988.398-9.381-1.996l-.334-.333c-3.382-3.386-8.976-2.989-11.846.838 0 0-5.733 7.604-9.317 7.604-7.707 15.2-3.587 68.084-3.587 68.084l57.108 5.152z" fill="#689f38"/><path d="M118.25 125.417V89.583c0-14.075-10.75-12.688-10.75-43H89.583c0 30.312-10.75 28.925-10.75 43v35.834z" fill="#fafafa"/><path d="M107.5 53.75H89.583A3.594 3.594 0 0186 50.167v-3.584A3.594 3.594 0 0189.583 43H107.5a3.594 3.594 0 013.583 3.583v3.584a3.594 3.594 0 01-3.583 3.583z" fill="#f48fb1"/><path d="M111.083 89.583c0-3.841-1.05-5.722-2.956-9.14-1.71-3.064-3.737-6.762-5.3-12.36H94.26c-1.563 5.598-3.59 9.296-5.3 12.36-1.91 3.418-2.96 5.299-2.96 9.14v28.667h25.083z" fill="#fafafa"/><path d="M43.004 32.25c.19-14.452 6.364-25.083 14.333-25.083 7.97 0 14.333 10.631 14.333 25.083 0 9.962-6.364 17.917-14.333 17.917-7.97 0-14.466-7.959-14.333-17.917z" fill="#ffd54f"/><path d="M43.004 32.25H71.67v64.5H43.004z" fill="#ffd54f"/><path d="M46.587 53.76s3.135-7.84 8.88-13.107c5.744-5.268 12.62-4.809 12.62-4.809s-3.268 7.622-9.012 12.886c-5.744 5.264-12.488 5.03-12.488 5.03zm0 25.08s3.135-7.84 8.88-13.107c5.744-5.264 12.62-4.81 12.62-4.81s-3.268 7.623-9.012 12.887c-5.744 5.267-12.488 5.03-12.488 5.03z" fill="#ffb300"/><path d="M47.597 105.486L35.97 156.294c-.867 4.422 2.523 8.54 7.035 8.54h85.992c4.361 0 7.712-3.863 7.095-8.181l-5.998-41.986z" fill="#ffab40"/><path d="M125.413 143.753l10.7-54.098A3.09 3.09 0 00133.074 86H38.93a3.09 3.09 0 00-3.06 3.526l7.135 46.64z" fill="#ffab40"/><path d="M111.08 116.458l19.74 3.29-.276-1.932.94-4.758zm-50.156 10.876l-19.777-3.293.882 5.765-.161.706z" fill="#fb8c00"/></g></svg>